<?xml version="1.0" encoding="UTF-8"?>
<svg width="285px" height="92px" viewBox="0 0 285 92" version="1.1" xmlns="http://www.w3.org/2000/svg" xmlns:xlink="http://www.w3.org/1999/xlink">
    <!-- Generator: Sketch 53.2 (72643) - https://sketchapp.com -->
    <title>AOY Lyric</title>
    <desc>Created with Sketch.</desc>
    <g id="Page-1" stroke="none" stroke-width="1" fill="none" fill-rule="evenodd">
        <g id="Music-Index-(2019)" transform="translate(-900.000000, -770.000000)" fill="#4A4A4A" fill-rule="nonzero">
            <g id="Album" transform="translate(775.000000, 268.000000)">
                <path d="M134.728,512.173 L134.88,512.059 C140.238,512.648 138.262,516.657 136.191,515.156 C136.077,514.073 135.412,512.895 134.728,512.173 Z M126.311,512.344 L126.482,512.23 C132.258,513.788 130.548,517.93 128.439,516.429 C128.116,515.042 127.147,513.446 126.311,512.344 Z M142.784,516.372 L140.96,516.372 C140.599,518.12 139.991,519.716 139.06,521.103 C143.05,523.972 142.062,526.784 140.124,525.777 C139.592,524.789 138.756,523.725 137.787,522.68 C136.248,524.257 134.196,525.492 131.479,526.328 C132.847,526.974 134.728,527.183 137.616,527.183 C139.706,527.183 141.416,527.164 143.563,527.05 L143.563,527.259 C142.651,527.487 142.138,528.266 142.024,529.197 L136.875,529.197 C132.942,529.197 131.27,528.266 129.674,525.948 C129.427,525.549 129.199,525.606 129.009,525.948 C128.629,526.594 127.736,527.981 127.147,529.083 C127.204,529.273 127.128,529.425 126.976,529.52 L125.437,527.221 C126.14,526.803 127.109,526.157 127.888,525.644 L127.888,519.146 L125.475,519.146 L125.361,518.595 L127.584,518.595 L128.648,517.208 L130.928,519.032 C130.776,519.203 130.491,519.355 129.94,519.431 L129.94,525.245 L129.959,525.264 C130.32,525.625 130.719,525.929 131.156,526.176 C133.645,524.941 135.412,523.383 136.609,521.559 C135.298,520.324 133.835,519.184 132.505,518.367 L132.714,518.177 C134.614,518.766 136.172,519.412 137.426,520.096 C137.977,518.937 138.319,517.683 138.528,516.372 L131.555,516.372 L131.422,515.821 L139.82,515.821 L141.074,514.282 C141.074,514.282 142.461,515.327 143.335,516.068 C143.278,516.277 143.069,516.372 142.784,516.372 Z M144.684,519.982 L158.098,519.982 L159.675,517.778 C159.675,517.778 161.423,519.298 162.468,520.286 C162.411,520.495 162.202,520.59 161.879,520.59 L144.855,520.59 L144.684,519.982 Z M177.573,528.19 L178.941,526.461 C178.941,526.461 180.48,527.639 181.43,528.437 C181.373,528.646 181.164,528.741 180.879,528.741 L163.741,528.741 L163.589,528.19 L171.208,528.19 L171.208,522.49 L165.983,522.49 L165.831,521.939 L171.208,521.939 L171.208,517.075 L167.845,517.075 C166.667,519.032 165.261,520.59 163.627,521.73 L163.418,521.559 C164.881,519.393 166.287,515.954 166.952,512.515 L170.144,513.465 C170.087,513.693 169.84,513.864 169.403,513.864 C169.023,514.833 168.624,515.726 168.149,516.543 L171.208,516.543 L171.208,511.945 L174.362,512.249 C174.305,512.534 174.172,512.724 173.659,512.8 L173.659,516.543 L176.661,516.543 L177.972,514.928 C177.972,514.928 179.435,515.992 180.366,516.771 C180.309,516.98 180.1,517.075 179.796,517.075 L173.659,517.075 L173.659,521.939 L176.034,521.939 L177.364,520.286 C177.364,520.286 178.884,521.407 179.796,522.186 C179.739,522.395 179.549,522.49 179.283,522.49 L173.659,522.49 L173.659,528.19 L177.573,528.19 Z M183.862,512.211 L183.995,512.078 C189.144,512.496 187.605,516.277 185.61,515.061 C185.325,514.054 184.508,512.914 183.862,512.211 Z M182.475,516.429 L182.646,516.296 C187.472,516.923 185.705,520.514 183.881,519.146 C183.767,518.177 183.121,517.094 182.475,516.429 Z M188.099,514.738 L188.403,514.814 C187.681,517.246 186.389,521.749 186.123,522.832 C185.971,523.478 185.838,524.162 185.857,524.675 C185.876,525.682 186.655,526.385 186.598,528.095 C186.56,529.045 185.952,529.691 185.021,529.691 C184.603,529.691 184.185,529.425 184.033,528.684 C184.375,526.689 184.299,524.922 183.843,524.599 C183.577,524.409 183.254,524.333 182.855,524.295 L182.855,523.934 L183.71,523.934 C183.995,523.934 184.071,523.934 184.28,523.535 C184.66,522.794 184.66,522.794 188.099,514.738 Z M196.592,519.925 L192.146,519.925 C192.678,521.673 193.552,523.06 194.654,524.181 C195.528,522.889 196.174,521.464 196.592,519.925 Z M191.025,519.393 L193.153,519.393 L193.153,515.612 L191.025,515.612 L191.025,519.393 Z M197.713,518.215 L199.67,520.02 C199.537,520.229 199.347,520.286 198.872,520.324 C198.226,522.205 197.295,523.896 195.984,525.34 C197.371,526.366 199.005,527.107 200.734,527.639 L200.696,527.848 C199.765,527.981 199.062,528.646 198.701,529.672 C197.105,528.855 195.756,527.867 194.673,526.575 C193.001,527.962 190.854,529.026 188.099,529.71 L187.966,529.463 C190.417,528.456 192.336,527.069 193.78,525.34 C192.887,523.915 192.222,522.148 191.785,519.925 L191.006,519.925 C190.93,523.06 190.36,527.069 186.94,529.729 L186.731,529.577 C188.745,526.347 188.916,522.357 188.916,518.937 L188.916,514.187 L191.348,515.08 L193.153,515.08 L193.153,511.945 L196.079,512.192 C196.041,512.496 195.87,512.705 195.262,512.8 L195.262,515.08 L197.352,515.08 L198.473,513.959 L200.411,515.821 C200.259,515.973 200.069,516.03 199.67,516.049 C199.062,516.638 197.998,517.588 197.276,518.139 L197.086,518.025 C197.2,517.398 197.371,516.372 197.485,515.612 L195.262,515.612 L195.262,519.393 L196.497,519.393 L197.713,518.215 Z M207.745,512.097 L207.916,511.964 C212.704,512.572 211.26,516.144 209.455,514.928 C209.246,513.94 208.486,512.781 207.745,512.097 Z M202.539,512.135 L202.691,512.002 C207.821,512.629 205.997,516.372 204.021,514.947 C203.831,513.921 203.147,512.838 202.539,512.135 Z M201.361,516.657 L201.513,516.524 C206.453,517.132 204.648,520.742 202.748,519.355 C202.596,518.386 201.95,517.341 201.361,516.657 Z M205.94,515.65 L206.225,515.707 C205.731,517.892 204.895,521.939 204.724,522.927 C204.629,523.535 204.534,524.181 204.534,524.675 C204.572,525.663 205.332,526.404 205.256,528.114 C205.218,529.045 204.629,529.672 203.774,529.672 C203.337,529.672 202.919,529.387 202.805,528.703 C203.147,526.708 203.071,524.903 202.653,524.599 C202.387,524.409 202.121,524.333 201.703,524.295 L201.703,523.934 L202.52,523.934 C202.767,523.934 202.843,523.934 203.033,523.535 C203.356,522.851 203.356,522.851 205.94,515.65 Z M206.491,514.453 L209.056,514.719 C209.018,514.966 208.866,515.156 208.41,515.232 L208.41,529.064 C208.41,529.273 207.593,529.691 206.871,529.691 L206.491,529.691 L206.491,514.453 Z M210.595,522.528 L211.925,522.528 L211.925,519.336 L210.595,519.336 L210.595,519.868 L210.766,519.792 C212.704,521.217 211.773,522.737 211.07,522.015 C211.127,521.407 210.88,520.609 210.595,520.077 L210.595,522.528 Z M214.547,519.336 L213.198,519.336 L213.198,521.73 C213.464,521.046 213.749,520.172 213.863,519.678 L214.547,520.077 L214.547,519.336 Z M213.198,522.528 L214.547,522.528 L214.547,520.685 C214.262,521.065 213.787,521.673 213.293,522.205 L213.198,522.148 L213.198,522.528 Z M213.407,523.079 L213.407,523.839 C217.435,524.523 216.485,527.335 214.946,526.518 C214.68,525.815 214.034,525.055 213.407,524.447 L213.407,528.418 C213.407,528.551 212.875,528.931 211.982,528.931 L211.697,528.931 L211.697,525.093 C210.975,526.043 210.044,526.898 208.999,527.62 L208.79,527.354 C209.797,526.176 210.538,524.618 211.013,523.079 L210.595,523.079 L210.595,523.44 C210.595,523.554 209.987,523.877 209.398,523.877 L209.208,523.877 L209.208,518.158 L210.69,518.804 L211.678,518.804 L211.678,517.417 L208.885,517.417 L208.733,516.885 L211.678,516.885 L211.678,514.586 L213.901,514.814 C213.863,515.004 213.749,515.156 213.388,515.232 L213.388,516.885 L214.129,516.885 L215.022,515.688 C215.022,515.688 216.048,516.524 216.656,517.113 C216.618,517.322 216.428,517.417 216.162,517.417 L213.388,517.417 L213.388,518.804 L214.414,518.804 L215.117,518.063 L216.599,519.203 C216.523,519.317 216.276,519.431 216.01,519.488 L216.01,523.174 C215.991,523.307 215.269,523.611 214.794,523.611 L214.547,523.611 L214.547,523.079 L213.407,523.079 Z M217.53,512.572 L219.487,514.092 C219.373,514.244 219.107,514.396 218.746,514.453 L218.746,527.525 C218.746,528.817 218.461,529.482 216.257,529.672 C216.2,529.14 216.143,528.722 215.896,528.494 C215.649,528.247 215.269,528.057 214.471,527.924 L214.471,527.677 C214.471,527.677 216.067,527.772 216.428,527.772 C216.751,527.772 216.808,527.658 216.808,527.392 L216.808,514.168 L211.792,514.168 L211.621,513.617 L216.618,513.617 L217.53,512.572 Z M223.952,511.888 L226.84,512.173 C226.802,512.439 226.669,512.648 226.137,512.724 L226.137,528.893 C226.137,529.14 225.187,529.672 224.37,529.672 L223.952,529.672 L223.952,522.547 C223.496,523.345 222.888,524.333 222.147,525.416 C222.147,525.663 221.995,525.948 221.786,526.062 L220.323,523.478 C220.969,523.174 222.413,522.395 223.952,521.521 L223.952,518.348 C223.667,519.184 222.736,519.564 221.9,518.709 C221.957,517.398 221.444,515.935 220.874,514.89 L221.064,514.776 C222.869,515.479 223.705,516.448 223.952,517.303 L223.952,511.888 Z M238.164,518.823 L233.3,518.823 L233.3,528.152 L235.01,528.152 L236.188,526.537 C236.188,526.537 237.499,527.639 238.278,528.38 C238.221,528.589 238.031,528.684 237.746,528.684 L227.144,528.684 L227.011,528.152 L231.02,528.152 L231.02,518.823 L226.802,518.823 L226.65,518.291 L231.02,518.291 L231.02,512.097 L233.984,512.382 C233.946,512.667 233.813,512.857 233.3,512.933 L233.3,518.291 L235.428,518.291 L236.606,516.695 C236.606,516.695 237.917,517.797 238.696,518.519 C238.658,518.728 238.449,518.823 238.164,518.823 Z M243.731,515.745 L243.883,515.631 C248.044,515.802 246.6,518.918 244.928,517.854 C244.776,517.094 244.225,516.239 243.731,515.745 Z M242.8,518.234 L242.971,518.12 C246.98,518.386 245.327,521.331 243.769,520.191 C243.674,519.488 243.218,518.671 242.8,518.234 Z M242.306,511.907 L242.477,511.774 C247.474,512.249 246.011,515.935 244.073,514.757 C243.807,513.769 243.009,512.61 242.306,511.907 Z M240.444,514.244 L243.294,514.529 C243.237,514.814 243.085,515.042 242.496,515.118 L242.496,528.988 C242.496,529.216 241.622,529.672 240.805,529.672 L240.444,529.672 L240.444,514.244 Z M251.388,522.642 L248.842,522.642 L248.842,525.397 L251.388,525.397 L251.388,522.642 Z M251.388,525.948 L248.842,525.948 L248.842,526.746 C248.842,526.917 248.044,527.316 247.303,527.316 L247.037,527.316 L247.037,521.331 L248.937,522.11 L249.241,522.11 L249.241,520.039 L246.771,520.039 L246.638,519.526 C246.201,520.59 245.726,521.749 245.593,522.129 C245.441,522.547 245.327,523.06 245.327,523.44 C245.346,524.2 245.973,524.827 245.897,526.157 C245.878,526.936 245.365,527.43 244.548,527.43 C244.187,527.43 243.845,527.145 243.75,526.575 C243.997,524.884 243.921,523.611 243.522,523.364 C243.275,523.212 243.028,523.136 242.648,523.098 L242.648,522.718 L243.503,522.718 C243.769,522.718 243.864,522.718 244.073,522.414 C244.472,521.901 244.472,521.901 246.809,518.215 L247.113,518.31 L246.638,519.488 L249.241,519.488 L249.241,517.417 C248.405,517.455 247.569,517.474 246.771,517.455 L246.733,517.17 C248.538,516.733 250.761,515.84 251.901,515.156 L253.877,517.018 C253.668,517.189 253.288,517.227 252.775,517.018 C252.281,517.113 251.711,517.189 251.084,517.265 L251.084,519.488 L251.445,519.488 L252.452,518.196 C252.452,518.196 253.573,519.089 254.257,519.735 C254.219,519.944 254.029,520.039 253.763,520.039 L251.084,520.039 L251.084,522.11 L251.407,522.11 L251.407,522.091 L251.236,522.091 L252.091,521.179 L253.915,522.547 C253.801,522.68 253.554,522.832 253.212,522.908 L253.212,526.328 C253.193,526.461 252.281,526.784 251.711,526.784 L251.388,526.784 L251.388,525.948 Z M255.036,512.306 L257.107,513.921 C256.974,514.073 256.708,514.244 256.328,514.301 L256.328,527.145 C256.328,528.589 256.005,529.425 253.497,529.672 C253.44,529.007 253.326,528.494 253.022,528.19 C252.68,527.867 252.224,527.62 251.236,527.468 L251.236,527.183 C251.236,527.183 253.383,527.335 253.82,527.335 C254.162,527.335 254.276,527.202 254.276,526.898 L254.276,513.959 L246.942,513.959 L246.771,513.427 L254.086,513.427 L255.036,512.306 Z M268.203,524.39 L268.241,524.656 C266.531,525.435 264.061,526.48 260.356,527.848 C260.261,528.095 260.071,528.247 259.862,528.304 L258.551,525.967 C260.223,525.758 264.137,525.112 268.203,524.39 Z M262.313,522.319 L264.726,522.319 L264.726,518.785 L262.313,518.785 L262.313,522.319 Z M265.087,523.877 L264.726,523.877 L264.726,522.851 L262.313,522.851 L262.313,523.725 C262.313,523.896 261.42,524.352 260.565,524.352 L260.28,524.352 L260.28,517.379 L262.389,518.234 L264.555,518.234 L265.486,517.246 L267.443,518.709 C267.348,518.842 267.12,518.975 266.797,519.051 L266.797,523.288 C266.778,523.44 265.771,523.877 265.087,523.877 Z M276.164,524.2 L275.784,527.316 C276.487,528.266 276.601,528.779 276.335,529.14 C275.594,530.09 274.15,529.501 273.105,528.874 C271.927,528.152 271.015,527.183 270.312,526.024 C268.602,527.563 266.398,528.798 263.586,529.615 L263.453,529.406 C266.075,528.19 268.07,526.499 269.571,524.58 C268.621,522.262 268.241,519.393 268.127,516.125 L258.779,516.125 L258.627,515.574 L268.108,515.574 C268.07,514.396 268.051,513.18 268.051,511.907 L271.015,512.23 C270.996,512.477 270.825,512.705 270.331,512.762 C270.312,513.731 270.312,514.662 270.312,515.574 L272.896,515.574 L273.466,514.871 C273.352,514.852 273.238,514.795 273.105,514.738 C272.839,513.921 272.041,512.99 271.376,512.515 L271.509,512.363 C274.511,512.211 275.157,513.579 274.72,514.377 C275.233,514.757 275.993,515.346 276.544,515.821 C276.487,516.03 276.278,516.125 275.993,516.125 L270.331,516.125 C270.388,518.443 270.578,520.552 271.072,522.3 C271.908,520.78 272.478,519.203 272.858,517.607 L275.765,518.557 C275.67,518.766 275.499,518.899 274.986,518.899 C274.302,520.818 273.314,522.699 271.927,524.39 C272.497,525.34 273.2,526.119 274.169,526.689 C274.492,526.898 274.644,526.898 274.815,526.556 C275.119,526.043 275.632,524.979 275.955,524.162 L276.164,524.2 Z M289.958,513.712 L283.156,513.712 L283.156,515.726 L289.958,515.726 L289.958,513.712 Z M283.156,518.31 L289.958,518.31 L289.958,516.258 L283.156,516.258 L283.156,518.31 Z M283.156,518.861 L283.156,519.412 C283.156,519.64 282.111,520.153 281.142,520.153 L280.8,520.153 L280.8,512.192 L283.289,513.18 L289.768,513.18 L290.832,512.002 L293.093,513.693 C292.979,513.845 292.713,514.035 292.333,514.111 L292.333,519.298 C292.314,519.412 291.117,519.83 290.357,519.83 L289.958,519.83 L289.958,518.861 L283.156,518.861 Z M287.849,524.371 L287.849,527.373 C288.21,527.392 288.59,527.392 288.989,527.392 C290.433,527.392 293.929,527.392 295.449,527.354 L295.449,527.582 C294.746,527.734 294.404,528.494 294.404,529.33 L288.951,529.33 C285.569,529.33 283.707,528.589 282.624,525.587 C281.655,527.202 280.078,528.684 277.551,529.672 L277.399,529.482 C280.097,527.487 281.047,524.504 281.294,522.053 L284.391,522.642 C284.315,522.908 284.144,523.079 283.669,523.079 C283.479,523.782 283.232,524.466 282.871,525.15 C283.517,526.214 284.353,526.784 285.474,527.088 L285.474,521.198 L277.798,521.198 L277.646,520.666 L292.029,520.666 L293.245,519.051 C293.245,519.051 294.575,520.153 295.392,520.894 C295.335,521.103 295.126,521.198 294.86,521.198 L287.849,521.198 L287.849,523.82 L290.148,523.82 L291.421,522.11 C291.421,522.11 292.884,523.269 293.739,524.067 C293.682,524.276 293.492,524.371 293.207,524.371 L287.849,524.371 Z M313.746,514.244 L307.704,514.244 C307.248,515.346 306.678,516.448 305.994,517.512 L307.172,517.949 C307.115,518.12 306.944,518.253 306.583,518.31 L306.583,529.197 C306.564,529.33 305.557,529.691 304.721,529.691 L304.303,529.691 L304.303,519.849 C302.251,522.357 299.629,524.599 296.627,526.157 L296.475,526.005 C300.294,522.927 303.543,518.234 304.721,514.244 L296.893,514.244 L296.741,513.712 L310.44,513.712 L311.808,511.964 C311.808,511.964 313.366,513.142 314.297,513.94 C314.24,514.149 314.031,514.244 313.746,514.244 Z M307.191,519.222 L307.362,519.051 C315.969,520.913 315.019,526.043 312.473,524.789 C311.447,522.87 309.072,520.59 307.191,519.222 Z M325.317,511.983 L325.469,511.869 C330.485,512.401 328.3,516.068 326.381,514.529 C326.343,513.598 325.849,512.61 325.317,511.983 Z M316.786,515.479 L317.071,515.479 C317.888,517.588 317.755,519.26 317.242,520.096 C316.862,520.666 315.988,520.78 315.589,520.248 C315.285,519.773 315.494,519.203 315.931,518.823 C316.406,518.234 316.9,516.771 316.786,515.479 Z M318.135,511.869 L320.947,512.154 C320.909,512.42 320.776,512.61 320.244,512.686 L320.244,529.064 C320.244,529.273 319.37,529.691 318.553,529.691 L318.135,529.691 L318.135,511.869 Z M320.282,515.327 L320.51,515.232 C323.968,517.018 322.201,519.678 320.947,518.348 C321.004,517.341 320.662,516.125 320.282,515.327 Z M323.531,522.908 L326.21,523.877 C326.134,524.124 325.887,524.276 325.45,524.238 C324.367,526.29 322.79,527.734 321.061,528.608 L320.833,528.437 C321.935,527.145 322.98,525.093 323.531,522.908 Z M324.994,517.873 L324.994,521.217 L329.877,521.217 L329.877,517.873 L324.994,517.873 Z M329.877,521.768 L328.49,521.768 L328.49,527.183 C328.49,528.589 328.148,529.501 325.868,529.691 C325.83,529.064 325.754,528.57 325.526,528.247 C325.298,527.981 324.937,527.734 324.082,527.601 L324.082,527.335 C324.082,527.335 325.697,527.449 326.02,527.449 C326.305,527.449 326.381,527.335 326.381,527.126 L326.381,521.768 L324.994,521.768 L324.994,522.205 C324.994,522.338 324.367,522.699 323.284,522.699 L322.923,522.699 L322.923,516.448 L325.203,517.341 L329.82,517.341 L330.808,516.201 L332.765,517.664 C332.651,517.816 332.48,517.949 332.062,518.025 L332.062,522.091 C332.062,522.186 331.378,522.547 330.257,522.547 L329.877,522.547 L329.877,521.768 Z M329.079,523.44 L329.25,523.326 C335.33,525.169 333.601,529.558 331.454,527.962 C331.131,526.423 330.067,524.637 329.079,523.44 Z M330.143,514.947 L331.378,513.294 C331.378,513.294 332.784,514.434 333.639,515.194 C333.582,515.403 333.373,515.498 333.088,515.498 L321.612,515.498 L321.46,514.947 L330.143,514.947 Z M342.512,518.329 L343.519,516.961 C343.519,516.961 344.64,517.892 345.305,518.538 L345.305,513.826 C345.172,513.959 344.982,514.016 344.602,513.94 C343.861,515.365 342.892,516.866 341.695,518.329 L342.512,518.329 Z M341.581,515.517 L339.814,515.517 L339.814,518.31 C340.479,517.398 341.068,516.448 341.581,515.517 Z M341.353,521.426 L338.579,521.426 L338.503,521.502 L338.503,524.048 L341.353,524.048 L341.353,521.426 Z M338.503,527.221 L341.353,527.221 L341.353,524.599 L338.503,524.599 L338.503,527.221 Z M350.511,512.401 L352.677,514.396 C352.525,514.586 352.278,514.643 351.822,514.662 C351.1,515.916 349.903,518.006 348.858,519.279 C351.157,520.628 352.088,522.585 352.088,524.181 C352.107,526.1 351.29,527.259 349.01,527.297 C349.01,526.67 348.934,525.815 348.763,525.549 C348.592,525.34 348.25,525.169 347.775,525.074 L347.775,524.808 L349.162,524.808 C349.352,524.808 349.447,524.789 349.599,524.713 C349.884,524.542 350.055,524.2 350.055,523.573 C350.055,522.186 349.599,520.666 348.383,519.317 C348.744,518.025 349.257,515.65 349.523,514.054 L347.414,514.054 L347.414,528.988 C347.414,529.159 346.768,529.672 345.685,529.672 L345.305,529.672 L345.305,518.614 C345.229,518.785 345.058,518.861 344.811,518.861 L341.239,518.861 C340.631,519.545 339.966,520.229 339.225,520.875 L341.163,520.875 L342.151,519.83 L344.203,521.369 C344.089,521.502 343.823,521.673 343.462,521.749 L343.462,528.798 C343.443,528.931 342.417,529.349 341.714,529.349 L341.353,529.349 L341.353,527.772 L338.503,527.772 L338.503,528.969 C338.503,529.121 337.857,529.577 336.831,529.577 L336.47,529.577 L336.47,522.946 C335.824,523.345 335.159,523.725 334.456,524.067 L334.285,523.839 C335.045,523.307 335.786,522.737 336.47,522.11 L336.47,520.058 L337.952,520.609 C338.465,520.039 338.959,519.469 339.415,518.861 L334.589,518.861 L334.437,518.329 L337.705,518.329 L337.705,515.517 L335.102,515.517 L334.95,514.966 L337.705,514.966 L337.705,512.002 L340.517,512.249 C340.479,512.515 340.327,512.705 339.814,512.781 L339.814,514.966 L340.156,514.966 L341.087,513.617 C341.087,513.617 341.581,514.054 342.075,514.529 C342.417,513.845 342.702,513.161 342.949,512.515 L345.305,513.674 L345.305,512.401 L347.68,513.522 L349.371,513.522 L350.511,512.401 Z M358.966,520.552 L358.833,520.362 C360.923,518.652 361.189,516.448 361.189,514.7 L361.189,512.249 L363.659,513.142 L365.882,513.142 L366.946,511.983 L368.903,513.56 C368.77,513.693 368.542,513.807 368.2,513.845 L368.2,516.809 C368.2,517.018 368.257,517.094 368.523,517.094 L369.663,517.094 C369.796,517.094 370.005,517.075 370.1,517.056 C370.252,517.056 370.442,517.018 370.575,516.98 L370.727,516.98 L370.822,517.018 C371.335,517.246 371.487,517.455 371.487,517.873 C371.487,518.69 370.746,519.127 368.827,519.127 L367.801,519.127 C366.262,519.127 366.072,518.709 366.072,517.36 L366.072,513.674 L363.336,513.674 L363.336,514.681 C363.336,516.372 362.899,519.108 358.966,520.552 Z M354.672,512.211 L354.805,512.097 C360.372,512.249 359.004,516.372 356.819,515.194 C356.439,514.13 355.47,512.952 354.672,512.211 Z M353.532,516.562 L353.665,516.448 C358.852,516.885 357.256,520.685 355.261,519.393 C355.014,518.386 354.216,517.265 353.532,516.562 Z M359.688,514.814 L359.992,514.909 C359.156,517.341 357.674,521.844 357.408,522.889 C357.237,523.535 357.085,524.219 357.104,524.713 C357.123,525.758 357.902,526.423 357.826,528.114 C357.788,529.083 357.18,529.71 356.249,529.71 C355.812,529.71 355.375,529.425 355.223,528.703 C355.584,526.708 355.489,524.941 355.033,524.637 C354.767,524.447 354.444,524.371 354.026,524.333 L354.026,523.953 L354.9,523.953 C355.185,523.953 355.261,523.953 355.489,523.554 C355.926,522.832 355.926,522.832 359.688,514.814 Z M367.079,521.065 L361.759,521.065 C362.424,522.756 363.507,524.01 364.837,524.941 C365.825,523.782 366.585,522.49 367.079,521.065 Z M368.352,519.279 L370.423,521.198 C370.29,521.407 370.1,521.464 369.625,521.502 C368.884,523.174 367.858,524.637 366.509,525.872 C368.067,526.575 369.853,527.012 371.772,527.297 L371.734,527.525 C370.727,527.753 370.024,528.513 369.701,529.672 C367.782,529.064 366.148,528.285 364.818,527.164 C362.994,528.342 360.714,529.216 357.883,529.729 L357.788,529.501 C360.182,528.665 362.196,527.525 363.773,526.081 C362.709,524.808 361.93,523.193 361.417,521.065 L359.631,521.065 L359.479,520.514 L367.022,520.514 L368.352,519.279 Z M373.881,529.672 L373.881,514.32 L376.826,514.605 C376.769,514.909 376.617,515.118 376.047,515.213 L376.047,528.969 C376.047,529.197 375.116,529.672 374.28,529.672 L373.881,529.672 Z M375.344,511.964 L375.496,511.812 C381.158,512.553 379.581,516.79 377.453,515.403 C377.187,514.187 376.256,512.781 375.344,511.964 Z M379.885,523.307 L382.887,523.307 L382.887,518.576 L379.885,518.576 L379.885,523.307 Z M384.958,518.899 L384.958,524.751 C384.939,524.865 383.913,525.264 383.248,525.264 L382.887,525.264 L382.887,523.839 L379.885,523.839 L379.885,525.15 C379.885,525.34 379.011,525.815 378.137,525.815 L377.833,525.815 L377.833,517.17 L379.98,518.044 L382.697,518.044 L383.666,516.999 L385.68,518.519 C385.566,518.671 385.319,518.823 384.958,518.899 Z M387.675,512.686 L389.803,514.339 C389.67,514.491 389.404,514.662 389.024,514.738 L389.024,527.107 C389.024,528.589 388.682,529.444 386.098,529.691 C386.041,528.988 385.927,528.475 385.623,528.152 C385.281,527.829 384.825,527.582 383.799,527.411 L383.799,527.145 C383.799,527.145 385.984,527.297 386.421,527.297 C386.763,527.297 386.858,527.145 386.858,526.86 L386.858,514.377 L380.075,514.377 L379.904,513.845 L386.668,513.845 L387.675,512.686 Z M400.405,521.046 L397.46,521.046 L397.46,523.649 L398.049,523.649 L399.132,522.167 C399.132,522.167 400.063,522.965 400.766,523.649 L400.766,520.951 C400.671,521.008 400.557,521.046 400.405,521.046 Z M394.667,518.253 L397.441,518.253 L397.441,516.239 L394.667,516.239 L394.667,518.253 Z M397.441,513.636 L394.667,513.636 L394.667,515.707 L397.441,515.707 L397.441,513.636 Z M397.46,524.2 L397.46,526.955 C398.619,527.221 400.044,527.278 401.811,527.278 C403.54,527.278 407.72,527.278 409.544,527.221 L409.544,527.468 C408.708,527.658 408.309,528.456 408.271,529.292 L401.754,529.292 C397.688,529.292 395.446,528.57 394.078,525.682 C393.641,527.183 392.919,528.646 391.665,529.672 L391.475,529.463 C392.501,527.506 392.748,524.466 392.634,522.11 L395.237,522.281 C395.199,522.566 395.028,522.775 394.572,522.832 C394.515,523.497 394.42,524.219 394.268,524.941 C394.61,525.435 394.971,525.834 395.427,526.119 L395.427,521.046 L391.684,521.046 L391.532,520.495 L397.897,520.495 L398.847,519.241 C398.505,519.336 398.106,519.431 397.783,519.431 L397.441,519.431 L397.441,518.804 L394.667,518.804 L394.667,519.241 C394.667,519.431 393.793,519.887 392.938,519.887 L392.634,519.887 L392.634,512.23 L394.762,513.085 L397.232,513.085 L398.22,511.983 L400.31,513.598 C400.196,513.75 399.93,513.921 399.512,514.016 L399.512,518.918 C399.512,518.975 399.341,519.07 399.094,519.165 C399.379,519.393 400.177,520.058 400.766,520.609 L400.766,515.251 L402.59,516.011 L403.293,516.011 C403.35,515.346 403.388,514.377 403.426,513.636 L400.424,513.636 L400.272,513.104 L406.257,513.104 L407.416,511.584 C407.416,511.584 408.746,512.61 409.525,513.332 C409.468,513.541 409.278,513.636 409.012,513.636 L405.782,513.636 C405.25,514.453 404.566,515.365 403.958,516.011 L406.238,516.011 L407.074,515.099 L408.86,516.448 C408.746,516.581 408.518,516.733 408.214,516.79 L408.214,523.231 C408.195,523.345 407.549,523.63 406.979,523.725 C409.81,524.903 408.841,527.43 407.15,526.613 C406.675,525.568 405.573,524.333 404.623,523.516 C403.977,525.074 402.666,526.176 399.93,526.917 L399.759,526.594 C403.578,524.865 403.521,522.281 403.54,517.151 L406.01,517.645 C405.934,517.873 405.763,518.063 405.326,518.063 C405.25,520.153 405.212,521.863 404.737,523.212 C405.383,523.269 405.934,523.383 406.409,523.516 L406.409,516.562 L402.495,516.562 L402.495,523.402 C402.495,523.573 401.773,523.972 401.032,523.972 L400.994,523.972 C400.918,524.124 400.728,524.2 400.5,524.2 L397.46,524.2 Z M176.585,541.282 L168.548,541.282 L168.548,548.16 L176.585,548.16 L176.585,541.282 Z M168.548,548.692 L168.548,549.452 C168.548,549.699 167.522,550.231 166.553,550.231 L166.192,550.231 L166.192,539.743 L168.7,540.731 L176.395,540.731 L177.478,539.534 L179.701,541.244 C179.606,541.396 179.359,541.567 178.96,541.662 L178.96,549.319 C178.941,549.471 177.763,549.927 176.984,549.927 L176.585,549.927 L176.585,548.692 L168.548,548.692 Z M163.513,556.729 L163.38,556.539 C165.85,554.829 168.187,552.112 169.27,550.06 L172.063,551.542 C171.949,551.732 171.778,551.846 171.341,551.789 C169.688,553.594 166.762,555.665 163.513,556.729 Z M174.02,550.63 L174.191,550.478 C182.646,552.321 181.487,557.641 178.903,556.254 C178.01,554.297 175.844,552.036 174.02,550.63 Z M187.434,551.371 L187.719,551.352 C188.536,553.499 187.909,555 187.035,555.513 C186.446,555.855 185.648,555.722 185.401,555.076 C185.211,554.449 185.591,553.974 186.142,553.708 C186.788,553.366 187.491,552.397 187.434,551.371 Z M196.478,552.321 L196.535,554.354 C197.124,554.582 197.257,554.791 197.257,555.152 C197.257,556.026 196.421,556.216 193.21,556.216 L191.12,556.216 C189.163,556.216 188.802,555.836 188.802,554.525 L188.802,551.124 L191.481,551.352 C191.462,551.599 191.272,551.77 190.911,551.808 L190.911,554.24 C190.911,554.468 190.987,554.544 191.595,554.544 L193.438,554.544 C194.084,554.544 194.711,554.544 194.977,554.525 C195.224,554.506 195.319,554.468 195.452,554.297 C195.661,553.993 195.927,553.309 196.269,552.321 L196.478,552.321 Z M194.578,547.533 L194.73,547.381 C200.43,547.533 199.632,551.504 197.542,550.611 C197.01,549.509 195.642,548.255 194.578,547.533 Z M196.535,551.523 L196.725,551.409 C201.57,552.948 199.803,556.52 198.093,555.057 C197.998,553.86 197.257,552.454 196.535,551.523 Z M195.851,542.973 L189.923,542.973 L189.923,544.227 L195.851,544.227 L195.851,542.973 Z M195.851,546.051 L195.851,544.759 L189.923,544.759 L189.923,546.051 L195.851,546.051 Z M196.858,540.237 L198.017,538.831 C198.017,538.831 199.309,539.781 200.126,540.484 C200.069,540.693 199.879,540.788 199.594,540.788 L191.823,540.788 L193.951,541.358 C193.875,541.586 193.647,541.738 193.248,541.719 C192.944,541.947 192.526,542.194 192.108,542.422 L195.661,542.422 L196.649,541.358 L198.777,542.935 C198.644,543.087 198.378,543.258 197.998,543.334 L197.998,546.811 C197.979,546.925 196.896,547.305 196.231,547.305 L195.851,547.305 L195.851,546.602 L193.951,546.602 L193.951,549.034 C193.951,550.06 193.761,550.63 192.469,550.896 C196.421,552.226 194.426,555.114 192.906,553.67 C192.925,552.758 192.45,551.694 191.956,550.972 C191.804,550.991 191.652,550.991 191.5,551.01 C191.481,550.554 191.424,550.193 191.215,549.965 C191.044,549.756 190.759,549.566 190.056,549.471 L190.056,549.224 C190.056,549.224 191.234,549.3 191.557,549.3 C191.842,549.3 191.88,549.186 191.88,548.996 L191.88,546.602 L189.923,546.602 L189.923,546.811 C189.923,546.887 189.733,547.02 189.448,547.153 L191.291,548.141 C191.196,548.331 191.025,548.426 190.607,548.35 C189.695,549.262 188.137,550.193 186.484,550.649 L186.294,550.421 C187.377,549.623 188.365,548.388 188.916,547.343 C188.688,547.4 188.422,547.438 188.175,547.438 L187.89,547.438 L187.89,541.605 L190.056,542.422 L191.272,542.422 C191.405,541.928 191.538,541.301 191.614,540.788 L186.56,540.788 L186.56,544.759 C186.56,548.35 186.351,553.423 182.722,556.729 L182.494,556.596 C184.337,553.043 184.47,548.597 184.47,544.759 L184.47,539.382 L186.883,540.237 L196.858,540.237 Z M207.004,547.039 L206.776,546.887 C208.03,544.949 209.265,541.909 209.911,538.888 L212.875,539.952 C212.799,540.199 212.533,540.351 212.115,540.332 C211.754,541.149 211.355,541.909 210.937,542.631 L216.428,542.631 L217.606,541.453 L219.62,543.372 C219.468,543.524 219.278,543.581 218.879,543.6 C218.252,544.379 217.188,545.462 216.295,546.089 L216.124,545.956 C216.295,545.177 216.485,544.018 216.599,543.144 L210.614,543.144 C209.588,544.74 208.372,546.051 207.004,547.039 Z M205.237,538.831 L208.296,539.762 C208.201,540.009 207.973,540.18 207.555,540.161 C206.985,541.624 206.339,542.973 205.598,544.17 L206.681,544.569 C206.624,544.74 206.472,544.873 206.111,544.93 L206.111,556.007 C206.073,556.159 205.161,556.653 204.268,556.653 L203.869,556.653 L203.869,546.602 C203.166,547.438 202.406,548.16 201.589,548.806 L201.361,548.654 C202.919,546.279 204.458,542.536 205.237,538.831 Z M209.227,546.203 L212.058,547.077 C211.982,547.305 211.735,547.476 211.298,547.457 C210.215,550.022 208.695,552.093 206.947,553.423 L206.7,553.252 C207.745,551.542 208.714,548.844 209.227,546.203 Z M212.229,553.822 L212.229,543.353 L215.079,543.619 C215.041,543.885 214.851,544.056 214.414,544.132 L214.414,553.993 C214.414,555.551 214.072,556.444 211.526,556.672 C211.45,555.95 211.355,555.418 211.051,555.076 C210.728,554.715 210.291,554.468 209.322,554.297 L209.322,554.031 C209.322,554.031 211.393,554.164 211.811,554.164 C212.115,554.164 212.229,554.069 212.229,553.822 Z M215.136,546.507 L215.364,546.393 C221.311,549.87 219.506,554.563 217.34,552.606 C217.093,550.63 216.048,548.274 215.136,546.507 Z M223.838,551.143 L226.631,551.143 L226.631,549.072 L223.838,549.072 L223.838,551.143 Z M226.631,546.621 L223.838,546.621 L223.838,548.54 L226.631,548.54 L226.631,546.621 Z M226.441,546.07 L227.41,544.949 L229.576,546.583 C229.443,546.735 229.196,546.906 228.797,546.963 L228.797,554.107 C228.797,555.57 228.493,556.425 226.232,556.596 C226.213,555.931 226.137,555.418 225.928,555.076 C225.719,554.753 225.415,554.487 224.712,554.392 L224.712,554.107 C224.712,554.107 225.928,554.202 226.289,554.202 C226.574,554.202 226.631,554.088 226.631,553.86 L226.631,551.694 L223.838,551.694 L223.838,555.969 C223.838,556.197 223.002,556.672 222.109,556.672 L221.786,556.672 L221.786,545.196 L223.933,546.07 L226.441,546.07 Z M226.289,541.035 L226.46,540.921 C231.742,542.213 229.861,546.184 227.942,544.645 C227.904,544.246 227.809,543.847 227.676,543.448 C226.308,543.847 224.218,544.455 221.767,545.025 C221.653,545.177 221.52,545.291 221.368,545.348 L220.437,543.049 C220.437,543.049 220.817,542.973 220.988,542.859 C222.09,542.137 223.572,539.933 224.028,538.755 L226.878,539.8 C226.802,539.99 226.593,540.161 226.194,540.123 C225.225,541.092 223.61,542.289 222.166,543.087 C223.572,543.087 225.491,543.068 227.505,543.011 C227.182,542.27 226.745,541.567 226.289,541.035 Z M234.402,547.324 L232.692,547.324 C230.849,547.324 230.469,546.925 230.469,545.462 L230.469,539.154 L233.262,539.401 C233.224,539.629 233.053,539.819 232.673,539.876 L232.673,542.498 C233.813,541.719 235.105,540.693 235.77,539.971 L237.974,541.7 C237.765,541.89 237.423,541.928 236.853,541.776 C235.808,542.156 234.212,542.65 232.673,542.992 L232.673,544.968 C232.673,545.253 232.749,545.329 233.262,545.329 L234.649,545.329 C235.162,545.329 235.618,545.329 235.846,545.31 C236.036,545.31 236.169,545.253 236.302,545.101 C236.473,544.835 236.777,544.094 237.081,543.201 L237.29,543.201 L237.347,545.177 C237.917,545.405 238.088,545.652 238.088,546.051 C238.088,546.944 237.233,547.324 234.402,547.324 Z M237.537,551.941 L237.613,554.088 C238.202,554.335 238.354,554.582 238.354,554.981 C238.354,555.893 237.499,556.292 234.573,556.292 L232.825,556.292 C230.944,556.292 230.545,555.874 230.545,554.392 L230.545,547.856 L233.357,548.103 C233.338,548.331 233.167,548.521 232.768,548.578 L232.768,551.162 C233.927,550.326 235.162,549.262 235.808,548.502 L238.164,550.231 C237.974,550.421 237.632,550.478 237.024,550.326 C235.979,550.782 234.364,551.352 232.768,551.77 L232.768,553.898 C232.768,554.164 232.863,554.259 233.376,554.259 L234.82,554.259 C235.352,554.259 235.846,554.259 236.074,554.24 C236.283,554.221 236.416,554.183 236.53,554.012 C236.72,553.746 237.024,552.91 237.347,551.941 L237.537,551.941 Z M243.579,545.709 L242.401,545.709 L242.401,550.155 L243.579,550.155 L243.579,545.709 Z M247.17,540.408 L249.108,542.099 C248.956,542.289 248.69,542.403 248.253,542.479 C248.158,551.39 247.949,554.563 246.961,555.703 C246.334,556.425 245.498,556.729 244.491,556.729 C244.491,556.045 244.434,555.57 244.187,555.266 C243.921,554.943 243.37,554.696 242.648,554.544 L242.648,554.259 C243.313,554.316 244.282,554.392 244.681,554.392 C245.004,554.392 245.175,554.316 245.365,554.126 C246.03,553.442 246.201,549.794 246.296,542.137 L242.99,542.137 C242.553,543.087 242.059,543.942 241.508,544.721 L242.629,545.158 L243.408,545.158 L244.225,544.284 L245.954,545.595 C245.84,545.728 245.612,545.861 245.289,545.937 L245.289,551.314 C245.27,551.447 244.415,551.77 243.864,551.77 L243.579,551.77 L243.579,550.706 L242.401,550.706 L242.401,551.903 C242.401,552.055 241.888,552.435 241.052,552.435 L240.748,552.435 L240.748,545.709 C240.463,546.032 240.159,546.355 239.836,546.64 L239.589,546.488 C240.52,544.531 241.337,541.624 241.679,538.831 L244.548,539.553 C244.491,539.8 244.263,539.971 243.826,539.99 C243.655,540.541 243.446,541.073 243.237,541.586 L246.087,541.586 L247.17,540.408 Z M254.732,548.73 L252.509,548.73 C252.11,549.186 251.673,549.642 251.198,550.06 C252.851,550.421 253.307,551.238 253.136,551.865 C253.763,550.934 254.295,549.889 254.732,548.73 Z M254.029,541.662 L251.901,541.662 C251.578,542.08 251.217,542.479 250.837,542.859 C252.129,543.011 252.68,543.524 252.756,544.037 C253.25,543.296 253.668,542.498 254.029,541.662 Z M255.758,547.172 L257.753,548.768 C257.62,548.939 257.354,549.015 256.898,549.053 C255.264,552.777 252.775,555.399 247.911,556.767 L247.759,556.501 C249.849,555.456 251.464,554.126 252.718,552.454 C252.338,552.72 251.768,552.758 251.217,552.302 C251.198,551.713 250.97,551.048 250.628,550.535 C249.944,551.086 249.184,551.561 248.405,551.941 L248.215,551.751 C249.469,550.668 250.628,548.939 251.369,547.229 C250.533,547.723 249.583,548.16 248.5,548.521 L248.31,548.274 C249.773,547.4 250.989,546.336 251.977,545.101 C251.692,545.177 251.35,545.12 250.989,544.873 C250.932,544.36 250.647,543.79 250.305,543.372 C249.754,543.847 249.146,544.265 248.519,544.607 L248.329,544.436 C249.583,543.144 250.59,540.883 251.008,538.926 L253.858,539.325 C253.82,539.534 253.668,539.648 253.193,539.648 C252.946,540.142 252.642,540.636 252.319,541.111 L254.124,541.111 L255.093,540.085 L257.05,541.681 C256.917,541.852 256.632,541.928 256.195,541.947 C255.397,543.505 254.371,544.892 253.003,546.051 L254.713,546.393 C254.656,546.621 254.504,546.697 254.01,546.678 C253.706,547.172 253.364,547.685 252.965,548.179 L254.77,548.179 L255.758,547.172 Z M271.471,549.186 L273.58,549.186 L273.58,545.348 L271.471,545.348 L271.471,549.186 Z M267.31,549.186 L269.495,549.186 L269.495,545.348 L267.405,545.348 L267.405,546.507 C267.405,547.362 267.386,548.274 267.31,549.186 Z M269.495,541.073 L267.405,541.073 L267.405,544.816 L269.495,544.816 L269.495,541.073 Z M273.58,541.073 L271.471,541.073 L271.471,544.816 L273.58,544.816 L273.58,541.073 Z M274.34,539.401 L276.449,541.035 C276.316,541.206 276.012,541.377 275.613,541.453 L275.613,554.221 C275.613,555.684 275.366,556.501 273.219,556.672 C273.2,556.026 273.124,555.494 272.953,555.19 C272.763,554.867 272.478,554.639 271.851,554.506 L271.851,554.24 C271.851,554.24 272.953,554.335 273.238,554.335 C273.523,554.335 273.58,554.221 273.58,553.974 L273.58,549.737 L271.471,549.737 L271.471,555.399 C271.471,555.513 270.863,555.969 269.837,555.969 L269.495,555.969 L269.495,549.737 L267.253,549.737 C266.949,552.283 266.056,554.867 263.472,556.767 L263.244,556.615 C265.22,553.746 265.391,550.117 265.391,546.526 L265.391,543.752 C265.296,543.828 265.163,543.866 264.992,543.866 L263.035,543.866 L263.035,546.906 C263.738,546.678 264.46,546.45 265.182,546.222 L265.239,546.431 C264.669,546.849 263.947,547.381 263.035,548.008 L263.035,554.05 C263.035,555.589 262.75,556.463 260.451,556.672 C260.394,555.969 260.318,555.418 260.071,555.057 C259.843,554.696 259.463,554.468 258.703,554.316 L258.703,554.05 C258.703,554.05 260.242,554.145 260.603,554.145 C260.907,554.145 260.983,554.05 260.983,553.822 L260.983,549.357 C260.584,549.623 260.166,549.889 259.729,550.155 C259.672,550.383 259.482,550.63 259.273,550.706 L258.456,548.198 C258.969,548.084 259.862,547.837 260.983,547.495 L260.983,543.866 L258.76,543.866 L258.608,543.315 L260.983,543.315 L260.983,538.869 L263.738,539.135 C263.7,539.42 263.51,539.61 263.035,539.667 L263.035,543.277 L263.909,541.89 C263.909,541.89 264.821,542.783 265.391,543.448 L265.391,539.686 L267.728,540.541 L273.371,540.541 L274.34,539.401 Z M288.647,545.234 L286.5,545.234 L286.5,548.92 L288.647,548.92 L288.647,545.234 Z M294.499,552.188 L294.575,554.012 C295.259,554.259 295.487,554.506 295.487,554.886 C295.487,555.855 294.518,556.235 290.224,556.235 L287.45,556.235 C285.151,556.235 284.429,555.893 284.429,554.183 L284.429,545.31 C284.011,545.633 283.574,545.918 283.137,546.184 L282.947,546.013 C283.422,545.405 283.878,544.664 284.315,543.847 C284.258,543.866 284.182,543.885 284.106,543.885 L282.016,543.885 L282.016,547.039 C282.719,546.83 283.46,546.64 284.182,546.431 L284.239,546.621 C283.669,547.039 282.928,547.552 282.016,548.16 L282.016,554.221 C282.016,555.703 281.731,556.539 279.432,556.767 C279.413,556.083 279.318,555.57 279.09,555.247 C278.843,554.924 278.501,554.696 277.722,554.544 L277.722,554.278 C277.722,554.278 279.242,554.392 279.565,554.392 C279.85,554.392 279.926,554.297 279.926,554.069 L279.926,549.471 C279.527,549.699 279.109,549.946 278.672,550.212 C278.615,550.478 278.425,550.668 278.197,550.744 L277.323,548.198 C277.855,548.084 278.786,547.875 279.926,547.571 L279.926,543.885 L277.76,543.885 L277.608,543.353 L279.926,543.353 L279.926,538.831 L282.719,539.116 C282.681,539.382 282.491,539.572 282.016,539.648 L282.016,543.353 L282.111,543.353 L283.004,541.776 C283.004,541.776 283.973,542.802 284.505,543.486 C285.208,542.099 285.816,540.484 286.196,538.831 L289.179,539.895 C289.103,540.104 288.875,540.275 288.419,540.256 C288.134,540.845 287.83,541.415 287.488,541.928 L292.371,541.928 L293.473,540.807 L295.392,542.46 C295.259,542.612 295.012,542.745 294.594,542.802 C294.442,548.977 294.119,551.105 293.188,551.998 C292.599,552.53 291.839,552.758 290.927,552.758 C290.927,552.131 290.889,551.637 290.68,551.333 C290.433,551.048 290.015,550.82 289.407,550.668 L289.426,550.402 C289.92,550.44 290.718,550.497 291.041,550.497 C291.345,550.497 291.497,550.44 291.668,550.288 C292.181,549.813 292.428,547.495 292.561,542.46 L287.146,542.46 C286.671,543.125 286.177,543.714 285.626,544.265 L286.728,544.683 L288.495,544.683 L289.388,543.733 L291.269,545.139 C291.155,545.253 290.965,545.367 290.68,545.443 L290.68,549.604 C290.661,549.756 289.673,550.174 288.989,550.174 L288.647,550.174 L288.647,549.471 L286.5,549.471 L286.5,553.689 C286.5,554.145 286.69,554.297 287.659,554.297 L290.414,554.297 C291.44,554.297 292.314,554.278 292.732,554.24 C293.036,554.202 293.245,554.145 293.416,554.012 C293.625,553.746 293.948,553.081 294.29,552.188 L294.499,552.188 Z M301.453,549.053 L303.638,549.053 C303.695,548.008 303.733,546.773 303.752,545.329 L301.871,545.329 C301.795,546.64 301.681,547.875 301.453,549.053 Z M303.809,541.092 L301.966,541.092 C301.947,542.365 301.928,543.6 301.89,544.778 L303.752,544.778 C303.771,543.657 303.79,542.441 303.809,541.092 Z M303.581,540.541 L304.797,539.268 L306.83,541.092 C306.678,541.263 306.412,541.415 305.956,541.472 C305.861,551.295 305.709,554.354 304.645,555.57 C303.98,556.349 303.125,556.653 302.099,556.653 C302.099,555.874 302.042,555.38 301.814,555.057 C301.548,554.696 301.054,554.449 300.332,554.278 L300.351,554.012 C300.94,554.05 301.814,554.107 302.213,554.107 C302.517,554.107 302.707,554.05 302.878,553.86 C303.277,553.461 303.486,552.131 303.619,549.585 L301.339,549.585 C300.712,552.397 299.401,554.81 296.627,556.767 L296.38,556.482 C298.128,554.43 298.964,552.131 299.363,549.585 L297.045,549.585 L296.874,549.053 L299.439,549.053 C299.591,547.856 299.667,546.621 299.705,545.329 L297.159,545.329 L296.988,544.778 L299.724,544.778 C299.743,543.6 299.724,542.365 299.724,541.092 L297.102,541.092 L296.931,540.541 L303.581,540.541 Z M312.587,539.42 L314.81,541.472 C314.658,541.662 314.411,541.738 313.936,541.738 C313.233,542.992 311.998,545.082 310.934,546.355 C313.233,547.704 314.202,549.68 314.202,551.295 C314.202,553.195 313.404,554.392 311.086,554.449 C311.086,553.784 310.991,552.891 310.801,552.587 C310.668,552.397 310.326,552.207 309.851,552.112 L309.851,551.865 L311.2,551.865 C311.39,551.865 311.485,551.846 311.618,551.77 C311.922,551.599 312.074,551.276 312.074,550.63 C312.074,549.262 311.637,547.723 310.44,546.412 C310.82,545.101 311.314,542.707 311.561,541.111 L309.509,541.111 L309.509,556.026 C309.509,556.197 308.844,556.729 307.761,556.729 L307.362,556.729 L307.362,539.458 L309.756,540.579 L311.409,540.579 L312.587,539.42 Z M328.889,549.395 L330.713,549.395 L330.713,543.714 L328.889,543.714 L328.889,549.395 Z M325.089,549.395 L326.818,549.395 L326.818,543.714 L325.089,543.714 L325.089,549.395 Z M320.662,545.348 L320.662,546.811 C321.897,547.21 322.657,547.742 323.075,548.274 L323.075,545.348 L320.662,545.348 Z M331.492,542.118 L333.544,543.676 C333.411,543.828 333.145,543.98 332.765,544.075 L332.765,550.668 C332.727,550.801 331.72,551.2 331.055,551.2 L330.713,551.2 L330.713,549.946 L328.889,549.946 L328.889,555.874 C328.889,556.121 327.996,556.615 327.198,556.615 L326.818,556.615 L326.818,549.946 L325.089,549.946 L325.089,550.934 C325.089,551.143 324.234,551.599 323.379,551.599 L323.075,551.599 L323.075,550.345 C322.714,550.592 322.201,550.573 321.707,550.136 C321.65,549.148 321.175,548.027 320.662,547.191 L320.662,556.064 C320.662,556.216 319.959,556.691 318.895,556.691 L318.496,556.691 L318.496,550.041 C317.698,551.276 316.729,552.397 315.608,553.366 L315.38,553.157 C316.748,551.067 317.679,548.103 318.192,545.348 L315.855,545.348 L315.703,544.816 L318.496,544.816 L318.496,541.947 C317.546,542.118 316.558,542.251 315.608,542.327 L315.551,542.099 C317.546,541.301 319.978,539.876 321.156,538.85 L323.664,540.921 C323.436,541.111 323.037,541.168 322.41,540.978 C321.916,541.149 321.308,541.32 320.662,541.491 L320.662,544.816 L320.89,544.816 L321.916,543.353 C321.916,543.353 322.505,543.866 323.075,544.398 L323.075,542.327 L325.203,543.182 L326.818,543.182 L326.818,539.268 L329.725,539.572 C329.668,539.895 329.497,540.123 328.889,540.218 L328.889,543.182 L330.523,543.182 L331.492,542.118 Z M338.712,539.059 L338.845,538.945 C343.937,539.306 341.999,543.163 340.004,541.738 C339.89,540.769 339.301,539.705 338.712,539.059 Z M335.197,547.59 L342.17,547.59 L342.17,545.31 L337.135,545.31 L336.983,544.759 L342.17,544.759 L342.17,542.631 L336.014,542.631 L335.862,542.08 L344.754,542.08 C345.172,541.092 345.59,539.724 345.818,538.755 L348.725,539.629 C348.649,539.876 348.421,540.009 348.003,539.971 C347.357,540.617 346.312,541.434 345.343,542.08 L348.193,542.08 L349.409,540.56 C349.409,540.56 350.758,541.586 351.594,542.327 C351.537,542.536 351.347,542.631 351.062,542.631 L344.488,542.631 L344.488,544.759 L347.186,544.759 L348.326,543.353 C348.326,543.353 349.637,544.303 350.435,545.006 C350.378,545.215 350.188,545.31 349.903,545.31 L344.488,545.31 L344.488,547.59 L348.554,547.59 L349.789,545.994 C349.789,545.994 351.176,547.077 352.012,547.837 C351.974,548.027 351.746,548.122 351.48,548.122 L335.349,548.122 L335.197,547.59 Z M351.822,551.295 L344.621,551.295 C346.141,553.423 349.181,554.126 352.582,554.335 L352.563,554.544 C351.689,554.829 351.138,555.57 350.929,556.653 C347.547,555.817 345.362,554.449 344.203,551.295 L344.032,551.295 C343.367,553.86 341.524,555.646 334.627,556.729 L334.513,556.425 C339.301,555.019 340.916,553.423 341.505,551.295 L334.931,551.295 L334.779,550.763 L341.619,550.763 C341.771,550.041 341.809,549.262 341.847,548.407 L345.039,548.635 C345.001,548.901 344.792,549.11 344.374,549.148 C344.317,549.718 344.241,550.25 344.146,550.763 L348.839,550.763 L350.093,549.186 C350.093,549.186 351.499,550.25 352.373,550.991 C352.316,551.2 352.107,551.295 351.822,551.295 Z M357.256,546.203 L357.503,546.108 C360.98,548.996 359.365,551.998 358.054,550.554 C358.092,549.167 357.655,547.419 357.256,546.203 Z M359.688,543.448 L360.657,542.346 L362.709,543.942 C362.595,544.094 362.348,544.284 361.949,544.341 L361.949,554.259 C361.949,555.665 361.664,556.444 359.517,556.634 C359.498,556.007 359.422,555.532 359.232,555.228 C359.042,554.943 358.757,554.696 358.111,554.582 L358.111,554.316 C358.111,554.316 359.232,554.411 359.555,554.411 C359.821,554.411 359.878,554.297 359.878,554.069 L359.878,543.999 L356.914,543.999 L356.914,555.95 C356.914,556.197 356.116,556.691 355.204,556.691 L354.881,556.691 L354.881,542.555 L357.009,543.448 L359.688,543.448 Z M365.616,546.127 L365.844,546.032 C369.321,548.92 367.725,551.922 366.414,550.478 C366.452,549.091 366.015,547.362 365.616,546.127 Z M368.067,543.448 L369.036,542.346 L371.126,543.961 C370.993,544.094 370.727,544.284 370.328,544.341 L370.328,554.202 C370.328,555.608 370.062,556.406 367.896,556.596 C367.858,555.95 367.801,555.475 367.611,555.171 C367.421,554.886 367.136,554.658 366.49,554.525 L366.49,554.259 C366.49,554.259 367.611,554.354 367.934,554.354 C368.2,554.354 368.257,554.221 368.257,554.012 L368.257,543.999 L365.293,543.999 L365.293,555.95 C365.293,556.197 364.476,556.691 363.564,556.691 L363.222,556.691 L363.222,542.536 L365.369,543.448 L368.067,543.448 Z M367.839,540.617 L369.093,538.926 C369.093,538.926 370.499,540.066 371.354,540.864 C371.297,541.073 371.088,541.168 370.822,541.168 L353.874,541.168 L353.722,540.617 L367.839,540.617 Z M204.1445,577.288 L204.1445,575.996 L235.8745,575.996 L235.8745,577.288 L204.1445,577.288 Z M247.4835,574.78 L252.4425,583.444 L251.8915,583.786 L246.7235,574.78 L251.8915,565.774 L252.4425,566.116 L247.4835,574.78 Z M250.1815,574.78 L255.1405,583.444 L254.5895,583.786 L249.4215,574.78 L254.5895,565.774 L255.1405,566.116 L250.1815,574.78 Z M272.2025,566.781 L274.2355,568.32 C274.1025,568.472 273.8365,568.643 273.4565,568.719 L273.4565,577.478 C273.4565,578.884 273.2095,579.663 271.2525,579.853 C271.2525,579.207 271.1955,578.694 271.0625,578.39 C270.9105,578.086 270.7015,577.877 270.1885,577.782 L270.1885,577.497 C270.1885,577.497 270.9675,577.554 271.1955,577.554 C271.4425,577.554 271.4805,577.459 271.4805,577.231 L271.4805,568.358 L270.1695,568.358 L270.1695,583.102 C270.1695,583.254 269.5995,583.691 268.6685,583.691 L268.3645,583.691 L268.3645,567.636 C268.2695,567.769 268.0605,567.788 267.8135,567.693 C267.0345,567.997 265.7235,568.377 264.5455,568.662 L264.5455,576.68 L265.6665,576.319 L265.6665,569.156 L268.0795,569.403 C268.0415,569.669 267.8895,569.84 267.4335,569.916 L267.4335,575.92 C267.4145,579.34 266.2745,582.076 261.9235,583.672 L261.7335,583.444 C264.4125,581.886 265.3815,579.815 265.6095,577.269 C265.0775,577.725 264.4505,578.257 263.7855,578.789 C263.6335,579.188 263.3865,579.473 263.1585,579.606 L261.9235,577.554 C262.5125,577.193 262.6075,577.041 262.6075,576.623 L262.6075,571.113 C262.5695,571.132 262.5125,571.132 262.4745,571.132 L260.4415,571.132 L260.4415,572.462 C263.7855,574.191 262.2845,576.642 261.0685,575.483 C261.0495,574.723 260.7645,573.83 260.4415,573.089 L260.4415,582.969 C260.4415,583.197 259.6055,583.691 258.8645,583.691 L258.4845,583.691 L258.4845,576.205 C257.9145,577.288 257.2115,578.295 256.4135,579.207 L256.1475,578.979 C257.2495,576.794 257.8955,573.887 258.2375,571.132 L256.3185,571.132 L256.1665,570.581 L258.4845,570.581 L258.4845,565.831 L261.1445,566.097 C261.1065,566.363 260.9545,566.553 260.4415,566.629 L260.4415,570.581 L260.4605,570.581 L261.3535,569.194 C261.3535,569.194 262.0375,569.84 262.6075,570.429 L262.6075,567.465 L264.0135,568.13 C264.8115,567.465 265.6475,566.667 266.1225,566.116 L268.3645,567.598 L268.3645,567.104 L270.2455,567.826 L271.2905,567.826 L272.2025,566.781 Z M292.9315,577.915 L292.4945,581.126 C293.1785,582.247 293.2735,582.817 292.9505,583.121 C292.0955,583.957 290.4995,583.159 289.6065,582.361 C288.7325,581.62 288.0105,580.765 287.4025,579.834 C285.8825,581.354 283.9635,582.627 281.5125,583.52 L281.3795,583.292 C283.5835,582 285.2935,580.271 286.5665,578.352 C285.4455,576.015 284.8945,573.279 284.6665,570.296 L279.3275,570.296 L279.3275,573.336 L281.5695,573.336 L282.6335,572.272 L284.5525,573.868 C284.4195,574.02 284.1915,574.134 283.8115,574.191 C283.6975,578.257 283.4505,579.72 282.6145,580.385 C282.1015,580.784 281.4555,580.993 280.5625,580.993 C280.5625,580.385 280.5245,579.891 280.2965,579.587 C280.0685,579.321 279.6695,579.131 279.1185,578.979 L279.1185,578.732 C279.5555,578.77 280.3345,578.808 280.6575,578.808 C280.9235,578.808 281.0565,578.77 281.1705,578.656 C281.5125,578.352 281.6645,576.927 281.7405,573.868 L279.3275,573.868 C279.3275,576.908 279.0615,581.107 275.2805,583.786 L275.1095,583.615 C276.9335,580.727 277.1045,577.06 277.1045,573.849 L277.1045,568.852 L279.6695,569.764 L284.6095,569.764 C284.5335,568.491 284.4955,567.199 284.4955,565.869 L287.3835,566.154 C287.3645,566.401 287.1935,566.629 286.6995,566.705 C286.6805,567.731 286.6995,568.757 286.7565,569.764 L289.6065,569.764 L290.2905,568.909 C290.0625,568.928 289.8155,568.89 289.5495,568.757 C289.2455,567.921 288.3525,566.99 287.6305,566.496 L287.7635,566.344 C290.8035,566.154 291.4685,567.579 291.0695,568.377 C291.4875,568.7 292.4375,569.46 293.0645,570.011 C293.0265,570.201 292.8175,570.296 292.5325,570.296 L286.7755,570.296 C286.9275,572.329 287.2505,574.305 287.8965,576.015 C288.5425,574.647 289.0175,573.222 289.3405,571.854 L292.3045,572.842 C292.2285,573.07 292.0575,573.222 291.5445,573.203 C290.9365,574.856 290.1005,576.547 288.9225,578.105 C289.4545,578.941 290.1195,579.663 290.9175,580.271 C291.2025,580.537 291.3355,580.537 291.5445,580.195 C291.8485,579.72 292.3805,578.694 292.7415,577.877 L292.9315,577.915 Z M304.7875,577.307 L308.5115,577.307 L308.5115,574.78 L304.9015,574.78 L304.9015,575.198 C304.9015,575.882 304.8825,576.585 304.7875,577.307 Z M308.5115,571.645 L304.9015,571.645 L304.9015,574.229 L308.5115,574.229 L308.5115,571.645 Z M308.3595,571.113 L309.2715,570.087 L311.2475,571.569 C311.1715,571.683 310.9815,571.797 310.7345,571.854 L310.7345,581.069 C310.7345,582.551 310.3925,583.425 307.8655,583.634 C307.8085,582.931 307.7135,582.418 307.4095,582.095 C307.1245,581.753 306.7065,581.525 305.7945,581.373 L305.7945,581.107 C305.7945,581.107 307.7135,581.221 308.1125,581.221 C308.4355,581.221 308.5115,581.107 308.5115,580.841 L308.5115,577.839 L304.7115,577.839 C304.3125,580.024 303.2105,582.209 300.1515,583.71 L299.9615,583.52 C302.4695,581.183 302.8115,578.162 302.8115,575.236 L302.8115,570.239 L305.2245,571.113 L308.3595,571.113 Z M308.9675,568.092 L310.0885,566.629 C310.0885,566.629 311.3805,567.636 312.0835,568.339 C312.0455,568.548 311.8555,568.643 311.5895,568.643 L307.3335,568.643 L307.3335,569.992 C307.3335,570.163 306.5355,570.467 305.5285,570.467 L305.1865,570.467 L305.1865,568.643 L301.2915,568.643 L301.2915,570.087 C301.2915,570.182 301.0825,570.296 300.7595,570.391 L302.1655,571.816 C302.0515,571.968 301.7665,572.025 301.3295,572.025 C300.7025,572.88 299.6575,574.267 298.7645,575.103 C300.8925,576.034 301.7285,577.402 301.7285,578.656 C301.7475,580.157 301.0255,581.012 298.9735,581.069 C298.9735,580.575 298.8975,579.891 298.7265,579.663 C298.5745,579.473 298.2705,579.321 297.8525,579.226 L297.8525,578.998 L299.0875,578.998 C299.2965,578.998 299.4105,578.979 299.5245,578.884 C299.7335,578.751 299.8665,578.542 299.8665,578.105 C299.8665,577.06 299.3915,576.091 298.2895,575.16 C298.6315,574.21 299.0685,572.633 299.3345,571.493 L297.4725,571.493 L297.4725,583.007 C297.4725,583.159 296.8455,583.615 295.8385,583.615 L295.4965,583.615 L295.4965,570.106 L297.7195,570.961 L299.2205,570.961 L299.6385,570.562 L299.1825,570.562 L299.1825,568.643 L294.6605,568.643 L294.5275,568.092 L299.1825,568.092 L299.1825,565.831 L301.9565,566.078 C301.9375,566.325 301.7855,566.515 301.2915,566.591 L301.2915,568.092 L305.1865,568.092 L305.1865,565.831 L307.9985,566.078 C307.9795,566.325 307.8275,566.515 307.3335,566.591 L307.3335,568.092 L308.9675,568.092 Z M316.5295,583.786 L315.9785,583.444 L320.9375,574.78 L315.9785,566.116 L316.5295,565.774 L321.6975,574.78 L316.5295,583.786 Z M313.8315,583.786 L313.2805,583.444 L318.2395,574.78 L313.2805,566.116 L313.8315,565.774 L318.9995,574.78 L313.8315,583.786 Z" id=""></path>
            </g>
        </g>
    </g>
</svg>