<?xml version="1.0" encoding="UTF-8"?>
<svg width="213px" height="102px" viewBox="0 0 213 102" version="1.1" xmlns="http://www.w3.org/2000/svg" xmlns:xlink="http://www.w3.org/1999/xlink">
    <!-- Generator: Sketch 53.2 (72643) - https://sketchapp.com -->
    <title>AOY Name Artist</title>
    <desc>Created with Sketch.</desc>
    <g id="Page-1" stroke="none" stroke-width="1" fill="none" fill-rule="evenodd">
        <g id="Music-Index-(2019)" transform="translate(-936.000000, -296.000000)" fill-rule="nonzero">
            <g id="Album" transform="translate(775.000000, 268.000000)">
                <g id="AOY-Name-Artist" transform="translate(159.000000, 23.000000)">
                    <path d="M78.944,77.28 L79.2,77.088 C88.48,78.432 85.856,85.184 82.336,82.976 C81.792,80.992 80.224,78.752 78.944,77.28 Z M84.608,87.168 L84.608,99.168 C86.048,98.432 87.616,97.568 89.184,96.736 L89.376,97.056 C88.224,98.432 86.016,101.024 83.2,103.84 C82.976,104.672 82.496,105.184 82.08,105.472 L79.456,101.504 C80.768,100.736 80.992,100.416 80.992,99.712 L80.992,86.592 L77.312,86.592 L77.024,85.664 L81.056,85.664 L82.72,83.968 L85.824,86.56 C85.664,86.784 85.312,87.04 84.608,87.168 Z M101.952,92.288 L103.872,89.632 C103.872,89.632 106.08,91.456 107.392,92.704 C107.296,93.056 106.976,93.216 106.528,93.216 L99.04,93.216 L99.04,105.6 C99.04,105.856 97.824,106.816 95.744,106.816 L95.04,106.816 L95.04,93.216 L86.592,93.216 L86.336,92.288 L95.04,92.288 L95.04,83.936 L92.352,83.936 C90.592,86.56 88.48,88.608 86.144,90.112 L85.792,89.824 C87.968,86.72 90.112,81.792 91.072,76.736 L96.224,78.432 C96.096,78.816 95.712,79.04 94.944,79.04 C94.336,80.48 93.664,81.824 92.896,83.04 L100.608,83.04 L102.72,80.48 C102.72,80.48 104.992,82.144 106.464,83.424 C106.368,83.776 106.048,83.936 105.568,83.936 L99.04,83.936 L99.04,92.288 L101.952,92.288 Z M121.312,101.44 L126.656,101.44 L126.656,98.848 L121.312,98.848 L121.312,101.44 Z M132.768,95.04 L134.432,93.12 L138.176,95.904 C137.984,96.16 137.536,96.448 136.864,96.576 L136.864,102.656 C136.864,105.056 136.352,106.432 132.48,106.752 C132.416,105.632 132.32,104.8 132,104.256 C131.648,103.744 131.232,103.328 130.112,103.136 C130.016,103.392 128.32,103.968 127.264,103.968 L126.656,103.968 L126.656,102.368 L121.312,102.368 L121.312,103.456 C121.312,103.712 119.808,104.416 118.464,104.416 L118.016,104.416 L118.016,96.576 L121.472,97.92 L126.368,97.92 L127.936,96.224 L131.264,98.72 C131.104,98.944 130.688,99.232 130.112,99.328 L130.112,102.72 C130.464,102.752 132,102.848 132.512,102.848 C132.96,102.848 133.088,102.656 133.088,102.272 L133.088,95.936 L115.264,95.936 L115.264,105.6 C115.264,105.952 113.536,106.784 111.968,106.784 L111.392,106.784 L111.392,93.408 L115.584,95.04 L132.768,95.04 Z M119.008,92.064 L129.28,92.064 L129.28,89.504 L119.008,89.504 L119.008,92.064 Z M119.2,88.576 L128.992,88.576 L130.624,86.848 L134.08,89.408 C133.92,89.6 133.536,89.856 132.992,89.952 L132.992,93.344 C132.96,93.536 131.072,94.08 129.92,94.08 L129.28,94.08 L129.28,92.96 L119.008,92.96 L119.008,93.504 C119.008,93.792 117.344,94.56 115.872,94.56 L115.36,94.56 L115.36,87.072 L119.2,88.576 Z M135.744,79.36 L135.744,83.52 C135.744,83.552 135.68,83.616 135.584,83.68 C136.16,84.096 137.824,85.376 138.912,86.336 C138.848,86.688 138.496,86.848 138.048,86.848 L109.536,86.848 L109.248,85.92 L122.976,85.92 C122.72,84.928 121.984,83.904 121.28,83.36 L121.536,83.136 C125.888,82.752 126.304,84.896 125.312,85.92 L133.44,85.92 L135.104,83.872 C134.496,84.064 133.536,84.256 132.64,84.256 L132,84.256 L132,82.816 L116.256,82.816 L115.072,84.448 L111.168,82.464 C111.456,82.144 111.936,81.728 112.384,81.472 L112.384,77.952 L117.216,78.432 C117.184,78.912 116.896,79.232 116.064,79.328 L116.064,81.888 L122.08,81.888 L122.08,76.832 L126.944,77.216 C126.88,77.664 126.624,77.984 125.824,78.144 L125.824,81.888 L132,81.888 L132,78.048 L136.928,78.464 C136.864,78.912 136.608,79.2 135.744,79.36 Z" id="许嵩" fill="#4A4A4A"></path>
                    <path d="M15.174,39.848 C17.5140117,40.9280054 19.7999888,42.1879928 22.032,43.628 C23.1480056,44.420004 23.4360027,45.4099941 22.896,46.598 C22.4639978,47.5340047 21.6180063,48.7399926 20.358,50.216 C19.2419944,51.4400061 18.2160047,51.1880086 17.28,49.46 C16.5959966,48.0919932 15.3000095,46.1300128 13.392,43.574 C12.9239977,42.9259968 12.5820011,42.4580014 12.366,42.17 L15.174,39.848 Z M9.396,17.276 L37.314,17.276 L37.314,13.712 L9.504,13.712 L8.64,8.852 L36.828,8.852 L38.934,5.666 L46.926,10.418 L45.144,12.956 L45.144,31.532 L40.608,31.532 L40.608,34.394 L44.172,34.394 L45.9,31.856 L52.002,36.284 L50.004,39.416 L40.608,39.416 L40.608,50.378 C40.9680018,54.2660194 38.0880306,56.3179989 31.968,56.534 C31.7879991,54.9859923 31.4460025,54.0320018 30.942,53.672 C30.5819982,53.3119982 29.4120099,53.0600007 27.432,52.916 L26.892,49.676 C29.484013,49.7480004 31.0679971,49.6400014 31.644,49.352 C32.3280034,49.0999987 32.6520002,48.3980058 32.616,47.246 L32.616,39.416 L3.294,39.416 L2.214,34.394 L32.616,34.394 L32.616,30.56 L8.856,30.56 L8.1,25.7 L37.314,25.7 L37.314,22.136 L10.152,22.136 L9.396,17.276 Z M91.422,48.002 C90.1259935,45.1219856 88.9020058,42.8360085 87.75,41.144 L89.856,39.632 L84.888,39.632 L84.888,48.596 L91.746,48.596 C91.6379995,48.4879995 91.5300005,48.2900014 91.422,48.002 Z M64.422,10.958 L64.584,11.768 C64.7280007,12.3440029 64.8179998,12.8119982 64.854,13.172 L79.758,13.172 C78.5339939,11.2279903 77.2560067,9.33800918 75.924,7.502 L78.462,5.18 C81.666016,6.40400612 84.0959917,7.5559946 85.752,8.636 C86.6160043,9.1760027 86.7960025,9.9859946 86.292,11.066 C86.1479993,11.4260018 85.8240025,11.9299968 85.32,12.578 C85.1399991,12.8300013 84.9960005,13.0279993 84.888,13.172 L97.038,13.172 L99.144,10.634 L106.326,16.25 L102.924,19.166 C101.699994,21.0380094 100.368007,22.9099906 98.928,24.782 L96.174,24.026 L98.28,25.484 L95.958,28.778 L84.888,28.778 L84.888,34.556 L91.314,34.556 L93.258,31.748 L99.576,36.392 L97.254,39.632 L91.422,39.632 C93.4020099,40.9280065 95.0579933,42.1699941 96.39,43.358 C97.0740034,43.9340029 97.1100031,44.6719955 96.498,45.572 C95.5619953,46.8680065 94.6080049,47.8399968 93.636,48.488 L93.528,48.596 L97.146,48.596 L99.36,45.356 L105.894,50.27 L103.572,53.888 L58.536,53.888 L57.672,48.596 L77.112,48.596 L77.112,39.632 L64.206,39.632 L63.396,34.556 L77.112,34.556 L77.112,28.778 L64.746,28.778 L63.936,23.702 L90.072,23.702 L91.962,20.894 L95.634,23.594 C95.8140009,22.9459968 96.0839982,21.8300079 96.444,20.246 C96.5880007,19.453996 96.7139995,18.860002 96.822,18.464 L65.502,18.464 C65.5380002,18.7880016 65.5739998,19.2559969 65.61,19.868 C65.6460002,20.5160032 65.6819998,20.9839986 65.718,21.272 C65.8260005,22.5320063 65.3580052,23.2339993 64.314,23.378 C63.0179935,23.6660014 61.3800099,23.81 59.4,23.81 C57.7799919,23.81 57.3479962,22.9640085 58.104,21.272 C58.9320041,19.471991 59.8859946,15.9620261 60.966,10.742 L64.422,10.958 Z M127.818,5.774 C129.582009,6.92600576 131.165993,8.16799334 132.57,9.5 C133.362004,10.1840034 133.470003,10.8859964 132.894,11.606 C132.822,11.6780004 132.714001,11.8039991 132.57,11.984 C131.453994,13.3520068 130.608003,14.233998 130.032,14.63 C128.843994,15.6020049 128.070002,15.3320076 127.71,13.82 C127.169997,11.9119905 126.288006,9.73401224 125.064,7.286 L127.818,5.774 Z M113.67,6.53 C117.018017,7.39400432 119.411993,8.16799658 120.852,8.852 C121.608004,9.10400126 121.860001,9.69799532 121.608,10.634 C121.247998,12.2900083 120.654004,13.8379928 119.826,15.278 C119.177997,16.3220052 118.512003,16.3940045 117.828,15.494 C115.91999,13.1539883 113.868011,11.0120097 111.672,9.068 L113.67,6.53 Z M111.672,18.248 C114.228013,19.040004 116.621989,19.9219951 118.854,20.894 C119.682004,21.2540018 119.934002,21.9559948 119.61,23 C119.177998,24.404007 118.548004,25.8799923 117.72,27.428 C116.999996,28.5080054 116.334003,28.6160043 115.722,27.752 C113.63399,25.0159863 111.58201,22.6940095 109.566,20.786 L111.672,18.248 Z M109.242,41.252 C111.870013,41.5760016 113.381998,41.0000074 113.778,39.524 C115.254007,36.3919843 116.94599,32.4320239 118.854,27.644 L122.634,29.21 C120.61799,35.6900324 119.286003,40.225987 118.638,42.818 C118.169998,44.5460086 117.936,46.0219939 117.936,47.246 C117.9,48.4700061 118.097998,50.2879879 118.53,52.7 C118.854002,54.3200081 118.404006,55.2379989 117.18,55.454 C116.099995,55.6340009 114.840007,55.6700005 113.4,55.562 C111.995993,55.4899996 111.455998,54.7160074 111.78,53.24 C112.068001,51.5839917 112.319999,49.658011 112.536,47.462 C112.680001,46.453995 112.572002,45.8420011 112.212,45.626 C111.923999,45.3379986 111.042007,45.1400005 109.566,45.032 L109.242,41.252 Z M121.068,15.278 L133.65,15.278 L134.892,12.632 L140.076,16.628 L138.078,19.922 L130.356,19.922 L130.356,25.43 L133.11,25.43 L134.352,23.216 L140.67,26.996 L139.104,29.318 C139.104,35.2580297 139.086,39.6859854 139.05,42.602 C138.978,45.9500167 138.888001,48.721989 138.78,50.918 C138.816,54.0860158 136.404024,55.7419993 131.544,55.886 C131.472,54.4459928 131.256002,53.6180011 130.896,53.402 C130.643999,53.0779984 129.726008,52.8800004 128.142,52.808 L127.71,49.784 C131.310018,50.2160022 133.074,49.6220081 133.002,48.002 C133.110001,45.7699888 133.164,42.9980166 133.164,39.686 C133.2,36.1939825 133.182,32.9720148 133.11,30.02 L130.356,30.02 C130.356,42.7280635 127.584028,51.6379744 122.04,56.75 L118.962,55.022 C122.526018,49.8019739 124.218001,41.1620603 124.038,29.102 L124.038,19.922 L122.04,19.922 L121.068,15.278 Z M139.644,34.556 L145.746,34.556 L145.746,30.56 L148.392,30.56 C148.824002,29.8039962 149.345997,28.724007 149.958,27.32 L142.074,27.32 L141.534,24.458 C141.317999,24.7460014 140.976002,25.1239977 140.508,25.592 L137.214,24.134 C139.914014,19.129975 141.875994,13.0100362 143.1,5.774 L150.606,7.178 L150.12,8.636 C149.291996,11.0120119 148.608003,12.7399946 148.068,13.82 L154.17,13.82 L155.466,11.606 L160.326,15.17 L158.544,18.248 L145.854,18.248 C145.205997,19.4360059 144.162007,20.9839905 142.722,22.892 L150.93,22.892 L152.82,20.57 L158.436,25.214 C158.760002,25.5380016 158.724002,25.8439986 158.328,26.132 L156.6,27.212 C156.239998,27.6800023 155.592005,28.417995 154.656,29.426 C153.863996,30.3260045 153.288002,30.9919978 152.928,31.424 L152.928,34.556 L154.71,34.556 L156.114,32.342 L160.758,35.96 L159.03,39.2 L152.928,39.2 L152.928,50.378 C152.964,52.6460113 152.460005,54.1399964 151.416,54.86 C150.479995,55.652004 148.284017,56.1739987 144.828,56.426 C144.792,54.3019894 143.640011,53.2939995 141.372,53.402 C141.047998,53.402 140.796001,53.3840002 140.616,53.348 L140.292,50.378 C142.596012,50.4500004 144.053997,50.3780011 144.666,50.162 C145.422004,49.9459989 145.782,49.4600038 145.746,48.704 L145.746,39.2 L140.292,39.2 L139.644,34.556 Z M200.394,7.988 C202.662011,8.63600324 204.76799,9.4099955 206.712,10.31 C207.396003,10.5620013 207.612001,11.1559953 207.36,12.092 C206.999998,13.4240067 206.442004,14.7379935 205.686,16.034 C204.965996,16.9700047 204.282003,16.9700047 203.634,16.034 C202.265993,13.9099894 200.700009,11.8580099 198.936,9.878 L200.394,7.988 Z M180.144,50.918 C184.932024,48.0379856 189.467979,44.5640203 193.752,40.496 C192.275993,36.3559793 191.178004,31.6760261 190.458,26.456 L184.68,27.32 L183.33,23.702 C182.537996,27.2300176 181.620005,30.289987 180.576,32.882 C182.124008,34.1060061 183.977989,35.6539906 186.138,37.526 C186.894004,38.1740032 187.002003,39.2359926 186.462,40.712 C185.741996,42.7280101 184.824006,44.5099923 183.708,46.058 C182.807995,47.3540065 181.944004,47.2820072 181.116,45.842 C180.791998,45.4099978 180.306003,44.7260047 179.658,43.79 C178.577995,42.1699919 177.714003,40.964004 177.066,40.172 C174.149985,45.2480254 170.424023,49.7119807 165.888,53.564 L162.972,51.026 C167.256021,46.0579752 170.585988,40.6400293 172.962,34.772 C170.261986,31.3519829 167.526014,28.1660148 164.754,25.214 L166.86,22.892 C168.300007,23.7920045 170.531985,25.3579888 173.556,27.59 C174.240003,28.0580023 174.743998,28.4179987 175.068,28.67 C176.040005,25.465984 176.741998,22.064018 177.174,18.464 L165.294,18.464 L164.538,13.388 L177.714,13.388 L179.82,10.742 L186.246,15.17 C186.894003,15.566002 186.894003,16.0519971 186.246,16.628 L184.14,18.842 C184.104,19.0940013 184.05,19.4539977 183.978,19.922 C183.833999,21.0380056 183.672001,21.8839971 183.492,22.46 L189.972,21.488 C189.863999,19.1839885 189.792,16.8620117 189.756,14.522 L189.756,6.206 L196.884,6.206 L196.884,20.462 L205.362,19.166 L207.468,16.358 L213.462,20.03 L212.22,23.216 L197.316,25.43 C197.640002,28.7060164 198.251995,31.8199852 199.152,34.772 C201.672013,31.6399843 203.669993,28.7240135 205.146,26.024 L211.572,30.56 C208.619985,34.55602 205.380018,38.1739838 201.852,41.414 C202.644004,42.7820068 203.453996,43.9519951 204.282,44.924 C205.866008,46.5080079 207.161995,46.3280097 208.17,44.384 C208.314001,44.0599984 208.493999,43.6460025 208.71,43.142 C209.070002,42.349996 209.321999,41.7740018 209.466,41.414 L212.544,43.034 C212.003997,45.0860103 211.841999,46.4539966 212.058,47.138 C212.202001,47.930004 212.885994,48.6679966 214.11,49.352 C212.705993,53.2400194 210.600014,55.2019998 207.792,55.238 C203.903981,55.3100004 200.484015,52.9880236 197.532,48.272 C196.991997,47.5159962 196.578001,46.8140032 196.29,46.166 C192.689982,48.8660135 188.226027,51.5479867 182.898,54.212 L180.144,50.918 Z" id="寻宝游戏" fill="#000000"></path>
                </g>
            </g>
        </g>
    </g>
</svg>