<?xml version="1.0" encoding="UTF-8"?>
<svg width="426px" height="68px" viewBox="0 0 426 68" version="1.1" xmlns="http://www.w3.org/2000/svg" xmlns:xlink="http://www.w3.org/1999/xlink">
    <!-- Generator: Sketch 53.2 (72643) - https://sketchapp.com -->
    <title>AOY Title</title>
    <desc>Created with Sketch.</desc>
    <g id="Page-1" stroke="none" stroke-width="1" fill="none" fill-rule="evenodd">
        <g id="Music-Index-(2019)" transform="translate(-823.000000, -141.000000)" fill-rule="nonzero">
            <g id="AOY-Title" transform="translate(822.000000, 125.000000)">
                <path d="M187.96,77.72 L182.92,77.72 L181.672,81.056 C181.624,81.1360004 181.592,81.2239995 181.576,81.32 C181.56,81.4160005 181.552,81.4879998 181.552,81.536 C181.552,81.7120009 181.635999,81.8559994 181.804,81.968 C181.972001,82.0800006 182.311997,82.1759996 182.824,82.256 C183.048001,82.2880002 183.16,82.4399986 183.16,82.712 C183.16,82.8240006 183.144,82.9599992 183.112,83.12 C182.679998,83.0879998 182.224002,83.0600001 181.744,83.036 C181.263998,83.0119999 180.792002,83 180.328,83 C180.007998,83 179.672002,83.0079999 179.32,83.024 C178.967998,83.0400001 178.576002,83.0719998 178.144,83.12 C178.112,83.0559997 178.096,82.9840004 178.096,82.904 L178.096,82.712 C178.096,82.4079985 178.199999,82.2480001 178.408,82.232 C178.904002,82.1359995 179.259999,82.0320006 179.476,81.92 C179.692001,81.8079994 179.863999,81.6160014 179.992,81.344 L185.776,67.52 C185.904001,67.2479986 186.095999,67.112 186.352,67.112 C186.432,67.112 186.512,67.116 186.592,67.124 C186.672,67.132 186.76,67.1439999 186.856,67.16 L192.64,81.416 C192.736,81.6560012 192.919999,81.8359994 193.192,81.956 C193.464001,82.0760006 193.759998,82.1599998 194.08,82.208 C194.320001,82.2560002 194.44,82.4159986 194.44,82.688 C194.44,82.8160006 194.424,82.9599992 194.392,83.12 C193.879997,83.0879998 193.376002,83.0600001 192.88,83.036 C192.383998,83.0119999 191.920002,83 191.488,83 C191.263999,83 190.992002,83.004 190.672,83.012 C190.351998,83.02 190.024002,83.0319999 189.688,83.048 C189.351998,83.0640001 189.020002,83.076 188.692,83.084 C188.363998,83.092 188.088001,83.1039999 187.864,83.12 C187.832,83.0559997 187.816,82.9840004 187.816,82.904 L187.816,82.712 C187.816,82.5679993 187.844,82.4600004 187.9,82.388 C187.956,82.3159996 188.016,82.2720001 188.08,82.256 C188.496002,82.1759996 188.803999,82.0840005 189.004,81.98 C189.204001,81.8759995 189.304,81.720001 189.304,81.512 C189.304,81.4159995 189.28,81.2960007 189.232,81.152 L187.96,77.72 Z M187.504,76.52 L185.464,71.12 L183.376,76.52 L187.504,76.52 Z M200.464,80.96 C200.464,81.2960017 200.679998,81.5199994 201.112,81.632 C201.544002,81.7440006 202.255995,81.8 203.248,81.8 L204.16,81.8 C204.560002,81.8 204.907999,81.7560004 205.204,81.668 C205.500001,81.5799996 205.759999,81.432001 205.984,81.224 C206.208001,81.015999 206.411999,80.7480016 206.596,80.42 C206.780001,80.0919984 206.959999,79.6960023 207.136,79.232 C207.184,79.1039994 207.303999,79.04 207.496,79.04 C207.576,79.04 207.671999,79.0639998 207.784,79.112 L208.12,79.256 C207.991999,79.7680026 207.876001,80.323997 207.772,80.924 C207.667999,81.524003 207.576,82.1119971 207.496,82.688 C207.48,82.880001 207.428,82.9999998 207.34,83.048 C207.252,83.0960002 207.16,83.12 207.064,83.12 C206.935999,83.12 206.756001,83.1120001 206.524,83.096 C206.291999,83.0799999 206.040001,83.068 205.768,83.06 C205.495999,83.052 205.220001,83.0400001 204.94,83.024 C204.659999,83.0079999 204.416001,83 204.208,83 L198.76,83 C198.295998,83 197.764003,83.0119999 197.164,83.036 C196.563997,83.0600001 196.024002,83.0879998 195.544,83.12 C195.512,83.0559997 195.496,82.9720005 195.496,82.868 L195.496,82.64 C195.496,82.3999988 195.575999,82.2720001 195.736,82.256 C196.344003,82.1439994 196.779999,82.0240006 197.044,81.896 C197.308001,81.7679994 197.44,81.5440016 197.44,81.224 L197.44,69.2 C197.44,69.0399992 197.424,68.9080005 197.392,68.804 C197.36,68.6999995 197.296,68.6080004 197.2,68.528 C197.104,68.4479996 196.956001,68.3800003 196.756,68.324 C196.555999,68.2679997 196.288002,68.2160002 195.952,68.168 C195.791999,68.1199998 195.712,67.9840011 195.712,67.76 L195.712,67.544 C195.712,67.4479995 195.728,67.3600004 195.76,67.28 C196.272003,67.3120002 196.815997,67.3399999 197.392,67.364 C197.968003,67.3880001 198.479998,67.4 198.928,67.4 C199.152001,67.4 199.407999,67.396 199.696,67.388 C199.984001,67.38 200.283998,67.372 200.596,67.364 C200.908002,67.356 201.219998,67.3440001 201.532,67.328 C201.844002,67.3119999 202.127999,67.2960001 202.384,67.28 C202.4,67.3600004 202.412,67.4479995 202.42,67.544 C202.428,67.6400005 202.432,67.7119998 202.432,67.76 C202.432,67.9840011 202.352001,68.1199998 202.192,68.168 C201.503997,68.2640005 201.044001,68.3879992 200.812,68.54 C200.579999,68.6920008 200.464,68.9279984 200.464,69.248 L200.464,80.96 Z M217.672,74.672 C218.344003,74.7360003 218.963997,74.867999 219.532,75.068 C220.100003,75.268001 220.591998,75.5319984 221.008,75.86 C221.424002,76.1880016 221.747999,76.5759978 221.98,77.024 C222.212001,77.4720022 222.328,77.9679973 222.328,78.512 C222.328,79.2480037 222.188001,79.8959972 221.908,80.456 C221.627999,81.0160028 221.236003,81.4839981 220.732,81.86 C220.227997,82.2360019 219.616004,82.519999 218.896,82.712 C218.175996,82.904001 217.376004,83 216.496,83 L212.344,83 C212.055999,83 211.732002,83.004 211.372,83.012 C211.011998,83.02 210.672002,83.0399998 210.352,83.072 C210.159999,83.0880001 209.968001,83.1 209.776,83.108 C209.583999,83.116 209.400001,83.12 209.224,83.12 L209.2,82.952 C209.184,82.9039998 209.176,82.8600002 209.176,82.82 L209.176,82.712 C209.176,82.5359991 209.204,82.4200003 209.26,82.364 C209.316,82.3079997 209.384,82.2720001 209.464,82.256 C210.024003,82.1759996 210.419999,82.0640007 210.652,81.92 C210.884001,81.7759993 211,81.5440016 211,81.224 L211,69.2 C211,68.8799984 210.896001,68.6520007 210.688,68.516 C210.479999,68.3799993 210.072003,68.2640005 209.464,68.168 C209.335999,68.1359998 209.256,68.0760004 209.224,67.988 C209.192,67.8999996 209.176,67.7920006 209.176,67.664 L209.176,67.556 C209.176,67.5159998 209.184,67.4800002 209.2,67.448 C209.2,67.3839997 209.208,67.3280002 209.224,67.28 C209.704002,67.3120002 210.243997,67.3399999 210.844,67.364 C211.444003,67.3880001 211.935998,67.4 212.32,67.4 L215.632,67.4 C216.656005,67.4 217.503997,67.499999 218.176,67.7 C218.848003,67.900001 219.383998,68.1759982 219.784,68.528 C220.184002,68.8800018 220.467999,69.2839977 220.636,69.74 C220.804001,70.1960023 220.888,70.6719975 220.888,71.168 C220.888,72.0960046 220.584003,72.8359972 219.976,73.388 C219.367997,73.9400028 218.600005,74.3439987 217.672,74.6 L217.672,74.672 Z M214.024,80.984 C214.024,81.3520018 214.195998,81.5879995 214.54,81.692 C214.884002,81.7960005 215.279998,81.848 215.728,81.848 C216.832006,81.848 217.655997,81.6120024 218.2,81.14 C218.744003,80.6679976 219.016,79.9040053 219.016,78.848 C219.016,78.2719971 218.916001,77.7680022 218.716,77.336 C218.515999,76.9039978 218.248002,76.5480014 217.912,76.268 C217.575998,75.9879986 217.184002,75.7760007 216.736,75.632 C216.287998,75.4879993 215.816002,75.416 215.32,75.416 L214.024,75.416 L214.024,80.984 Z M214.408,74.216 C215.032003,74.216 215.551998,74.1360008 215.968,73.976 C216.384002,73.8159992 216.715999,73.5960014 216.964,73.316 C217.212001,73.0359986 217.387999,72.7200018 217.492,72.368 C217.596001,72.0159982 217.648,71.6480019 217.648,71.264 C217.648,70.8959982 217.588001,70.5480016 217.468,70.22 C217.347999,69.8919984 217.160001,69.6080012 216.904,69.368 C216.647999,69.1279988 216.312002,68.9400007 215.896,68.804 C215.479998,68.6679993 214.984003,68.6 214.408,68.6 L214.024,68.6 L214.024,74.216 L214.408,74.216 Z M237.784,77.072 C237.784,77.9840046 237.688001,78.8199962 237.496,79.58 C237.303999,80.3400038 236.972002,80.9959972 236.5,81.548 C236.027998,82.1000028 235.396004,82.5279985 234.604,82.832 C233.811996,83.1360015 232.816006,83.288 231.616,83.288 C230.191993,83.288 229.044004,83.1280016 228.172,82.808 C227.299996,82.4879984 226.628002,82.0520028 226.156,81.5 C225.683998,80.9479972 225.368001,80.3000037 225.208,79.556 C225.047999,78.8119963 224.968,78.0160042 224.968,77.168 L224.968,69.2 C224.968,68.8639983 224.864001,68.6280007 224.656,68.492 C224.447999,68.3559993 224.024003,68.2480004 223.384,68.168 C223.207999,68.1359998 223.12,67.9840014 223.12,67.712 L223.12,67.52 C223.12,67.4399996 223.136,67.3600004 223.168,67.28 C223.632002,67.3120002 224.123997,67.3399999 224.644,67.364 C225.164003,67.3880001 225.783996,67.4 226.504,67.4 C227.064003,67.4 227.647997,67.3880001 228.256,67.364 C228.864003,67.3399999 229.407998,67.3120002 229.888,67.28 C229.904,67.3600004 229.916,67.4399996 229.924,67.52 C229.932,67.6000004 229.936,67.6639998 229.936,67.712 C229.936,67.9840014 229.848001,68.1359998 229.672,68.168 C229.015997,68.2480004 228.572001,68.3599993 228.34,68.504 C228.107999,68.6480007 227.992,68.8799984 227.992,69.2 L227.992,76.64 C227.992,78.3040083 228.299997,79.5679957 228.916,80.432 C229.532003,81.2960043 230.591992,81.728 232.096,81.728 C233.632008,81.728 234.723997,81.324004 235.372,80.516 C236.020003,79.707996 236.344,78.3920091 236.344,76.568 L236.344,69.2 C236.344,68.8799984 236.232001,68.6480007 236.008,68.504 C235.783999,68.3599993 235.360003,68.2480004 234.736,68.168 C234.543999,68.1199998 234.448,67.9680013 234.448,67.712 C234.448,67.6639998 234.452,67.6000004 234.46,67.52 C234.468,67.4399996 234.48,67.3600004 234.496,67.28 C234.960002,67.3280002 235.387998,67.3599999 235.78,67.376 C236.172002,67.3920001 236.591998,67.4 237.04,67.4 C237.552003,67.4 238.007998,67.3920001 238.408,67.376 C238.808002,67.3599999 239.199998,67.3280002 239.584,67.28 C239.6,67.3600004 239.612,67.4399996 239.62,67.52 C239.628,67.6000004 239.632,67.6639998 239.632,67.712 C239.632,67.9680013 239.536001,68.1199998 239.344,68.168 C238.751997,68.2320003 238.344001,68.3399992 238.12,68.492 C237.895999,68.6440008 237.784,68.8799984 237.784,69.2 L237.784,77.072 Z M256.24,67.856 C256.304,67.7119993 256.407999,67.6000004 256.552,67.52 C256.696001,67.4399996 257.047997,67.4 257.608,67.4 C257.736001,67.4 257.923999,67.396 258.172,67.388 C258.420001,67.38 258.687999,67.372 258.976,67.364 C259.264001,67.356 259.551999,67.3440001 259.84,67.328 C260.128001,67.3119999 260.375999,67.2960001 260.584,67.28 C260.616,67.3600004 260.632,67.4399996 260.632,67.52 L260.632,67.712 C260.632,67.9680013 260.544001,68.1199998 260.368,68.168 C260.047998,68.2160002 259.796001,68.2639998 259.612,68.312 C259.427999,68.3600002 259.288,68.4199996 259.192,68.492 C259.096,68.5640004 259.032,68.6479995 259,68.744 C258.968,68.8400005 258.952,68.9519994 258.952,69.08 C258.952,69.1120002 258.964,69.4159971 258.988,69.992 C259.012,70.5680029 259.048,71.2799958 259.096,72.128 C259.144,72.9760042 259.192,73.895995 259.24,74.888 C259.288,75.880005 259.336,76.8199956 259.384,77.708 C259.432,78.5960044 259.472,79.3679967 259.504,80.024 C259.536,80.6800033 259.56,81.0799993 259.576,81.224 C259.576,81.3840008 259.596,81.5159995 259.636,81.62 C259.676,81.7240005 259.747999,81.8159996 259.852,81.896 C259.956001,81.9760004 260.103999,82.0439997 260.296,82.1 C260.488001,82.1560003 260.735998,82.2079998 261.04,82.256 C261.216001,82.2880002 261.304,82.4399986 261.304,82.712 C261.304,82.8240006 261.288,82.9599992 261.256,83.12 C260.695997,83.0879998 260.188002,83.0600001 259.732,83.036 C259.275998,83.0119999 258.760003,83 258.184,83 C257.655997,83 257.092003,83.0119999 256.492,83.036 C255.891997,83.0600001 255.392002,83.0879998 254.992,83.12 C254.96,82.9599992 254.944,82.8240006 254.944,82.712 C254.944,82.5359991 254.972,82.4160003 255.028,82.352 C255.084,82.2879997 255.136,82.256 255.184,82.256 C255.840003,82.1439994 256.263999,82.0120008 256.456,81.86 C256.648001,81.7079992 256.744,81.4720016 256.744,81.152 C256.744,81.1039998 256.732,80.8480023 256.708,80.384 C256.684,79.9199977 256.66,79.3440034 256.636,78.656 C256.612,77.9679966 256.58,77.224004 256.54,76.424 C256.5,75.623996 256.46,74.8720035 256.42,74.168 C256.38,73.4639965 256.348,72.8560026 256.324,72.344 C256.3,71.8319974 256.28,71.5200006 256.264,71.408 L251.344,82.856 C251.264,83.0000007 251.196,83.1079996 251.14,83.18 C251.084,83.2520004 251.008,83.288 250.912,83.288 L250.768,83.288 C250.704,83.288 250.656,83.2800001 250.624,83.264 L245.056,69.92 C245.04,70.128001 245.02,70.5479968 244.996,71.18 C244.972,71.8120032 244.94,72.5359959 244.9,73.352 C244.86,74.1680041 244.82,75.0279955 244.78,75.932 C244.74,76.8360045 244.704,77.6719962 244.672,78.44 C244.64,79.2080038 244.612,79.8519974 244.588,80.372 C244.564,80.8920026 244.552,81.1759998 244.552,81.224 C244.552,81.3680007 244.568,81.4919995 244.6,81.596 C244.632,81.7000005 244.696,81.7919996 244.792,81.872 C244.888,81.9520004 245.031999,82.0199997 245.224,82.076 C245.416001,82.1320003 245.679998,82.1919997 246.016,82.256 C246.192001,82.2880002 246.28,82.4399986 246.28,82.712 C246.28,82.7600002 246.276,82.8199996 246.268,82.892 C246.26,82.9640004 246.248,83.0399996 246.232,83.12 C245.799998,83.0879998 245.400002,83.0600001 245.032,83.036 C244.663998,83.0119999 244.296002,83 243.928,83 C243.607998,83 243.208002,83.0119999 242.728,83.036 C242.247998,83.0600001 241.816002,83.0879998 241.432,83.12 C241.4,83.0559997 241.384,82.9840004 241.384,82.904 L241.384,82.712 C241.384,82.5359991 241.408,82.4200003 241.456,82.364 C241.504,82.3079997 241.568,82.2720001 241.648,82.256 C242.144002,82.1439994 242.503999,82.0160007 242.728,81.872 C242.952001,81.7279993 243.08,81.5120014 243.112,81.224 C243.112,81.0959994 243.128,80.7080032 243.16,80.06 C243.192,79.4119968 243.232,78.6440044 243.28,77.756 C243.328,76.8679956 243.376,75.924005 243.424,74.924 C243.472,73.923995 243.516,72.9960043 243.556,72.14 C243.596,71.2839957 243.628,70.5680029 243.652,69.992 C243.676,69.4159971 243.688,69.1120002 243.688,69.08 C243.688,68.8079986 243.600001,68.6120006 243.424,68.492 C243.247999,68.3719994 242.864003,68.2640005 242.272,68.168 C242.095999,68.1519999 242.008,68.0000014 242.008,67.712 L242.008,67.52 C242.008,67.4399996 242.024,67.3600004 242.056,67.28 C242.264001,67.2960001 242.551998,67.3119999 242.92,67.328 C243.288002,67.3440001 243.663998,67.356 244.048,67.364 C244.432002,67.372 244.791998,67.38 245.128,67.388 C245.464002,67.396 245.703999,67.4 245.848,67.4 C246.136001,67.4 246.359999,67.4119999 246.52,67.436 C246.680001,67.4600001 246.808,67.4879998 246.904,67.52 C247,67.5520002 247.068,67.5999997 247.108,67.664 C247.148,67.7280003 247.184,67.7919997 247.216,67.856 L251.68,78.632 L256.24,67.856 Z M268.096,75.2 C268.096,74.0799944 268.307998,73.0320049 268.732,72.056 C269.156002,71.0799951 269.735996,70.2240037 270.472,69.488 C271.208004,68.7519963 272.067995,68.1720021 273.052,67.748 C274.036005,67.3239979 275.087994,67.112 276.208,67.112 C277.360006,67.112 278.431995,67.311998 279.424,67.712 C280.416005,68.112002 281.275996,68.6719964 282.004,69.392 C282.732004,70.1120036 283.303998,70.967995 283.72,71.96 C284.136002,72.952005 284.344,74.0319942 284.344,75.2 C284.344,76.3200056 284.132002,77.3719951 283.708,78.356 C283.283998,79.3400049 282.704004,80.1959964 281.968,80.924 C281.231996,81.6520036 280.368005,82.2279979 279.376,82.652 C278.383995,83.0760021 277.328006,83.288 276.208,83.288 C275.055994,83.288 273.984005,83.088002 272.992,82.688 C271.999995,82.287998 271.144004,81.7280036 270.424,81.008 C269.703996,80.2879964 269.136002,79.4360049 268.72,78.452 C268.303998,77.4679951 268.096,76.3840059 268.096,75.2 Z M276.568,82.04 C277.240003,82.04 277.847997,81.8920015 278.392,81.596 C278.936003,81.2999985 279.403998,80.8960026 279.796,80.384 C280.188002,79.8719974 280.491999,79.2720034 280.708,78.584 C280.924001,77.8959966 281.032,77.1600039 281.032,76.376 C281.032,75.2399943 280.924001,74.1840049 280.708,73.208 C280.491999,72.2319951 280.164002,71.3880036 279.724,70.676 C279.283998,69.9639964 278.732003,69.404002 278.068,68.996 C277.403997,68.587998 276.632004,68.384 275.752,68.384 C275.191997,68.384 274.648003,68.5079988 274.12,68.756 C273.591997,69.0040012 273.128002,69.3639976 272.728,69.836 C272.327998,70.3080024 272.008001,70.8799966 271.768,71.552 C271.527999,72.2240034 271.408,72.9839958 271.408,73.832 C271.408,75.0160059 271.523999,76.111995 271.756,77.12 C271.988001,78.128005 272.323998,78.9959964 272.764,79.724 C273.204002,80.4520036 273.743997,81.019998 274.384,81.428 C275.024003,81.836002 275.751996,82.04 276.568,82.04 Z M288.136,69.2 C288.136,69.0559993 288.116,68.9320005 288.076,68.828 C288.036,68.7239995 287.952001,68.6320004 287.824,68.552 C287.695999,68.4719996 287.520001,68.4040003 287.296,68.348 C287.071999,68.2919997 286.784002,68.2320003 286.432,68.168 C286.271999,68.1199998 286.192,67.9760012 286.192,67.736 L286.192,67.508 C286.192,67.4359996 286.208,67.3600004 286.24,67.28 C286.928003,67.3280002 287.535997,67.3599999 288.064,67.376 C288.592003,67.3920001 289.039998,67.4 289.408,67.4 L294.328,67.4 C295.064004,67.4 295.691997,67.3760002 296.212,67.328 C296.732003,67.2799998 297.079999,67.256 297.256,67.256 C297.432001,67.256 297.56,67.3279993 297.64,67.472 C297.688,67.6000006 297.728,67.8359983 297.76,68.18 C297.792,68.5240017 297.848,68.8799982 297.928,69.248 C297.976,69.5200014 298.032,69.7839987 298.096,70.04 C298.16,70.2960013 298.255999,70.6079982 298.384,70.976 C298.32,71.0080002 298.236001,71.0399998 298.132,71.072 C298.027999,71.1040002 297.928,71.12 297.832,71.12 C297.655999,71.12 297.536,71.0480007 297.472,70.904 C297.279999,70.4879979 297.092001,70.1320015 296.908,69.836 C296.723999,69.5399985 296.516001,69.3000009 296.284,69.116 C296.051999,68.9319991 295.780002,68.8000004 295.468,68.72 C295.155998,68.6399996 294.776002,68.6 294.328,68.6 L291.16,68.6 L291.16,74.672 L294.472,74.672 C294.744001,74.672 294.939999,74.5400013 295.06,74.276 C295.180001,74.0119987 295.28,73.6160026 295.36,73.088 C295.408,72.879999 295.559999,72.776 295.816,72.776 C295.864,72.776 295.939999,72.78 296.044,72.788 C296.148001,72.796 296.224,72.8079999 296.272,72.824 C296.24,73.1920018 296.212,73.6199976 296.188,74.108 C296.164,74.5960024 296.152,75.0079983 296.152,75.344 C296.152,75.6320014 296.16,75.971998 296.176,76.364 C296.192,76.756002 296.224,77.1999975 296.272,77.696 C296.224,77.7280002 296.152,77.748 296.056,77.756 C295.96,77.764 295.888,77.768 295.84,77.768 C295.567999,77.768 295.408,77.6560011 295.36,77.432 C295.296,76.9199974 295.200001,76.5320013 295.072,76.268 C294.943999,76.0039987 294.744001,75.872 294.472,75.872 L291.16,75.872 L291.16,81.248 C291.16,81.4080008 291.215999,81.5399995 291.328,81.644 C291.440001,81.7480005 291.591999,81.8359996 291.784,81.908 C291.976001,81.9800004 292.199999,82.0359998 292.456,82.076 C292.712001,82.1160002 292.983999,82.1599998 293.272,82.208 C293.464001,82.2240001 293.56,82.3599987 293.56,82.616 C293.56,82.6640002 293.556,82.7439994 293.548,82.856 C293.54,82.9680006 293.528,83.0559997 293.512,83.12 C293.287999,83.12 293.064001,83.116 292.84,83.108 C292.615999,83.1 292.392001,83.0880001 292.168,83.072 C291.751998,83.0399998 291.308002,83.02 290.836,83.012 C290.363998,83.004 289.896002,83 289.432,83 C289.207999,83 288.964001,83.004 288.7,83.012 C288.435999,83.02 288.160001,83.0319999 287.872,83.048 C287.583999,83.0640001 287.300001,83.076 287.02,83.084 C286.739999,83.092 286.480001,83.1039999 286.24,83.12 C286.208,83.0559997 286.192,82.9720005 286.192,82.868 L286.192,82.64 C286.192,82.3999988 286.271999,82.2720001 286.432,82.256 C286.960003,82.1279994 287.375998,82.0040006 287.68,81.884 C287.984002,81.7639994 288.136,81.5440016 288.136,81.224 L288.136,69.2 Z M313.528,68.6 L313.528,81.224 C313.528,81.3840008 313.54,81.5159995 313.564,81.62 C313.588,81.7240005 313.648,81.8159996 313.744,81.896 C313.84,81.9760004 313.975999,82.0439997 314.152,82.1 C314.328001,82.1560003 314.575998,82.2079998 314.896,82.256 C315.136001,82.3040002 315.256,82.4399989 315.256,82.664 C315.256,82.7120002 315.252,82.7839995 315.244,82.88 C315.236,82.9760005 315.224,83.0559997 315.208,83.12 C314.695997,83.0879998 314.148003,83.0600001 313.564,83.036 C312.979997,83.0119999 312.464002,83 312.016,83 C311.551998,83 311.036003,83.0119999 310.468,83.036 C309.899997,83.0600001 309.360003,83.0879998 308.848,83.12 C308.816,83.0559997 308.796,82.9760005 308.788,82.88 C308.78,82.7839995 308.776,82.7120002 308.776,82.664 C308.776,82.5519994 308.796,82.4600004 308.836,82.388 C308.876,82.3159996 308.983999,82.2640002 309.16,82.232 C309.752003,82.1519996 310.123999,82.0440007 310.276,81.908 C310.428001,81.7719993 310.504,81.5440016 310.504,81.224 L310.504,68.6 L308.392,68.6 C307.943998,68.6 307.564002,68.6439996 307.252,68.732 C306.939998,68.8200004 306.668001,68.9559991 306.436,69.14 C306.203999,69.3240009 305.996001,69.5639985 305.812,69.86 C305.627999,70.1560015 305.440001,70.5119979 305.248,70.928 C305.184,71.0720007 305.064001,71.144 304.888,71.144 C304.792,71.144 304.680001,71.1240002 304.552,71.084 C304.423999,71.0439998 304.328,71.0080002 304.264,70.976 C304.376001,70.5919981 304.472,70.2520015 304.552,69.956 C304.632,69.6599985 304.696,69.3680014 304.744,69.08 C304.808,68.7119982 304.856,68.3840014 304.888,68.096 C304.92,67.8079986 304.96,67.6000006 305.008,67.472 C305.072,67.3279993 305.199999,67.256 305.392,67.256 C305.568001,67.256 305.915997,67.2799998 306.436,67.328 C306.956003,67.3760002 307.583996,67.4 308.32,67.4 L315.712,67.4 C316.432004,67.4 317.051997,67.3760002 317.572,67.328 C318.092003,67.2799998 318.447999,67.256 318.64,67.256 C318.816001,67.256 318.944,67.3279993 319.024,67.472 C319.072,67.6000006 319.108,67.8079986 319.132,68.096 C319.156,68.3840014 319.208,68.7119982 319.288,69.08 C319.336,69.3680014 319.396,69.6599985 319.468,69.956 C319.54,70.2520015 319.639999,70.5919981 319.768,70.976 C319.688,71.0080002 319.588001,71.0439998 319.468,71.084 C319.347999,71.1240002 319.24,71.144 319.144,71.144 C318.967999,71.144 318.84,71.0720007 318.76,70.928 C318.567999,70.5119979 318.380001,70.1560015 318.196,69.86 C318.011999,69.5639985 317.804001,69.3240009 317.572,69.14 C317.339999,68.9559991 317.068002,68.8200004 316.756,68.732 C316.443998,68.6439996 316.072002,68.6 315.64,68.6 L313.528,68.6 Z M335.224,81.224 C335.224,81.3840008 335.236,81.5159995 335.26,81.62 C335.284,81.7240005 335.347999,81.8159996 335.452,81.896 C335.556001,81.9760004 335.707999,82.0439997 335.908,82.1 C336.108001,82.1560003 336.375998,82.2079998 336.712,82.256 C336.872001,82.2880002 336.952,82.4239988 336.952,82.664 C336.952,82.7120002 336.948,82.7839995 336.94,82.88 C336.932,82.9760005 336.92,83.0559997 336.904,83.12 C336.391997,83.0879998 335.848003,83.0600001 335.272,83.036 C334.695997,83.0119999 334.184002,83 333.736,83 C333.271998,83 332.748003,83.0119999 332.164,83.036 C331.579997,83.0600001 331.032003,83.0879998 330.52,83.12 C330.488,83.0559997 330.472,82.9760005 330.472,82.88 L330.472,82.664 C330.472,82.4079987 330.551999,82.2720001 330.712,82.256 C331.048002,82.2079998 331.315999,82.1560003 331.516,82.1 C331.716001,82.0439997 331.864,81.9760004 331.96,81.896 C332.056,81.8159996 332.12,81.7240005 332.152,81.62 C332.184,81.5159995 332.2,81.3840008 332.2,81.224 L332.2,75.584 L325.72,75.584 L325.72,81.224 C325.72,81.3840008 325.732,81.5159995 325.756,81.62 C325.78,81.7240005 325.843999,81.8159996 325.948,81.896 C326.052001,81.9760004 326.203999,82.0439997 326.404,82.1 C326.604001,82.1560003 326.871998,82.2079998 327.208,82.256 C327.368001,82.2880002 327.448,82.4239988 327.448,82.664 C327.448,82.7120002 327.444,82.7839995 327.436,82.88 C327.428,82.9760005 327.416,83.0559997 327.4,83.12 C326.887997,83.0879998 326.336003,83.0600001 325.744,83.036 C325.151997,83.0119999 324.632002,83 324.184,83 C323.735998,83 323.224003,83.0119999 322.648,83.036 C322.071997,83.0600001 321.528003,83.0879998 321.016,83.12 C320.984,83.0559997 320.968,82.9760005 320.968,82.88 L320.968,82.664 C320.968,82.4079987 321.047999,82.2720001 321.208,82.256 C321.544002,82.2079998 321.811999,82.1560003 322.012,82.1 C322.212001,82.0439997 322.36,81.9760004 322.456,81.896 C322.552,81.8159996 322.616,81.7240005 322.648,81.62 C322.68,81.5159995 322.696,81.3840008 322.696,81.224 L322.696,69.2 C322.696,69.0399992 322.68,68.9080005 322.648,68.804 C322.616,68.6999995 322.552,68.6080004 322.456,68.528 C322.36,68.4479996 322.212001,68.3800003 322.012,68.324 C321.811999,68.2679997 321.544002,68.2160002 321.208,68.168 C321.047999,68.1199998 320.968,67.9840011 320.968,67.76 L320.968,67.544 C320.968,67.4479995 320.984,67.3600004 321.016,67.28 C321.528003,67.3120002 322.071997,67.3399999 322.648,67.364 C323.224003,67.3880001 323.735998,67.4 324.184,67.4 C324.632002,67.4 325.151997,67.3880001 325.744,67.364 C326.336003,67.3399999 326.887997,67.3120002 327.4,67.28 C327.416,67.3600004 327.428,67.4479995 327.436,67.544 C327.444,67.6400005 327.448,67.7119998 327.448,67.76 C327.448,67.9840011 327.368001,68.1199998 327.208,68.168 C326.871998,68.2160002 326.604001,68.2679997 326.404,68.324 C326.203999,68.3800003 326.052001,68.4479996 325.948,68.528 C325.843999,68.6080004 325.78,68.6999995 325.756,68.804 C325.732,68.9080005 325.72,69.0399992 325.72,69.2 L325.72,74.312 L332.2,74.312 L332.2,69.2 C332.2,69.0399992 332.184,68.9080005 332.152,68.804 C332.12,68.6999995 332.056,68.6080004 331.96,68.528 C331.864,68.4479996 331.716001,68.3800003 331.516,68.324 C331.315999,68.2679997 331.048002,68.2160002 330.712,68.168 C330.551999,68.1199998 330.472,67.9840011 330.472,67.76 L330.472,67.544 C330.472,67.4479995 330.488,67.3600004 330.52,67.28 C331.032003,67.3120002 331.579997,67.3399999 332.164,67.364 C332.748003,67.3880001 333.271998,67.4 333.736,67.4 C334.184002,67.4 334.695997,67.3880001 335.272,67.364 C335.848003,67.3399999 336.391997,67.3120002 336.904,67.28 C336.92,67.3600004 336.932,67.4479995 336.94,67.544 C336.948,67.6400005 336.952,67.7119998 336.952,67.76 C336.952,67.9840011 336.872001,68.1199998 336.712,68.168 C336.375998,68.2160002 336.108001,68.2679997 335.908,68.324 C335.707999,68.3800003 335.556001,68.4479996 335.452,68.528 C335.347999,68.6080004 335.284,68.6999995 335.26,68.804 C335.236,68.9080005 335.224,69.0399992 335.224,69.2 L335.224,81.224 Z M343.624,81.224 C343.624,81.3840008 343.636,81.5159995 343.66,81.62 C343.684,81.7240005 343.747999,81.8159996 343.852,81.896 C343.956001,81.9760004 344.107999,82.0439997 344.308,82.1 C344.508001,82.1560003 344.775998,82.2079998 345.112,82.256 C345.272001,82.2880002 345.352,82.4239988 345.352,82.664 C345.352,82.7120002 345.348,82.7839995 345.34,82.88 C345.332,82.9760005 345.32,83.0559997 345.304,83.12 C344.791997,83.0879998 344.244003,83.0600001 343.66,83.036 C343.075997,83.0119999 342.560002,83 342.112,83 C341.647998,83 341.128003,83.0119999 340.552,83.036 C339.975997,83.0600001 339.432003,83.0879998 338.92,83.12 C338.888,83.0559997 338.872,82.9760005 338.872,82.88 L338.872,82.664 C338.872,82.4079987 338.951999,82.2720001 339.112,82.256 C339.448002,82.2079998 339.715999,82.1560003 339.916,82.1 C340.116001,82.0439997 340.264,81.9760004 340.36,81.896 C340.456,81.8159996 340.52,81.7240005 340.552,81.62 C340.584,81.5159995 340.6,81.3840008 340.6,81.224 L340.6,69.2 C340.6,69.0399992 340.584,68.9080005 340.552,68.804 C340.52,68.6999995 340.456,68.6080004 340.36,68.528 C340.264,68.4479996 340.116001,68.3800003 339.916,68.324 C339.715999,68.2679997 339.448002,68.2160002 339.112,68.168 C338.951999,68.1199998 338.872,67.9840011 338.872,67.76 L338.872,67.544 C338.872,67.4479995 338.888,67.3600004 338.92,67.28 C339.432003,67.3120002 339.975997,67.3399999 340.552,67.364 C341.128003,67.3880001 341.647998,67.4 342.112,67.4 C342.560002,67.4 343.075997,67.3880001 343.66,67.364 C344.244003,67.3399999 344.791997,67.3120002 345.304,67.28 C345.32,67.3600004 345.332,67.4479995 345.34,67.544 C345.348,67.6400005 345.352,67.7119998 345.352,67.76 C345.352,67.9840011 345.272001,68.1199998 345.112,68.168 C344.775998,68.2160002 344.508001,68.2679997 344.308,68.324 C344.107999,68.3800003 343.956001,68.4479996 343.852,68.528 C343.747999,68.6080004 343.684,68.6999995 343.66,68.804 C343.636,68.9080005 343.624,69.0399992 343.624,69.2 L343.624,81.224 Z M357.544,71.288 C357.399999,71.3360002 357.248001,71.36 357.088,71.36 C356.863999,71.36 356.704,71.3160004 356.608,71.228 C356.512,71.1399996 356.448,71.0480005 356.416,70.952 C356.047998,70.0399954 355.572003,69.384002 354.988,68.984 C354.403997,68.583998 353.624005,68.384 352.648,68.384 C351.879996,68.384 351.228003,68.5719981 350.692,68.948 C350.155997,69.3240019 349.888,69.8959962 349.888,70.664 C349.888,71.256003 350.091998,71.7319982 350.5,72.092 C350.908002,72.4520018 351.419997,72.7679986 352.036,73.04 C352.652003,73.3120014 353.315996,73.5759987 354.028,73.832 C354.740004,74.0880013 355.403997,74.4079981 356.02,74.792 C356.636003,75.1760019 357.147998,75.663997 357.556,76.256 C357.964002,76.848003 358.168,77.6079954 358.168,78.536 C358.168,79.144003 358.064001,79.7359971 357.856,80.312 C357.647999,80.8880029 357.320002,81.3959978 356.872,81.836 C356.423998,82.2760022 355.856003,82.6279987 355.168,82.892 C354.479997,83.1560013 353.656005,83.288 352.696,83.288 C351.639995,83.288 350.696004,83.1720012 349.864,82.94 C349.031996,82.7079988 348.344003,82.4560014 347.8,82.184 C347.752,81.4959966 347.676001,80.8200033 347.572,80.156 C347.467999,79.4919967 347.352001,78.8480031 347.224,78.224 C347.384001,78.1599997 347.567999,78.128 347.776,78.128 C347.968001,78.128 348.112,78.1639996 348.208,78.236 C348.304,78.3080004 348.384,78.4319991 348.448,78.608 C348.656001,79.216003 348.887999,79.7399978 349.144,80.18 C349.400001,80.6200022 349.695998,80.9799986 350.032,81.26 C350.368002,81.5400014 350.755998,81.7439994 351.196,81.872 C351.636002,82.0000006 352.143997,82.064 352.72,82.064 C353.216002,82.064 353.639998,81.9960007 353.992,81.86 C354.344002,81.7239993 354.631999,81.5440011 354.856,81.32 C355.080001,81.0959989 355.247999,80.8320015 355.36,80.528 C355.472001,80.2239985 355.528,79.9120016 355.528,79.592 C355.528,78.9039966 355.332002,78.364002 354.94,77.972 C354.547998,77.579998 354.060003,77.2520013 353.476,76.988 C352.891997,76.7239987 352.260003,76.4760012 351.58,76.244 C350.899997,76.0119988 350.268003,75.7160018 349.684,75.356 C349.099997,74.9959982 348.612002,74.5320028 348.22,73.964 C347.827998,73.3959972 347.632,72.6320048 347.632,71.672 C347.632,71.0319968 347.747999,70.4360028 347.98,69.884 C348.212001,69.3319972 348.551998,68.852002 349,68.444 C349.448002,68.035998 349.987997,67.7120012 350.62,67.472 C351.252003,67.2319988 351.975996,67.112 352.792,67.112 C353.464003,67.112 354.139997,67.1839993 354.82,67.328 C355.500003,67.4720007 356.271996,67.7119983 357.136,68.048 C357.168,68.5280024 357.22,69.067997 357.292,69.668 C357.364,70.268003 357.448,70.8079976 357.544,71.288 Z M370.072,76.424 L366.256,69.152 C366.079999,68.8159983 365.860001,68.5840006 365.596,68.456 C365.331999,68.3279994 364.992002,68.2320003 364.576,68.168 C364.383999,68.1519999 364.288,67.9920015 364.288,67.688 L364.288,67.58 C364.288,67.5399998 364.296,67.4960002 364.312,67.448 L364.336,67.28 C364.688002,67.3120002 365.139997,67.3399999 365.692,67.364 C366.244003,67.3880001 366.847997,67.4 367.504,67.4 C367.728001,67.4 367.995998,67.396 368.308,67.388 C368.620002,67.38 368.935998,67.372 369.256,67.364 C369.576002,67.356 369.875999,67.3440001 370.156,67.328 C370.436001,67.3119999 370.663999,67.2960001 370.84,67.28 C370.872,67.4240007 370.888,67.5239997 370.888,67.58 L370.888,67.712 C370.888,67.9840014 370.792001,68.1359998 370.6,68.168 C370.183998,68.2160002 369.896001,68.2839996 369.736,68.372 C369.575999,68.4600004 369.496,68.5759993 369.496,68.72 C369.496,68.8480006 369.551999,69.015999 369.664,69.224 L372.472,74.792 L375.232,69.608 C375.408001,69.3039985 375.496,69.048001 375.496,68.84 C375.496,68.647999 375.408001,68.5080004 375.232,68.42 C375.055999,68.3319996 374.752002,68.2480004 374.32,68.168 C374.111999,68.1359998 374.008,67.9840014 374.008,67.712 C374.008,67.6479997 374.032,67.5040011 374.08,67.28 C374.416002,67.3120002 374.835997,67.3399999 375.34,67.364 C375.844003,67.3880001 376.287998,67.4 376.672,67.4 C377.040002,67.4 377.427998,67.3920001 377.836,67.376 C378.244002,67.3599999 378.655998,67.3280002 379.072,67.28 C379.104,67.3920006 379.12,67.4839996 379.12,67.556 L379.12,67.712 C379.12,68.0000014 379.024001,68.1519999 378.832,68.168 C378.255997,68.2480004 377.856001,68.3519994 377.632,68.48 C377.407999,68.6080006 377.216001,68.8079986 377.056,69.08 L373.096,76.376 L373.096,81.152 C373.096,81.3280009 373.12,81.4719994 373.168,81.584 C373.216,81.6960006 373.303999,81.7919996 373.432,81.872 C373.560001,81.9520004 373.731999,82.0199997 373.948,82.076 C374.164001,82.1320003 374.447998,82.1839998 374.8,82.232 C374.88,82.2480001 374.948,82.2839997 375.004,82.34 C375.06,82.3960003 375.088,82.5119991 375.088,82.688 C375.088,82.7200002 375.084,82.7559998 375.076,82.796 C375.068,82.8360002 375.064,82.8799998 375.064,82.928 L375.04,83.096 C374.783999,83.096 374.544001,83.092 374.32,83.084 C374.095999,83.076 373.872001,83.0640001 373.648,83.048 C373.263998,83.0159998 372.868002,82.996 372.46,82.988 C372.051998,82.98 371.712001,82.976 371.44,82.976 C371.151999,82.976 370.820002,82.98 370.444,82.988 C370.067998,82.996 369.704002,83.0159998 369.352,83.048 C369.143999,83.0640001 368.940001,83.076 368.74,83.084 C368.539999,83.092 368.336001,83.096 368.128,83.096 L368.104,82.928 C368.088,82.8799998 368.08,82.8360002 368.08,82.796 L368.08,82.688 C368.08,82.5119991 368.108,82.3960003 368.164,82.34 C368.22,82.2839997 368.288,82.2480001 368.368,82.232 C368.704002,82.1679997 368.983999,82.1080003 369.208,82.052 C369.432001,81.9959997 369.607999,81.9320004 369.736,81.86 C369.864001,81.7879996 369.952,81.6960006 370,81.584 C370.048,81.4719994 370.072,81.3280009 370.072,81.152 L370.072,76.424 Z M385.144,68.6 L385.144,74.384 L388.528,74.384 C388.832002,74.384 389.039999,74.2600012 389.152,74.012 C389.264001,73.7639988 389.36,73.3600028 389.44,72.8 C389.456,72.6719994 389.504,72.5880002 389.584,72.548 C389.664,72.5079998 389.767999,72.488 389.896,72.488 C389.944,72.488 390.019999,72.492 390.124,72.5 C390.228001,72.508 390.304,72.5199999 390.352,72.536 C390.32,72.9040018 390.292,73.3319976 390.268,73.82 C390.244,74.3080024 390.232,74.7199983 390.232,75.056 C390.232,75.3440014 390.24,75.683998 390.256,76.076 C390.272,76.468002 390.304,76.9119975 390.352,77.408 C390.304,77.4400002 390.228001,77.46 390.124,77.468 C390.019999,77.476 389.944,77.48 389.896,77.48 C389.607999,77.48 389.456,77.3680011 389.44,77.144 C389.344,76.535997 389.236001,76.1240011 389.116,75.908 C388.995999,75.6919989 388.800001,75.584 388.528,75.584 L385.144,75.584 L385.144,80.96 C385.144,81.2960017 385.351998,81.5199994 385.768,81.632 C386.184002,81.7440006 386.887995,81.8 387.88,81.8 L388.888,81.8 C389.368002,81.8 389.771998,81.7360006 390.1,81.608 C390.428002,81.4799994 390.719999,81.3000012 390.976,81.068 C391.232001,80.8359988 391.455999,80.5640016 391.648,80.252 C391.840001,79.9399984 392.031999,79.5920019 392.224,79.208 C392.272,79.0959994 392.383999,79.04 392.56,79.04 C392.64,79.04 392.735999,79.0639998 392.848,79.112 L393.184,79.256 C393.152,79.3840006 393.116,79.5039994 393.076,79.616 C393.036,79.7280006 393,79.8399994 392.968,79.952 C392.888,80.1280009 392.824,80.319999 392.776,80.528 C392.728,80.736001 392.68,80.9039994 392.632,81.032 L392.524,81.572 C392.484,81.772001 392.444,81.9639991 392.404,82.148 C392.364,82.3320009 392.324,82.4959993 392.284,82.64 C392.244,82.7840007 392.216,82.8799998 392.2,82.928 C392.136,83.0560006 392.008001,83.12 391.816,83.12 C391.687999,83.12 391.504001,83.1120001 391.264,83.096 C391.023999,83.0799999 390.764001,83.068 390.484,83.06 C390.203999,83.052 389.920001,83.0400001 389.632,83.024 C389.343999,83.0079999 389.096001,83 388.888,83 L383.44,83 C382.975998,83 382.444003,83.0119999 381.844,83.036 C381.243997,83.0600001 380.704002,83.0879998 380.224,83.12 C380.192,83.0559997 380.176,82.9720005 380.176,82.868 L380.176,82.64 C380.176,82.3999988 380.255999,82.2720001 380.416,82.256 C381.024003,82.1439994 381.459999,82.0240006 381.724,81.896 C381.988001,81.7679994 382.12,81.5440016 382.12,81.224 L382.12,69.2 C382.12,69.0399992 382.096,68.9080005 382.048,68.804 C382,68.6999995 381.908001,68.6120004 381.772,68.54 C381.635999,68.4679996 381.460001,68.4040003 381.244,68.348 C381.027999,68.2919997 380.752002,68.2320003 380.416,68.168 C380.255999,68.1199998 380.176,67.9760012 380.176,67.736 L380.176,67.508 C380.176,67.4359996 380.192,67.3600004 380.224,67.28 C380.912003,67.3280002 381.519997,67.3599999 382.048,67.376 C382.576003,67.3920001 383.031998,67.4 383.416,67.4 L388.336,67.4 C389.056004,67.4 389.675997,67.3760002 390.196,67.328 C390.716003,67.2799998 391.071999,67.256 391.264,67.256 C391.440001,67.256 391.568,67.3279993 391.648,67.472 C391.696,67.6000006 391.736,67.8359983 391.768,68.18 C391.8,68.5240017 391.856,68.8799982 391.936,69.248 C391.984,69.5200014 392.04,69.7839987 392.104,70.04 C392.168,70.2960013 392.263999,70.6079982 392.392,70.976 C392.312,71.0080002 392.224,71.0399998 392.128,71.072 C392.032,71.1040002 391.936,71.12 391.84,71.12 C391.663999,71.12 391.536,71.0480007 391.456,70.904 C391.263999,70.4879979 391.076001,70.1320015 390.892,69.836 C390.707999,69.5399985 390.500001,69.3000009 390.268,69.116 C390.035999,68.9319991 389.764002,68.8000004 389.452,68.72 C389.139998,68.6399996 388.768002,68.6 388.336,68.6 L385.144,68.6 Z M403.744,77.72 L398.704,77.72 L397.456,81.056 C397.408,81.1360004 397.376,81.2239995 397.36,81.32 C397.344,81.4160005 397.336,81.4879998 397.336,81.536 C397.336,81.7120009 397.419999,81.8559994 397.588,81.968 C397.756001,82.0800006 398.095997,82.1759996 398.608,82.256 C398.832001,82.2880002 398.944,82.4399986 398.944,82.712 C398.944,82.8240006 398.928,82.9599992 398.896,83.12 C398.463998,83.0879998 398.008002,83.0600001 397.528,83.036 C397.047998,83.0119999 396.576002,83 396.112,83 C395.791998,83 395.456002,83.0079999 395.104,83.024 C394.751998,83.0400001 394.360002,83.0719998 393.928,83.12 C393.896,83.0559997 393.88,82.9840004 393.88,82.904 L393.88,82.712 C393.88,82.4079985 393.983999,82.2480001 394.192,82.232 C394.688002,82.1359995 395.043999,82.0320006 395.26,81.92 C395.476001,81.8079994 395.647999,81.6160014 395.776,81.344 L401.56,67.52 C401.688001,67.2479986 401.879999,67.112 402.136,67.112 C402.216,67.112 402.296,67.116 402.376,67.124 C402.456,67.132 402.544,67.1439999 402.64,67.16 L408.424,81.416 C408.52,81.6560012 408.703999,81.8359994 408.976,81.956 C409.248001,82.0760006 409.543998,82.1599998 409.864,82.208 C410.104001,82.2560002 410.224,82.4159986 410.224,82.688 C410.224,82.8160006 410.208,82.9599992 410.176,83.12 C409.663997,83.0879998 409.160002,83.0600001 408.664,83.036 C408.167998,83.0119999 407.704002,83 407.272,83 C407.047999,83 406.776002,83.004 406.456,83.012 C406.135998,83.02 405.808002,83.0319999 405.472,83.048 C405.135998,83.0640001 404.804002,83.076 404.476,83.084 C404.147998,83.092 403.872001,83.1039999 403.648,83.12 C403.616,83.0559997 403.6,82.9840004 403.6,82.904 L403.6,82.712 C403.6,82.5679993 403.628,82.4600004 403.684,82.388 C403.74,82.3159996 403.8,82.2720001 403.864,82.256 C404.280002,82.1759996 404.587999,82.0840005 404.788,81.98 C404.988001,81.8759995 405.088,81.720001 405.088,81.512 C405.088,81.4159995 405.064,81.2960007 405.016,81.152 L403.744,77.72 Z M403.288,76.52 L401.248,71.12 L399.16,76.52 L403.288,76.52 Z M417.28,76.04 L416.248,76.04 L416.248,81.056 C416.248,81.4240018 416.403998,81.6839992 416.716,81.836 C417.028002,81.9880008 417.559996,82.1119995 418.312,82.208 C418.536001,82.2400002 418.648,82.3999986 418.648,82.688 C418.648,82.8160006 418.632,82.9599992 418.6,83.12 C418.135998,83.0879998 417.556003,83.0600001 416.86,83.036 C416.163997,83.0119999 415.408004,83 414.592,83 C414.015997,83 413.460003,83.0119999 412.924,83.036 C412.387997,83.0600001 411.888002,83.0879998 411.424,83.12 C411.392,83.0559997 411.376,82.9840004 411.376,82.904 L411.376,82.712 C411.376,82.4399986 411.463999,82.2880002 411.64,82.256 C411.976002,82.1919997 412.247999,82.1320003 412.456,82.076 C412.664001,82.0199997 412.823999,81.9560004 412.936,81.884 C413.048001,81.8119996 413.124,81.7240005 413.164,81.62 C413.204,81.5159995 413.224,81.3840008 413.224,81.224 L413.224,69.2 C413.224,68.8799984 413.108001,68.6480007 412.876,68.504 C412.643999,68.3599993 412.200003,68.2480004 411.544,68.168 C411.464,68.1359998 411.4,68.0880003 411.352,68.024 C411.304,67.9599997 411.28,67.8480008 411.28,67.688 L411.28,67.472 C411.28,67.3919996 411.296,67.3280002 411.328,67.28 C411.776002,67.3120002 412.291997,67.3399999 412.876,67.364 C413.460003,67.3880001 413.983998,67.4 414.448,67.4 L418.072,67.4 C418.920004,67.4 419.679997,67.503999 420.352,67.712 C421.024003,67.920001 421.595998,68.2159981 422.068,68.6 C422.540002,68.9840019 422.899999,69.4399974 423.148,69.968 C423.396001,70.4960026 423.52,71.0799968 423.52,71.72 C423.52,72.5680042 423.260003,73.3399965 422.74,74.036 C422.219997,74.7320035 421.504005,75.2559982 420.592,75.608 L424.36,81.104 C424.648001,81.5200021 424.979998,81.8079992 425.356,81.968 C425.732002,82.1280008 426.079998,82.2479996 426.4,82.328 C426.48,82.3440001 426.544,82.3799997 426.592,82.436 C426.64,82.4920003 426.664,82.5919993 426.664,82.736 L426.664,82.952 C426.664,83.0320004 426.648,83.1119996 426.616,83.192 C426.439999,83.1759999 426.192002,83.164 425.872,83.156 C425.551998,83.148 425.220002,83.1360001 424.876,83.12 C424.531998,83.1039999 424.188002,83.092 423.844,83.084 C423.499998,83.076 423.216001,83.072 422.992,83.072 C422.655998,83.072 422.320002,82.9320014 421.984,82.652 C421.647998,82.3719986 421.320002,82.0000023 421,81.536 L417.28,76.04 Z M416.968,74.84 C417.464002,74.84 417.911998,74.7920005 418.312,74.696 C418.712002,74.5999995 419.055999,74.4360012 419.344,74.204 C419.632001,73.9719988 419.851999,73.6640019 420.004,73.28 C420.156001,72.8959981 420.232,72.408003 420.232,71.816 C420.232,70.823995 419.992002,70.0400029 419.512,69.464 C419.031998,68.8879971 418.184006,68.6 416.968,68.6 L416.248,68.6 L416.248,74.84 L416.968,74.84 Z" id="ALBUMOFTHISYEAR" fill="#FF7C00"></path>
                <path d="M190.528,41.376 L196.036,41.376 L196.036,32.412 L190.528,32.412 L190.528,41.376 Z M196.036,24.132 L190.276,24.132 C188.692,26.112 187.036,27.84 185.236,29.316 L191.032,31.404 L196.036,31.404 L196.036,24.132 Z M205.108,41.376 L207.952,37.812 C207.952,37.812 211.156,40.188 213.136,41.808 C213.028,42.204 212.596,42.384 212.056,42.384 L201.76,42.384 L201.76,49.944 C201.724,50.268 200.068,51.384 197.116,51.384 L196.036,51.384 L196.036,42.384 L179.224,42.384 L178.936,41.376 L184.984,41.376 L184.984,29.496 C183.184,30.972 181.276,32.16 179.26,33.204 L178.936,32.916 C182.032,29.172 185.524,22.944 187.432,16.788 L194.56,19.416 C194.38,19.884 193.876,20.172 193.012,20.1 C192.364,21.18 191.716,22.188 191.032,23.124 L204.604,23.124 L207.448,19.596 C207.448,19.596 210.58,21.864 212.596,23.556 C212.524,23.952 212.092,24.132 211.552,24.132 L201.76,24.132 L201.76,31.404 L203.812,31.404 L206.476,28.092 C206.476,28.092 209.5,30.324 211.336,31.836 C211.228,32.232 210.832,32.412 210.292,32.412 L201.76,32.412 L201.76,41.376 L205.108,41.376 Z M223.432,23.448 L223.432,31.944 C223.432,38.208 223,46.308 215.188,51.42 L214.9,51.204 C218.068,45.588 218.212,38.352 218.212,31.944 L218.212,20.424 L224.188,22.44 L232.108,22.44 L231.964,22.368 C231.568,20.496 230.308,18.516 229.12,17.364 L229.336,17.184 C237.4,16.5 237.724,20.964 235.456,22.44 L242.26,22.44 L244.744,19.02 C244.744,19.02 247.552,21.324 249.172,22.872 C249.064,23.268 248.668,23.448 248.164,23.448 L223.432,23.448 Z M232.036,33.96 L236.68,33.96 L236.68,29.208 L232.036,29.208 L232.036,33.96 Z M237.544,35.904 L236.68,35.904 L236.68,34.968 L232.036,34.968 L232.036,35.688 C232.036,35.976 229.84,36.732 228.004,36.732 L227.14,36.732 L227.14,29.208 L223.864,29.208 L223.576,28.2 L227.14,28.2 L227.14,24.24 L233.188,24.744 C233.116,25.176 232.9,25.536 232.036,25.644 L232.036,28.2 L236.68,28.2 L236.68,24.24 L242.764,24.744 C242.692,25.176 242.476,25.5 241.612,25.644 L241.612,28.2 L242.512,28.2 L244.564,24.888 C244.564,24.888 246.904,27.156 248.164,28.632 C248.056,29.028 247.696,29.208 247.192,29.208 L241.612,29.208 L241.612,34.86 C241.612,35.148 239.416,35.904 237.544,35.904 Z M238.3,38.892 L228.184,38.892 C229.696,41.052 231.928,42.564 234.628,43.644 C236.14,42.24 237.364,40.656 238.3,38.892 Z M241.144,35.328 L245.428,39.324 C245.176,39.72 244.816,39.828 243.88,39.9 C242.62,41.844 241.072,43.536 239.236,44.976 C242.404,45.624 245.896,45.876 249.424,45.948 L249.424,46.38 C247.264,47.064 245.968,48.828 245.5,51.384 C241.288,50.628 237.688,49.584 234.7,47.784 C230.452,49.836 225.268,51.024 219.22,51.42 L219.076,50.988 C224.116,49.836 228.508,48.108 231.964,45.768 C230.056,44.004 228.544,41.772 227.392,38.892 L225.052,38.892 L224.728,37.884 L238.264,37.884 L241.144,35.328 Z M276.928,30.288 L279.664,26.544 C279.664,26.544 282.796,29.064 284.596,30.72 C284.488,31.116 284.092,31.296 283.552,31.296 L266.74,31.296 C266.2,33.168 265.66,34.932 265.228,36.336 L273.004,36.336 L275.92,33.564 L280.636,38.1 C280.348,38.46 279.988,38.568 279.16,38.64 C277.18,40.368 274.084,42.564 271.276,44.22 C277.504,47.064 276.424,52.428 272.212,51.744 C269.08,48.36 263.068,44.688 258.244,43.14 L258.424,42.744 C263.392,42.348 267.1,42.78 269.8,43.68 C270.988,41.664 272.212,39.252 273.04,37.344 L265.12,37.344 L263.212,39.648 L258.244,36.732 C258.568,36.444 259.036,36.12 259.504,35.832 C260.008,34.572 260.548,32.988 261.088,31.296 L251.548,31.296 L251.26,30.288 L261.376,30.288 C261.988,28.416 262.564,26.4 263.068,24.492 L253.636,24.492 L253.348,23.484 L263.356,23.484 C264.076,20.748 264.652,18.264 264.904,16.788 L271.672,18.732 C271.492,19.164 271.06,19.596 270.088,19.488 L268.972,23.484 L274.12,23.484 L276.748,19.992 C276.748,19.992 279.7,22.332 281.428,23.916 C281.32,24.312 280.924,24.492 280.42,24.492 L268.684,24.492 C268.18,26.328 267.604,28.344 267.028,30.288 L276.928,30.288 Z M293.596,33.924 L293.596,27.372 C292.876,29.748 292.156,32.124 291.544,33.924 L293.596,33.924 Z M301.66,39.036 L301.732,39.396 C300.616,40.116 299.212,40.944 297.484,41.916 L297.484,50.016 C297.484,50.232 296.116,51.168 293.848,51.168 L293.02,51.168 L293.02,44.256 C292.084,44.724 291.112,45.228 290.032,45.732 C289.852,46.2 289.456,46.56 289.024,46.668 L286.468,41.196 C287.836,41.052 290.176,40.764 293.02,40.368 L293.02,34.932 L291.472,34.932 L289.816,36.84 L285.712,34.248 C286.072,33.96 286.576,33.636 287.116,33.384 C287.944,31.188 288.916,28.092 289.78,25.104 L286.9,25.104 L286.612,24.096 L290.068,24.096 C290.824,21.396 291.472,18.84 291.76,17.292 L297.376,18.696 C297.232,19.128 296.836,19.524 295.9,19.488 C295.576,20.712 295.108,22.332 294.568,24.096 L295.792,24.096 L297.916,21.504 C297.916,21.504 300.292,23.268 301.804,24.528 C301.696,24.924 301.336,25.104 300.796,25.104 L294.28,25.104 L293.668,27.156 L298.78,27.696 C298.708,28.2 298.384,28.56 297.484,28.704 L297.484,33.528 L298.78,31.872 C298.78,31.872 300.58,33.312 301.696,34.356 C301.588,34.752 301.228,34.932 300.76,34.932 L297.484,34.932 L297.484,39.684 C298.852,39.468 300.256,39.252 301.66,39.036 Z M306.988,44.868 L312.244,44.076 L312.244,40.404 L306.988,40.404 L306.988,44.868 Z M312.244,30.72 L306.988,30.72 L306.988,34.5 L312.244,34.5 L312.244,30.72 Z M306.988,35.508 L306.988,39.396 L312.244,39.396 L312.244,35.508 L306.988,35.508 Z M306.988,25.572 L312.352,25.572 L312.352,21 L306.988,21 L306.988,25.572 Z M317.284,42.204 L318.616,39.72 C318.616,39.72 320.416,41.772 321.46,43.104 C321.424,43.428 321.1,43.716 320.668,43.788 L317.284,44.292 L317.284,50.304 C317.248,50.52 315.772,51.42 313.18,51.42 L312.244,51.42 L312.244,45.084 L299.032,47.1 L298.6,46.164 L302.164,45.624 L302.164,30.72 L299.284,30.72 L298.996,29.712 L314.044,29.712 L315.52,27.804 C314.908,27.912 314.152,27.984 313.252,27.984 L312.352,27.984 L312.352,26.58 L306.988,26.58 L306.988,27.552 C306.988,27.876 305.512,28.596 303.028,28.596 L302.128,28.596 L302.128,18.048 L307.348,19.992 L312.208,19.992 L314.512,17.436 L318.796,20.604 C318.58,20.928 318.292,21.144 317.464,21.288 L317.464,27.084 C317.464,27.12 317.392,27.192 317.248,27.264 C318.184,27.984 319.696,29.208 320.74,30.144 C320.632,30.54 320.236,30.72 319.732,30.72 L317.284,30.72 L317.284,42.204 Z" id="年度专辑" fill="#FF7C00"></path>
                <path d="M18.0351562,67.3007812 L38.25,67.3007812 L38.25,75 L1.79296875,75 L20.6367188,52.1835938 C22.4882905,49.9101449 24.0410094,47.9414146 25.2949219,46.2773438 C26.5488344,44.6132729 27.503903,43.2187556 28.1601562,42.09375 C29.4961004,39.890614 30.1640625,37.910165 30.1640625,36.1523438 C30.1640625,33.6210811 29.2734464,31.5000086 27.4921875,29.7890625 C25.7109286,28.0781164 23.5078256,27.2226562 20.8828125,27.2226562 C15.3984101,27.2226562 12.2578165,30.4687175 11.4609375,36.9609375 L3.3046875,36.9609375 C4.61719406,25.5233803 10.39448,19.8046875 20.6367188,19.8046875 C25.582056,19.8046875 29.730452,21.3749843 33.0820312,24.515625 C36.4570481,27.6562657 38.1445312,31.5468518 38.1445312,36.1875 C38.1445312,39.1406398 37.3593829,42.0351421 35.7890625,44.8710938 C34.9921835,46.3476636 33.8261796,48.0995992 32.2910156,50.1269531 C30.7558517,52.154307 28.816418,54.5507674 26.4726562,57.3164062 L18.0351562,67.3007812 Z M47.4960938,47.5078125 C47.4960938,38.8593318 49.5116986,31.957057 53.5429688,26.8007812 C57.1523618,22.1366954 61.5234118,19.8046875 66.65625,19.8046875 C71.7890882,19.8046875 76.1601382,22.1366954 79.7695312,26.8007812 C83.8008014,31.957057 85.8164062,38.9765181 85.8164062,47.859375 C85.8164062,56.7187943 83.8008014,63.7265367 79.7695312,68.8828125 C76.1601382,73.5468983 71.8008068,75.8789062 66.6914062,75.8789062 C61.5820057,75.8789062 57.199237,73.5468983 53.5429688,68.8828125 C49.5116986,63.7265367 47.4960938,56.601608 47.4960938,47.5078125 Z M55.546875,47.5429688 C55.546875,53.5664364 56.5898333,58.5702926 58.6757812,62.5546875 C60.7617292,66.4687696 63.4218588,68.4257812 66.65625,68.4257812 C69.8672036,68.4257812 72.5273332,66.4687696 74.6367188,62.5546875 C76.7461043,58.664043 77.8007812,53.7539359 77.8007812,47.8242188 C77.8007812,41.8945016 76.7461043,36.9726758 74.6367188,33.0585938 C72.5273332,29.1679493 69.8672036,27.2226562 66.65625,27.2226562 C63.4687341,27.2226562 60.820323,29.1679493 58.7109375,33.0585938 C56.601552,36.9258006 55.546875,41.7538773 55.546875,47.5429688 Z M102.832031,28.3828125 L93.4453125,28.3828125 L97.9453125,20.71875 L111.023438,20.71875 L111.023438,75 L102.832031,75 L102.832031,28.3828125 Z M134.859375,46.7695312 C130.87498,43.9570172 128.882812,40.1250243 128.882812,35.2734375 C128.882812,30.8671655 130.394516,27.1875148 133.417969,24.234375 C136.464859,21.2812352 140.249977,19.8046875 144.773438,19.8046875 C149.27346,19.8046875 153.023423,21.2812352 156.023438,24.234375 C159.023452,27.1640771 160.523438,30.8554465 160.523438,35.3085938 C160.523438,39.9726796 158.542989,43.7812352 154.582031,46.734375 C156.76173,47.9062559 158.47265,49.6171762 159.714844,51.8671875 C160.980475,54.1171988 161.613281,56.6484234 161.613281,59.4609375 C161.613281,64.265649 160.042984,68.2031096 156.902344,71.2734375 C153.761703,74.3437654 149.742212,75.8789062 144.84375,75.8789062 C139.8281,75.8789062 135.691423,74.3320467 132.433594,71.2382812 C129.152327,68.1445158 127.511719,64.2539297 127.511719,59.5664062 C127.511719,53.4726258 129.960913,49.2070434 134.859375,46.7695312 Z M136.582031,35.2382812 C136.582031,37.5586054 137.36718,39.5038984 138.9375,41.0742188 C140.531258,42.6679767 142.453114,43.4648438 144.703125,43.4648438 C146.929699,43.4648438 148.839836,42.6679767 150.433594,41.0742188 C152.027352,39.4804608 152.824219,37.5703236 152.824219,35.34375 C152.824219,33.1171764 152.027352,31.2070392 150.433594,29.6132812 C148.839836,28.0195233 146.929699,27.2226562 144.703125,27.2226562 C142.476551,27.2226562 140.566414,28.0195233 138.972656,29.6132812 C137.378898,31.2070392 136.582031,33.0820205 136.582031,35.2382812 Z M135.5625,59.2851562 C135.5625,61.7929813 136.429679,63.9492097 138.164062,65.7539062 C139.921884,67.5351652 142.054675,68.4257812 144.5625,68.4257812 C147.046887,68.4257812 149.16796,67.5468838 150.925781,65.7890625 C152.683603,64.0078036 153.5625,61.8750124 153.5625,59.390625 C153.5625,56.8828 152.683603,54.7500088 150.925781,52.9921875 C149.16796,51.2343662 147.046887,50.3554688 144.5625,50.3554688 C142.10155,50.3554688 139.980478,51.2343662 138.199219,52.9921875 C136.441397,54.7500088 135.5625,56.8476441 135.5625,59.2851562 Z" id="2018" fill="#4A90E2"></path>
            </g>
        </g>
    </g>
</svg>