<?xml version="1.0" encoding="UTF-8"?>
<svg width="82px" height="14px" viewBox="0 0 82 14" version="1.1" xmlns="http://www.w3.org/2000/svg" xmlns:xlink="http://www.w3.org/1999/xlink">
    <!-- Generator: Sketch 50.2 (55047) - http://www.bohemiancoding.com/sketch -->
    <title>NCM Logo</title>
    <desc>Created with Sketch.</desc>
    <defs></defs>
    <g id="Page-1" stroke="none" stroke-width="1" fill="none" fill-rule="evenodd">
        <g id="Music-(Desktop-HD)" transform="translate(-829.000000, -602.000000)" fill="#FFFFFF" fill-rule="nonzero">
            <g id="Netease-Cloud-Music" transform="translate(810.000000, 589.000000)">
                <g id="NCM-Logo" transform="translate(19.000000, 13.000000)">
                    <g id="Group" transform="translate(18.000000, 1.000000)">
                        <path d="M30.2784202,4.76350307 L39,4.76350307 C38.9691511,4.24682061 38.7445432,4 38.2469166,4 L27,4 C27.0301557,4.51726431 27.2548791,4.76350307 27.7523902,4.76350307 L28.766823,4.76350307 C28.766823,4.76350307 28.0232137,7.73128522 27.701322,9.01298356 C27.5953727,9.43505727 27.6507159,9.69991522 27.6826046,9.85387262 C27.8523315,10.6835902 28.4619154,11 29.3203705,11 L37.0923349,11 C37.9503278,11 38.5604895,10.6835902 38.7302163,9.85387262 C38.7619896,9.70003159 38.7846352,9.44401775 38.711499,9.01298356 C38.5790913,8.23190863 38.3699656,6.80020947 38.3699656,6.80020947 L36.8573285,6.80020947 C36.8579062,6.80847173 37.1258413,8.45417519 37.2379141,9.09036956 C37.3543775,9.75204894 36.9694014,10.2360315 36.5085162,10.2360315 L29.9041893,10.2360315 C29.1166752,10.2360315 29.0902167,9.42947151 29.1747913,9.09036956 C29.5001492,7.79028477 30.2784202,4.76350307 30.2784202,4.76350307 Z" id="Shape"></path>
                        <path d="M39,1.75 C38.9685198,1.24223035 38.7352524,1 38.2151652,1 L27,1 C27.0316008,1.50834095 27.2660743,1.75 27.7854379,1.75 L39,1.75 Z" id="Shape"></path>
                        <path d="M9.953874,10 C9.953874,10 10.0576575,9.20162933 9.953874,9.08375143 C9.32789024,8.36860232 8.85442532,7.61323332 8.49484449,6.88649347 C9.53608855,4.91305284 9.84579774,3.08159886 9.86208493,3 L8.48108245,3 C8.48108245,3 8.47035057,4.15107711 7.97453811,5.65741063 C7.43983839,4.15107711 7.38100248,3 7.38100248,3 L6,3 C6.01616094,3.08159886 6.38533732,4.92290497 7.47468541,6.90306824 C7.12962417,7.62436044 6.66802744,8.37416588 6.04633643,9.08375143 C5.94255292,9.20174524 6.04633643,10 6.04633643,10 C6.84213627,9.33724107 7.47960944,8.55486563 7.98842641,7.75811766 C8.51163672,8.55486563 9.15807416,9.33724107 9.953874,10 Z" id="Shape"></path>
                        <path d="M4.61945425,3 C4.61945425,3 4.56062227,4.15107711 4.02532693,5.65741063 C3.53017875,4.15107711 3.51881635,3 3.51881635,3 L2.13803213,3 C2.15419199,3.08159886 2.46388054,4.91305284 3.50568646,6.88649347 C3.14625584,7.61334923 2.67206498,8.36860232 2.04612293,9.08375143 C1.94234634,9.20174524 2.04612293,10 2.04612293,10 C2.84186975,9.33724107 3.48826411,8.55486563 4.0115658,7.75811766 C4.52047512,8.55486563 5.15777956,9.33724107 5.95415762,10 C5.95415762,10 6.05730297,9.20162933 5.95415762,9.08375143 C5.33238179,8.37416588 4.87031082,7.62424453 4.52527257,6.90306824 C5.61454808,4.92290497 5.98357362,3.08159886 5.99985972,3 L4.61945425,3 Z" id="Shape"></path>
                        <path d="M10.2419937,0.497204207 L1.45015324,0.502577534 C0.367421997,0.49068762 0,0.327658601 0,0 C0,0.209216762 0,9.9995323 0,11 L1.58207305,11 L1.58207305,1.24775505 L9.62761393,1.24775505 C10.1526403,1.24775505 10.4174446,1.36676852 10.4174446,1.87277584 L10.4174446,9.62397107 C10.4174446,10.0903072 10.1372054,10.2229255 8.7029694,10.3745219 C8.58141989,10.3875551 8.44045621,11 8.44045621,11 L10.2419937,11 C11.3030196,11 12,10.6245531 12,9.49901264 L12,1.99773426 C12,0.872193814 11.3030196,0.497204207 10.2419937,0.497204207 Z" id="Shape"></path>
                        <path d="M41.4662018,4.99538386 C41.4662018,5.09278923 41.4662018,8.71227031 41.4662018,9.66145453 C41.4744151,10.8616538 41.8638994,10.9955856 42.8146992,10.9960679 L50.5665601,11 L50.5665601,6.46717598 C50.5665601,5.26698092 49.9495885,5.13293368 48.9981403,5.13245106 L42.4120304,5.12911028 C41.8284524,5.13588498 41.4662018,5.13911469 41.4662018,4.99538386 Z M43.6023134,10.196378 C43.1312362,10.196139 42.8846205,10.2030847 42.8846205,9.79566448 L42.8846205,8.46271042 L49.1483576,8.46588769 L49.1483576,10.1991992 L43.6023134,10.196378 Z M49.1483576,6.33272232 L49.1483576,7.66616401 L42.8846205,7.66298675 L42.8846205,5.92968321 L48.4476317,5.93250504 C48.9181685,5.93286563 49.1483576,5.92944703 49.1483576,6.33272232 Z" id="Shape"></path>
                        <path d="M45.5399672,0.0109525637 L45.5399672,1.00547628 L40.53189,1.00547628 C40.5620793,1.58860755 40.8055743,1.78725482 41.292448,1.78725482 L51.7880246,1.78725482 C51.7578353,1.20464783 51.5109711,1.00547628 51.0239843,1.00547628 L46.8505664,1.00547628 L46.8505664,0.0109525637 L45.5399672,0.0109525637 Z" id="Shape"></path>
                        <path d="M51.2572947,3.62034445 L50.0080616,3.62034445 C50.1613106,3.3952554 50.2342846,2.86126889 50.2342846,2.52633099 L48.7173965,2.52633099 L48.7173965,2.63165495 C48.7173965,3.05718687 48.4996397,3.62034445 47.9958595,3.62034445 L44.0173496,3.62034445 C43.5141473,3.62034445 43.2824879,3.05718687 43.2824879,2.63165495 L43.2824879,2.52633099 L41.7661777,2.52633099 C41.7661777,2.86126889 41.8449341,3.3952554 41.9981831,3.62034445 L39.9970528,3.62034445 C40.0277951,4.04828322 40.3812989,4.37634883 40.8789537,4.37634883 L52.004281,4.37634883 C51.9734232,3.94879516 51.7550652,3.62034445 51.2572947,3.62034445 Z" id="Shape"></path>
                        <path d="M55.6629486,6.30645267 L54.6396869,6.30645267 C54.6396869,6.30645267 54.3597179,8.15959346 53.6135311,9.84524012 C53.5341966,10.0238857 53.6151484,10.0864451 53.6151484,10.0864451 C54.3968315,9.81825372 55.4024727,8.6228229 55.6629486,6.30645267 Z" id="Shape"></path>
                        <path d="M63.9651743,9.84524012 C63.2190114,8.15959346 62.9390513,6.30645267 62.9390513,6.30645267 L61.9157372,6.30645267 C62.176375,8.6228229 63.1818139,9.81825372 63.9635571,10.0864451 C63.9634719,10.0864451 64.0445063,10.0238857 63.9651743,9.84524012 Z" id="Shape"></path>
                        <path d="M59.6389168,9.83678924 C59.6389168,8.8162943 59.6389168,5.77686598 59.6389168,5.77686598 L63.5174425,5.77686598 C63.8262172,5.77686598 64,5.77686598 64,5.77686598 C63.9762822,5.38334321 63.8350837,5.06046674 63.5174425,5.06046674 C62.5580906,5.06046674 59.6389168,5.06046674 59.6389168,5.06046674 L59.6389168,2.67814718 L58.1842618,2.67814718 C58.1842618,2.67814718 58.1842618,4.51134743 58.1842618,5.06046674 L55.7613886,5.06046674 C55.278831,5.06046674 55.0333407,5.06625384 55.0333407,4.58297643 L55.0333407,4.46352196 L55.2294005,1.47803377 C55.8826375,1.47803377 60.7058854,1.46973529 63.3964152,1.3585793 C63.5781778,1.35137273 63.5776236,0.624600384 63.3964152,0.636611346 C60.2316402,0.848877787 55.2757278,0.761743723 55.2757278,0.761743723 C54.184598,0.761743723 53.8210728,0.756611767 53.8210728,0.756611767 C53.8210728,0.756611767 53.5786858,3.71512989 53.5786858,4.46352196 C53.5797941,5.53795704 54.2209506,5.77675679 55.1967054,5.77675679 L58.1843727,5.77675679 L58.1843727,9.5978803 L58.1843727,9.71722558 C58.1843727,10.1626139 58.0473857,10.2892749 56.7298286,10.4340616 C56.6175569,10.4465093 56.3663034,11.0314431 56.3663034,11.0314431 L58.0221163,11.0314431 C58.9207329,11.0315523 59.6389168,10.7300772 59.6389168,9.83678924 Z" id="Shape"></path>
                        <path d="M22.4212559,0.523705184 L16.4207506,0.523705184 C15.3551876,0.523705184 15,0.359490501 15,0 C15,0.220317353 15.0004332,2.36690665 15.0004332,3.4205774 C15.0004332,4.60523464 15.3907064,5 16.3434323,5 L22.578708,5 L24,5 L24,2.10360935 C24,0.918590932 23.3740901,0.523705184 22.4212559,0.523705184 Z M22.5788163,4.2103489 L17.1327502,4.2103489 C16.6607188,4.2103489 16.4208589,4.08441887 16.4208589,3.55216585 L16.4208589,3.1572801 L22.5789246,3.1572801 L22.5789246,4.2103489 L22.5788163,4.2103489 Z M22.5788163,2.36702704 L16.4207506,2.36702704 L16.4207506,1.31407864 L21.947167,1.31407864 C22.418657,1.31407864 22.5788163,1.43940671 22.5788163,1.97226168 L22.5788163,2.36702704 Z" id="Shape"></path>
                        <path d="M24.2204841,5.37560223 L15.6865695,5.37560223 C15.3031353,5.36805991 15.1512016,5.32349167 15.0566244,5.12567724 C14.9881627,4.98340171 14.7897336,5.00065761 14.7897336,5.00065761 C14.5820299,6.13554788 14.3151391,6.56625994 13.1880229,7.12576278 C13.1393309,7.14541852 12.8922098,7.36368862 13.0545165,7.37580204 C13.3683908,7.3974005 13.8573854,7.31603489 14.1219575,7.25078241 C14.7398212,7.098679 15.4185805,6.76293159 15.9341788,6.12572001 L17.8218177,6.12572001 C17.0583661,7.12576278 15.4567775,8.60439989 13.3214073,9.62455551 C13.1977857,9.68432266 12.9477358,9.87459477 13.0545165,9.87459477 C13.2767424,9.87459477 13.1021102,9.87459477 13.7216824,9.87459477 C15.1302115,9.87459477 18.9263574,7.62561275 19.4235284,6.12572001 L21.2920078,6.12572001 C20.3945617,8.12534844 18.5644013,9.73220495 16.1239433,10.7496179 C15.9973929,10.8024141 15.750882,11 15.8570526,11 C16.1239433,11 16.2573277,11 16.3908341,11 C18.0220773,11 22.1489383,9.08950806 22.8937185,6.12572001 L23.5984712,6.12572001 C24.133351,6.12743418 24.3984113,6.36970256 24.3984113,6.8758378 L24.3984113,8.12534844 C24.3984113,9.22652683 23.7754221,10.6247126 21.5959972,10.6247126 C21.4712774,10.6247126 21.3297167,11 21.3297167,11 L22.6633162,11 C25.8126761,11 25.9976813,9.41211356 25.9999999,8.00032881 L25.9999999,7.00085743 C26.000244,5.87590931 25.2948811,5.37560223 24.2204841,5.37560223 Z" id="Shape"></path>
                    </g>
                    <path d="M10.5105999,4.03236498 C9.89879374,3.64992659 9.15034817,3.44011363 8.37830534,3.40299844 L8.20660709,2.79425145 L8.2123004,2.80011175 C8.20450955,2.78187972 8.19949045,2.76415414 8.19237381,2.74700736 L8.14173332,2.56678526 C8.02494554,2.04644912 8.23792029,1.79843573 8.34759143,1.70908434 C8.36684381,1.69569972 8.38609618,1.68195336 8.40669698,1.66885813 C8.90950617,1.34596322 9.62596432,1.86318835 9.66656661,1.8937921 C9.9848676,2.18890488 10.5660347,2.26197767 10.8793915,1.95962996 C11.1970183,1.65424358 11.121507,1.08319057 10.8053036,0.778310635 C10.3110343,0.302686355 8.79623926,-0.460309333 7.50647975,0.367656024 C6.34774129,1.1116962 6.32421893,2.15895227 6.51509465,2.7640818 L6.74664757,3.58285879 C6.35852861,3.6901528 5.9881638,3.84367801 5.64843798,4.04386851 C4.37927927,4.79275609 3.74327658,6.05611952 3.90208997,7.51120858 C4.06592247,9.00341284 5.22466093,10.0877841 6.65825143,10.0877841 C8.17948895,10.0877841 9.41800867,8.89488889 9.41800867,7.42894743 C9.39800717,7.07884918 9.40160295,7.08311779 9.35395893,6.76999003 C9.30556579,6.4649654 8.83826488,5.03027883 8.83826488,5.03027883 C9.12457845,5.09423561 9.3938121,5.19863565 9.62603923,5.34362364 C12.2433139,6.98219052 11.1543934,9.59031034 11.104502,9.70411578 C10.384523,11.3702477 8.81189586,12.3648335 6.79286826,12.433276 C5.47599061,12.4779878 4.21402345,12.0040276 3.24046739,11.0983591 C2.21274998,10.1438548 1.62446622,8.80618865 1.62446622,7.42894743 C1.62446622,5.35483778 2.97835038,3.47100678 4.99460625,2.74244936 C5.41411332,2.59094993 5.75376422,2.15880757 5.52161201,1.65670345 C5.33860205,1.26225508 4.84425791,1.12660015 4.42415154,1.27889542 C1.7775863,2.23499138 0,4.70673277 0,7.42894743 C0,9.2283468 0.769870388,10.975727 2.11236793,12.2233183 C3.35013853,13.3738892 4.94336645,14 6.61914738,14 C6.69608198,14 6.77226746,13.9987701 6.84845294,13.9960208 C9.49142241,13.9064524 11.6429693,12.5269683 12.6008687,10.3127181 C13.1991158,8.96767228 13.5331483,5.92422675 10.5105999,4.03236498 Z M7.99409017,7.72506267 C7.99409017,8.42800565 7.3279418,9 6.51032491,9 C5.60141595,9 5.10004341,8.28964166 5.02010169,7.62950557 C4.86569774,6.37175841 5.63037892,5.68743812 6.30014767,5.33529251 C6.57089275,5.19296804 6.86952448,5.08097917 7.18107214,5 C7.18107214,5 7.9029938,6.97215025 7.95964772,7.27794982 C8.02109619,7.61568603 7.99409017,7.72506267 7.99409017,7.72506267 Z" id="Shape"></path>
                </g>
            </g>
        </g>
    </g>
</svg>