<?xml version="1.0" encoding="UTF-8"?>
<svg width="23px" height="25px" viewBox="0 0 23 25" version="1.1" xmlns="http://www.w3.org/2000/svg" xmlns:xlink="http://www.w3.org/1999/xlink">
    <!-- Generator: Sketch 50.2 (55047) - http://www.bohemiancoding.com/sketch -->
    <title>Shape</title>
    <desc>Created with Sketch.</desc>
    <defs></defs>
    <g id="Page-1" stroke="none" stroke-width="1" fill="none" fill-rule="evenodd">
        <g id="Listen-Memo-(Desktop-HD)" transform="translate(-1163.000000, -371.000000)" fill="#FFFFFF" fill-rule="nonzero">
            <g id="Perfect-Places" transform="translate(208.000000, 183.000000)">
                <g id="NCM" transform="translate(941.000000, 175.000000)">
                    <path d="M32.5956767,20.2006517 C31.5132505,19.5177261 30.1890775,19.1430601 28.8231556,19.0767829 L28.5193818,17.9897347 C28.5156707,17.9676424 28.5067908,17.9359895 28.4941998,17.9053703 L28.4046051,17.5835451 C28.1979806,16.6543734 28.5747821,16.2114924 28.7688156,16.0519363 C28.8028775,16.0280352 28.8369394,16.0034881 28.873387,15.9801038 C29.7629725,15.4035058 31.0305523,16.327122 31.1023871,16.3817716 C31.665535,16.9087587 32.6937537,17.0392458 33.2481542,16.4993392 C33.8101093,15.9540064 33.6765124,14.9342689 33.1170755,14.3898404 C32.2425992,13.5405113 29.5625772,12.178019 27.2806949,13.6565286 C25.2306192,14.9851718 25.1890027,16.8552719 25.5267059,17.9358603 L25.9363765,19.3979621 C25.2497045,19.5895586 24.5944436,19.8637107 23.9933903,20.2211938 C21.7479556,21.558493 20.6227201,23.8144991 20.9036976,26.4128725 C21.1935551,29.0775229 23.2436309,31.0139002 25.7799833,31.0139002 C28.4714035,31.0139002 30.6626307,28.8837302 30.6626307,26.2659776 C30.6272435,25.6408021 30.6336052,25.6484246 30.5493119,25.0892679 C30.4636933,24.5445811 29.6369302,21.9826408 29.6369302,21.9826408 C30.143485,22.0968493 30.6198214,22.2832779 31.0306848,22.5421851 C35.6612476,25.4681974 33.734696,30.1255542 33.6464266,30.3287782 C32.3726176,33.3040138 29.5902773,35.0800599 26.0181515,35.2022785 C23.6882911,35.2821211 21.4555799,34.4357636 19.7331346,32.8184984 C17.9148653,31.1140264 16.8740556,28.7253369 16.8740556,26.2659776 C16.8740556,22.5622103 19.2693891,19.1982264 22.8366111,17.897231 C23.5788159,17.6266963 24.1797367,16.8550135 23.7690059,15.958399 C23.445219,15.2540269 22.5706101,15.011786 21.827345,15.2837418 C17.1449604,16.991056 14,21.40488 14,26.2659776 C14,29.4791907 15.3620784,32.5995125 17.7372663,34.8273541 C19.9271682,36.881945 22.745956,38 25.7107992,38 C25.8469143,38 25.981704,37.9978037 26.1164937,37.9928943 C30.7925166,37.8329506 34.5990995,35.3695863 36.2938447,31.415568 C37.3522818,29.0137005 37.9432624,23.5789763 32.5956767,20.2006517 Z M27.9901503,26.7688597 C27.9901503,27.9990099 27.1426781,28.7218227 25.7799833,28.7218227 C24.265135,28.7218227 23.4543522,27.4212157 23.321116,26.2659776 C23.063776,24.06492 24.0506315,23.2030167 25.1669128,22.5867619 C25.6181546,22.3376941 26.1158741,22.1417135 26.6351202,22 C26.6351202,22 27.838323,25.4512629 27.9327462,25.9864122 C28.0351603,26.5774505 27.9901503,26.7688597 27.9901503,26.7688597 Z" id="Shape"></path>
                </g>
            </g>
        </g>
    </g>
</svg>