<?xml version="1.0" encoding="UTF-8"?>
<svg width="80px" height="94px" viewBox="0 0 80 94" version="1.1" xmlns="http://www.w3.org/2000/svg" xmlns:xlink="http://www.w3.org/1999/xlink">
    <!-- Generator: Sketch 53.2 (72643) - https://sketchapp.com -->
    <title>SOY Name Artist</title>
    <desc>Created with Sketch.</desc>
    <g id="Page-1" stroke="none" stroke-width="1" fill="none" fill-rule="evenodd">
        <g id="Music-Index-(2019)" transform="translate(-367.000000, -301.000000)" fill-rule="nonzero">
            <g id="Song" transform="translate(146.000000, 268.000000)">
                <g id="SOY-Name-Artist" transform="translate(220.000000, 14.000000)">
                    <path d="M21.088,84.808 C21.1733338,84.615999 21.311999,84.4666672 21.504,84.36 C21.696001,84.2533328 22.1653296,84.2 22.912,84.2 C23.0826675,84.2 23.3333317,84.1946667 23.664,84.184 C23.9946683,84.1733333 24.3519981,84.1626667 24.736,84.152 C25.1200019,84.1413333 25.5039981,84.1253334 25.888,84.104 C26.2720019,84.0826666 26.6026653,84.0613334 26.88,84.04 C26.9226669,84.1466672 26.944,84.2533328 26.944,84.36 L26.944,84.616 C26.944,84.957335 26.8266678,85.1599997 26.592,85.224 C26.1653312,85.2880003 25.8293346,85.3519997 25.584,85.416 C25.3386654,85.4800003 25.1520006,85.5599995 25.024,85.656 C24.8959994,85.7520005 24.8106669,85.8639994 24.768,85.992 C24.7253331,86.1200006 24.704,86.2693325 24.704,86.44 C24.704,86.4826669 24.7199998,86.8879962 24.752,87.656 C24.7840002,88.4240038 24.8319997,89.3733277 24.896,90.504 C24.9600003,91.6346723 25.0239997,92.8613267 25.088,94.184 C25.1520003,95.5066733 25.2159997,96.7599941 25.28,97.944 C25.3440003,99.1280059 25.3973331,100.157329 25.44,101.032 C25.4826669,101.906671 25.5146666,102.439999 25.536,102.632 C25.536,102.845334 25.5626664,103.021333 25.616,103.16 C25.6693336,103.298667 25.7653326,103.421333 25.904,103.528 C26.0426674,103.634667 26.2399987,103.725333 26.496,103.8 C26.7520013,103.874667 27.0826646,103.944 27.488,104.008 C27.7226678,104.050667 27.84,104.253332 27.84,104.616 C27.84,104.765334 27.8186669,104.946666 27.776,105.16 C27.0293296,105.117333 26.352003,105.08 25.744,105.048 C25.135997,105.016 24.4480038,105 23.68,105 C22.9759965,105 22.224004,105.016 21.424,105.048 C20.623996,105.08 19.957336,105.117333 19.424,105.16 C19.3813331,104.946666 19.36,104.765334 19.36,104.616 C19.36,104.381332 19.397333,104.221334 19.472,104.136 C19.546667,104.050666 19.6159997,104.008 19.68,104.008 C20.554671,103.858666 21.1199987,103.682668 21.376,103.48 C21.6320013,103.277332 21.76,102.962669 21.76,102.536 C21.76,102.472 21.7440002,102.13067 21.712,101.512 C21.6799998,100.89333 21.6480002,100.125338 21.616,99.208 C21.5839998,98.2906621 21.5413336,97.298672 21.488,96.232 C21.4346664,95.165328 21.3813336,94.1626714 21.328,93.224 C21.2746664,92.2853286 21.2320002,91.4746701 21.2,90.792 C21.1679998,90.1093299 21.1413334,89.6933341 21.12,89.544 L14.56,104.808 C14.4533328,105.000001 14.362667,105.144 14.288,105.24 C14.213333,105.336 14.1120006,105.384 13.984,105.384 L13.792,105.384 C13.7066662,105.384 13.6426669,105.373333 13.6,105.352 L6.176,87.56 C6.15466656,87.8373347 6.12800016,88.3973291 6.096,89.24 C6.06399984,90.0826709 6.0213336,91.0479946 5.968,92.136 C5.9146664,93.2240054 5.8613336,94.3706606 5.808,95.576 C5.7546664,96.7813394 5.70666688,97.8959949 5.664,98.92 C5.62133312,99.9440051 5.58400016,100.802663 5.552,101.496 C5.51999984,102.189337 5.504,102.568 5.504,102.632 C5.504,102.824001 5.52533312,102.989333 5.568,103.128 C5.61066688,103.266667 5.69599936,103.389333 5.824,103.496 C5.95200064,103.602667 6.14399872,103.693333 6.4,103.768 C6.65600128,103.842667 7.00799776,103.922666 7.456,104.008 C7.69066784,104.050667 7.808,104.253332 7.808,104.616 C7.808,104.68 7.80266672,104.76 7.792,104.856 C7.78133328,104.952 7.76533344,105.053333 7.744,105.16 C7.16799712,105.117333 6.63466912,105.08 6.144,105.048 C5.65333088,105.016 5.16266912,105 4.672,105 C4.2453312,105 3.7120032,105.016 3.072,105.048 C2.4319968,105.08 1.85600256,105.117333 1.344,105.16 C1.30133312,105.074666 1.28,104.978667 1.28,104.872 L1.28,104.616 C1.28,104.381332 1.31199968,104.226667 1.376,104.152 C1.44000032,104.077333 1.5253328,104.029333 1.632,104.008 C2.29333664,103.858666 2.77333184,103.688001 3.072,103.496 C3.37066816,103.303999 3.54133312,103.016002 3.584,102.632 C3.584,102.461332 3.60533312,101.944004 3.648,101.08 C3.69066688,100.215996 3.74399968,99.1920059 3.808,98.008 C3.87200032,96.8239941 3.93599968,95.56534 4,94.232 C4.06400032,92.89866 4.1226664,91.661339 4.176,90.52 C4.2293336,89.378661 4.27199984,88.4240038 4.304,87.656 C4.33600016,86.8879962 4.352,86.4826669 4.352,86.44 C4.352,86.0773315 4.23466784,85.8160008 4,85.656 C3.76533216,85.4959992 3.25333728,85.3520006 2.464,85.224 C2.22933216,85.2026666 2.112,85.0000019 2.112,84.616 L2.112,84.36 C2.112,84.2533328 2.13333312,84.1466672 2.176,84.04 C2.45333472,84.0613334 2.83733088,84.0826666 3.328,84.104 C3.81866912,84.1253334 4.31999744,84.1413333 4.832,84.152 C5.34400256,84.1626667 5.82399776,84.1733333 6.272,84.184 C6.72000224,84.1946667 7.03999904,84.2 7.232,84.2 C7.61600192,84.2 7.9146656,84.2159998 8.128,84.248 C8.3413344,84.2800002 8.51199936,84.3173331 8.64,84.36 C8.76800064,84.4026669 8.8586664,84.4666662 8.912,84.552 C8.9653336,84.6373338 9.01333312,84.7226662 9.056,84.808 L15.008,99.176 L21.088,84.808 Z M43.744,104.008 C44.0640016,104.008 44.224,104.274664 44.224,104.808 C43.9466653,105.000001 43.6000021,105.144 43.184,105.24 C42.7679979,105.336 42.3466688,105.384 41.92,105.384 C40.9599952,105.384 40.2240026,105.149336 39.712,104.68 C39.1999974,104.210664 38.9013338,103.66667 38.816,103.048 C38.3893312,103.901338 37.8186702,104.503998 37.104,104.856 C36.3893298,105.208002 35.5520048,105.384 34.592,105.384 C34.1439978,105.384 33.6480027,105.346667 33.104,105.272 C32.5599973,105.197333 32.058669,105.042668 31.6,104.808 C31.141331,104.573332 30.7520016,104.242669 30.432,103.816 C30.1119984,103.389331 29.952,102.824004 29.952,102.12 C29.952,101.330663 30.1546646,100.658669 30.56,100.104 C30.9653354,99.5493306 31.471997,99.0853352 32.08,98.712 C32.688003,98.3386648 33.354663,98.0400011 34.08,97.816 C34.805337,97.5919989 35.4879968,97.4053341 36.128,97.256 C36.4053347,97.1919997 36.6933318,97.122667 36.992,97.048 L37.696,96.872 C37.9306678,96.8079997 38.0799997,96.7173339 38.144,96.6 C38.2080003,96.4826661 38.24,96.1786691 38.24,95.688 C38.24,94.5999946 38.0800016,93.7626696 37.76,93.176 C37.4399984,92.5893304 36.8960038,92.296 36.128,92.296 C35.5093302,92.296 35.066668,92.4879981 34.8,92.872 C34.533332,93.2560019 34.2826678,93.8639958 34.048,94.696 C33.9839997,94.9306678 33.7973349,95.1066661 33.488,95.224 C33.1786651,95.3413339 32.7893357,95.4639994 32.32,95.592 C32.0639987,95.6560003 31.802668,95.7093331 31.536,95.752 C31.269332,95.7946669 31.0293344,95.816 30.816,95.816 C30.6879994,95.816 30.6026669,95.7680005 30.56,95.672 C30.5173331,95.5759995 30.496,95.3893347 30.496,95.112 C30.496,94.578664 30.6933314,94.0560026 31.088,93.544 C31.4826686,93.0319974 31.9786637,92.5786686 32.576,92.184 C33.1733363,91.7893314 33.8293298,91.4746678 34.544,91.24 C35.2586702,91.0053322 35.9466634,90.888 36.608,90.888 C37.3973373,90.888 38.1119968,90.9573326 38.752,91.096 C39.3920032,91.2346674 39.941331,91.4799982 40.4,91.832 C40.858669,92.1840018 41.2159987,92.6533304 41.472,93.24 C41.7280013,93.8266696 41.856,94.5786621 41.856,95.496 L41.856,101.128 C41.856,101.87467 41.8719998,102.418665 41.904,102.76 C41.9360002,103.101335 41.9946662,103.357332 42.08,103.528 C42.272001,103.912002 42.5706646,104.104 42.976,104.104 C43.1466675,104.104 43.2906661,104.088 43.408,104.056 C43.5253339,104.024 43.6373328,104.008 43.744,104.008 Z M38.24,98.024 L37.536,98.152 C37.0453309,98.2373338 36.5866688,98.3599992 36.16,98.52 C35.7333312,98.6800008 35.3653349,98.893332 35.056,99.16 C34.7466651,99.426668 34.5013342,99.7573314 34.32,100.152 C34.1386658,100.546669 34.048,101.021331 34.048,101.576 C34.048,102.408004 34.181332,102.989332 34.448,103.32 C34.714668,103.650668 35.1039974,103.816 35.616,103.816 C36.4266707,103.816 37.0666643,103.517336 37.536,102.92 C38.0053357,102.322664 38.24,101.490672 38.24,100.424 L38.24,98.024 Z M47.552,94.568 C47.552,93.9279968 47.4346678,93.4533349 47.2,93.144 C46.9653322,92.8346651 46.4213376,92.6266672 45.568,92.52 C45.2693318,92.4559997 45.12,92.2746682 45.12,91.976 C45.12,91.8053325 45.1413331,91.6346675 45.184,91.464 C45.3333341,91.464 45.5306654,91.4586667 45.776,91.448 C46.0213346,91.4373333 46.2879986,91.4266667 46.576,91.416 C46.8640014,91.4053333 47.1519986,91.3893334 47.44,91.368 C47.7280014,91.3466666 47.9893322,91.3253334 48.224,91.304 C48.757336,91.2399997 49.2799974,91.1546672 49.792,91.048 C50.3040026,90.9413328 50.6453325,90.888 50.816,90.888 C51.1786685,90.888 51.36,91.0479984 51.36,91.368 C51.36,91.6026678 51.3280003,91.9119981 51.264,92.296 C51.1999997,92.6800019 51.168,93.2133299 51.168,93.896 L51.168,101.8 C51.168,103.22934 51.0933341,104.418662 50.944,105.368 C50.7946659,106.317338 50.5013355,107.175996 50.064,107.944 C49.6266645,108.712004 49.0026707,109.45333 48.192,110.168 C47.3813293,110.88267 46.3146733,111.719995 44.992,112.68 C44.8639994,112.573333 44.7520005,112.461334 44.656,112.344 C44.5599995,112.226666 44.512,112.093334 44.512,111.944 C44.512,111.837333 44.5386664,111.741334 44.592,111.656 C44.6453336,111.570666 44.6933331,111.496 44.736,111.432 C45.3120029,110.855997 45.7813315,110.333336 46.144,109.864 C46.5066685,109.394664 46.7946656,108.925336 47.008,108.456 C47.2213344,107.986664 47.365333,107.480003 47.44,106.936 C47.514667,106.391997 47.552,105.74667 47.552,105 L47.552,94.568 Z M46.976,86.216 C46.976,85.5333299 47.1946645,84.9733355 47.632,84.536 C48.0693355,84.0986645 48.6293299,83.88 49.312,83.88 C49.9733366,83.88 50.5226645,84.0986645 50.96,84.536 C51.3973355,84.9733355 51.616,85.5333299 51.616,86.216 C51.616,86.8986701 51.3973355,87.4586645 50.96,87.896 C50.5226645,88.3333355 49.9733366,88.552 49.312,88.552 C48.6293299,88.552 48.0693355,88.3333355 47.632,87.896 C47.1946645,87.4586645 46.976,86.8986701 46.976,86.216 Z M58.752,105 C57.9199958,105 57.2053363,105.016 56.608,105.048 C56.0106637,105.08 55.4346694,105.117333 54.88,105.16 C54.8373331,104.946666 54.816,104.744001 54.816,104.552 C54.816,104.402666 54.853333,104.301334 54.928,104.248 C55.002667,104.194666 55.0826662,104.157333 55.168,104.136 C55.8506701,104.007999 56.3199987,103.869334 56.576,103.72 C56.8320013,103.570666 56.96,103.336002 56.96,103.016 L56.96,94.568 C56.96,93.9279968 56.8533344,93.437335 56.64,93.096 C56.4266656,92.754665 55.9253373,92.5520003 55.136,92.488 C54.8586653,92.4453331 54.72,92.2746682 54.72,91.976 L54.72,91.736 C54.72,91.6399995 54.7413331,91.5493338 54.784,91.464 C54.9120006,91.464 55.0986654,91.4586667 55.344,91.448 C55.5893346,91.4373333 55.8506653,91.4266667 56.128,91.416 C56.4053347,91.4053333 56.6826653,91.3893334 56.96,91.368 C57.2373347,91.3466666 57.4933322,91.3253334 57.728,91.304 C58.261336,91.2399997 58.7733309,91.1546672 59.264,91.048 C59.7546691,90.9413328 60.0853325,90.888 60.256,90.888 C60.597335,90.888 60.768,91.0479984 60.768,91.368 C60.768,91.6026678 60.7360003,91.9119981 60.672,92.296 C60.6079997,92.6800019 60.576,93.2133299 60.576,93.896 L60.576,103.016 C60.576,103.336002 60.7146653,103.570666 60.992,103.72 C61.2693347,103.869334 61.7279968,104.007999 62.368,104.136 C62.6026678,104.178667 62.72,104.317332 62.72,104.552 L62.72,104.872 C62.72,104.978667 62.6986669,105.074666 62.656,105.16 C62.122664,105.117333 61.5466698,105.08 60.928,105.048 C60.3093302,105.016 59.5840042,105 58.752,105 Z M56.416,86.216 C56.416,85.5333299 56.6346645,84.9733355 57.072,84.536 C57.5093355,84.0986645 58.0586634,83.88 58.72,83.88 C59.4026701,83.88 59.9573312,84.0986645 60.384,84.536 C60.8106688,84.9733355 61.024,85.5333299 61.024,86.216 C61.024,86.8986701 60.8106688,87.4586645 60.384,87.896 C59.9573312,88.3333355 59.4026701,88.552 58.72,88.552 C58.0586634,88.552 57.5093355,88.3333355 57.072,87.896 C56.6346645,87.4586645 56.416,86.8986701 56.416,86.216 Z M70.24,103.016 C70.24,103.314668 70.3199992,103.533333 70.48,103.672 C70.6400008,103.810667 71.0293302,103.965332 71.648,104.136 C71.7333338,104.157333 71.813333,104.194666 71.888,104.248 C71.962667,104.301334 72,104.402666 72,104.552 C72,104.680001 71.9946667,104.792 71.984,104.888 C71.9733333,104.984 71.9573334,105.074666 71.936,105.16 C71.3599971,105.117333 70.805336,105.08 70.272,105.048 C69.738664,105.016 69.1200035,105 68.416,105 C67.5839958,105 66.8693363,105.016 66.272,105.048 C65.6746637,105.08 65.0986694,105.117333 64.544,105.16 C64.5226666,105.074666 64.5066667,104.984 64.496,104.888 C64.4853333,104.792 64.48,104.680001 64.48,104.552 C64.48,104.402666 64.517333,104.301334 64.592,104.248 C64.666667,104.194666 64.7466662,104.157333 64.832,104.136 C65.3866694,104.029333 65.8239984,103.896001 66.144,103.736 C66.4640016,103.575999 66.624,103.336002 66.624,103.016 L66.624,86.248 C66.624,85.6079968 66.5066678,85.1226683 66.272,84.792 C66.0373322,84.4613317 65.5466704,84.2640003 64.8,84.2 C64.5226653,84.1359997 64.384,83.9653347 64.384,83.688 L64.384,83.432 C64.384,83.3253328 64.4053331,83.2400003 64.448,83.176 C64.5760006,83.176 64.7626654,83.1706667 65.008,83.16 C65.2533346,83.1493333 65.5146653,83.1386667 65.792,83.128 C66.0693347,83.1173333 66.3466653,83.1013334 66.624,83.08 C66.9013347,83.0586666 67.1573322,83.0373334 67.392,83.016 C67.925336,82.9519997 68.4373309,82.8666672 68.928,82.76 C69.4186691,82.6533328 69.7493325,82.6 69.92,82.6 C70.261335,82.6 70.432,82.7599984 70.432,83.08 C70.432,83.3146678 70.4000003,83.6186648 70.336,83.992 C70.2719997,84.3653352 70.24,84.8933299 70.24,85.576 L70.24,97.064 L74.912,93.128 C75.0826675,92.9999994 75.168,92.8613341 75.168,92.712 C75.168,92.4133318 74.805337,92.2320003 74.08,92.168 C73.8239987,92.1466666 73.696,91.9866682 73.696,91.688 C73.696,91.5173325 73.7173331,91.3466675 73.76,91.176 C74.7840051,91.2400003 75.8186614,91.272 76.864,91.272 C77.3546691,91.272 77.829331,91.2666667 78.288,91.256 C78.746669,91.2453333 79.242664,91.2186669 79.776,91.176 C79.7973334,91.2826672 79.8186666,91.3786662 79.84,91.464 C79.8613334,91.5493338 79.872,91.6239997 79.872,91.688 C79.872,91.9866682 79.7226682,92.1573331 79.424,92.2 C78.8479971,92.2640003 78.4106682,92.3546661 78.112,92.472 C77.8133318,92.5893339 77.5573344,92.7333325 77.344,92.904 L73.6,96.168 L78.464,102.856 C78.7840016,103.304002 79.1093317,103.613332 79.44,103.784 C79.7706683,103.954668 80.1386646,104.072 80.544,104.136 C80.7786678,104.178667 80.896,104.317332 80.896,104.552 C80.896,104.616 80.8906667,104.711999 80.88,104.84 C80.8693333,104.968001 80.8426669,105.074666 80.8,105.16 C79.9893293,105.138667 79.1680042,105.122667 78.336,105.112 C77.5039958,105.101333 76.6186714,105.096 75.68,105.096 L70.4,97.896 L70.24,97.896 L70.24,103.016 Z" id="Majik" fill="#4A4A4A"></path>
                    <polygon id="X" fill="#000000" points="20.9345703 56.0439453 24.4179688 55.3642578 35.3212891 40.2128906 24.7011719 25.4580078 21.2460938 24.75 21.2460938 19.765625 37.0771484 19.765625 37.0771484 24.75 33.7070312 25.1181641 40.0791016 35.2285156 46.4794922 25.1181641 43.1660156 24.75 43.1660156 19.765625 59.0537109 19.765625 59.0537109 24.75 55.5986328 25.4580078 44.9785156 40.2128906 56.1083984 55.3359375 59.7617188 56.0439453 59.7617188 61 43.5341797 61 43.5341797 56.0439453 46.8193359 55.7041016 40.1923828 45.2822266 33.5371094 55.7041016 36.8505859 56.0439453 36.8505859 61 20.9345703 61"></polygon>
                </g>
            </g>
        </g>
    </g>
</svg>