<?xml version="1.0" encoding="UTF-8"?>
<svg width="406px" height="68px" viewBox="0 0 406 68" version="1.1" xmlns="http://www.w3.org/2000/svg" xmlns:xlink="http://www.w3.org/1999/xlink">
    <!-- Generator: Sketch 53.2 (72643) - https://sketchapp.com -->
    <title>SOY Title</title>
    <desc>Created with Sketch.</desc>
    <g id="Page-1" stroke="none" stroke-width="1" fill="none" fill-rule="evenodd">
        <g id="Music-Index-(2019)" transform="translate(-203.000000, -141.000000)" fill-rule="nonzero">
            <g id="SOY-Title" transform="translate(202.000000, 125.000000)">
                <path d="M189.232,71.288 C189.087999,71.3360002 188.936001,71.36 188.776,71.36 C188.551999,71.36 188.392,71.3160004 188.296,71.228 C188.2,71.1399996 188.136,71.0480005 188.104,70.952 C187.735998,70.0399954 187.260003,69.384002 186.676,68.984 C186.091997,68.583998 185.312005,68.384 184.336,68.384 C183.567996,68.384 182.916003,68.5719981 182.38,68.948 C181.843997,69.3240019 181.576,69.8959962 181.576,70.664 C181.576,71.256003 181.779998,71.7319982 182.188,72.092 C182.596002,72.4520018 183.107997,72.7679986 183.724,73.04 C184.340003,73.3120014 185.003996,73.5759987 185.716,73.832 C186.428004,74.0880013 187.091997,74.4079981 187.708,74.792 C188.324003,75.1760019 188.835998,75.663997 189.244,76.256 C189.652002,76.848003 189.856,77.6079954 189.856,78.536 C189.856,79.144003 189.752001,79.7359971 189.544,80.312 C189.335999,80.8880029 189.008002,81.3959978 188.56,81.836 C188.111998,82.2760022 187.544003,82.6279987 186.856,82.892 C186.167997,83.1560013 185.344005,83.288 184.384,83.288 C183.327995,83.288 182.384004,83.1720012 181.552,82.94 C180.719996,82.7079988 180.032003,82.4560014 179.488,82.184 C179.44,81.4959966 179.364001,80.8200033 179.26,80.156 C179.155999,79.4919967 179.040001,78.8480031 178.912,78.224 C179.072001,78.1599997 179.255999,78.128 179.464,78.128 C179.656001,78.128 179.8,78.1639996 179.896,78.236 C179.992,78.3080004 180.072,78.4319991 180.136,78.608 C180.344001,79.216003 180.575999,79.7399978 180.832,80.18 C181.088001,80.6200022 181.383998,80.9799986 181.72,81.26 C182.056002,81.5400014 182.443998,81.7439994 182.884,81.872 C183.324002,82.0000006 183.831997,82.064 184.408,82.064 C184.904002,82.064 185.327998,81.9960007 185.68,81.86 C186.032002,81.7239993 186.319999,81.5440011 186.544,81.32 C186.768001,81.0959989 186.935999,80.8320015 187.048,80.528 C187.160001,80.2239985 187.216,79.9120016 187.216,79.592 C187.216,78.9039966 187.020002,78.364002 186.628,77.972 C186.235998,77.579998 185.748003,77.2520013 185.164,76.988 C184.579997,76.7239987 183.948003,76.4760012 183.268,76.244 C182.587997,76.0119988 181.956003,75.7160018 181.372,75.356 C180.787997,74.9959982 180.300002,74.5320028 179.908,73.964 C179.515998,73.3959972 179.32,72.6320048 179.32,71.672 C179.32,71.0319968 179.435999,70.4360028 179.668,69.884 C179.900001,69.3319972 180.239998,68.852002 180.688,68.444 C181.136002,68.035998 181.675997,67.7120012 182.308,67.472 C182.940003,67.2319988 183.663996,67.112 184.48,67.112 C185.152003,67.112 185.827997,67.1839993 186.508,67.328 C187.188003,67.4720007 187.959996,67.7119983 188.824,68.048 C188.856,68.5280024 188.908,69.067997 188.98,69.668 C189.052,70.268003 189.136,70.8079976 189.232,71.288 Z M191.632,75.2 C191.632,74.0799944 191.843998,73.0320049 192.268,72.056 C192.692002,71.0799951 193.271996,70.2240037 194.008,69.488 C194.744004,68.7519963 195.603995,68.1720021 196.588,67.748 C197.572005,67.3239979 198.623994,67.112 199.744,67.112 C200.896006,67.112 201.967995,67.311998 202.96,67.712 C203.952005,68.112002 204.811996,68.6719964 205.54,69.392 C206.268004,70.1120036 206.839998,70.967995 207.256,71.96 C207.672002,72.952005 207.88,74.0319942 207.88,75.2 C207.88,76.3200056 207.668002,77.3719951 207.244,78.356 C206.819998,79.3400049 206.240004,80.1959964 205.504,80.924 C204.767996,81.6520036 203.904005,82.2279979 202.912,82.652 C201.919995,83.0760021 200.864006,83.288 199.744,83.288 C198.591994,83.288 197.520005,83.088002 196.528,82.688 C195.535995,82.287998 194.680004,81.7280036 193.96,81.008 C193.239996,80.2879964 192.672002,79.4360049 192.256,78.452 C191.839998,77.4679951 191.632,76.3840059 191.632,75.2 Z M200.104,82.04 C200.776003,82.04 201.383997,81.8920015 201.928,81.596 C202.472003,81.2999985 202.939998,80.8960026 203.332,80.384 C203.724002,79.8719974 204.027999,79.2720034 204.244,78.584 C204.460001,77.8959966 204.568,77.1600039 204.568,76.376 C204.568,75.2399943 204.460001,74.1840049 204.244,73.208 C204.027999,72.2319951 203.700002,71.3880036 203.26,70.676 C202.819998,69.9639964 202.268003,69.404002 201.604,68.996 C200.939997,68.587998 200.168004,68.384 199.288,68.384 C198.727997,68.384 198.184003,68.5079988 197.656,68.756 C197.127997,69.0040012 196.664002,69.3639976 196.264,69.836 C195.863998,70.3080024 195.544001,70.8799966 195.304,71.552 C195.063999,72.2240034 194.944,72.9839958 194.944,73.832 C194.944,75.0160059 195.059999,76.111995 195.292,77.12 C195.524001,78.128005 195.859998,78.9959964 196.3,79.724 C196.740002,80.4520036 197.279997,81.019998 197.92,81.428 C198.560003,81.836002 199.287996,82.04 200.104,82.04 Z M222.064,77.768 L222.064,69.248 C222.064,68.8959982 221.944001,68.6480007 221.704,68.504 C221.463999,68.3599993 221.040003,68.2480004 220.432,68.168 C220.223999,68.1199998 220.12,67.9680013 220.12,67.712 L220.12,67.52 C220.12,67.4399996 220.136,67.3600004 220.168,67.28 C220.568002,67.3280002 220.959998,67.3599999 221.344,67.376 C221.728002,67.3920001 222.175997,67.4 222.688,67.4 C223.200003,67.4 223.639998,67.3920001 224.008,67.376 C224.376002,67.3599999 224.743998,67.3280002 225.112,67.28 C225.128,67.3600004 225.14,67.4399996 225.148,67.52 C225.156,67.6000004 225.16,67.6639998 225.16,67.712 C225.16,67.9840014 225.064001,68.1359998 224.872,68.168 C224.343997,68.2480004 223.984001,68.3599993 223.792,68.504 C223.599999,68.6480007 223.504,68.8799984 223.504,69.2 L223.504,83.24 C223.44,83.2560001 223.332001,83.268 223.18,83.276 C223.027999,83.284 222.928,83.288 222.88,83.288 C222.767999,83.288 222.648001,83.2600003 222.52,83.204 C222.391999,83.1479997 222.256001,83.0320009 222.112,82.856 L212.656,70.856 L212.656,81.224 C212.656,81.3840008 212.668,81.5159995 212.692,81.62 C212.716,81.7240005 212.779999,81.8119996 212.884,81.884 C212.988001,81.9560004 213.139999,82.0199997 213.34,82.076 C213.540001,82.1320003 213.807998,82.1919997 214.144,82.256 C214.224,82.2720001 214.292,82.3079997 214.348,82.364 C214.404,82.4200003 214.432,82.5359991 214.432,82.712 C214.432,82.8240006 214.416,82.9599992 214.384,83.12 C213.983998,83.0879998 213.608002,83.0600001 213.256,83.036 C212.903998,83.0119999 212.496002,83 212.032,83 C211.567998,83 211.124002,83.0119999 210.7,83.036 C210.275998,83.0600001 209.888002,83.0879998 209.536,83.12 C209.504,83.0559997 209.488,82.9840004 209.488,82.904 L209.488,82.712 C209.488,82.5519992 209.516,82.4400003 209.572,82.376 C209.628,82.3119997 209.696,82.2720001 209.776,82.256 C210.352003,82.1599995 210.735999,82.0400007 210.928,81.896 C211.120001,81.7519993 211.216,81.5280015 211.216,81.224 L211.216,69.08 C211.216,68.8239987 211.132001,68.6280007 210.964,68.492 C210.795999,68.3559993 210.416003,68.2480004 209.824,68.168 C209.631999,68.1199998 209.536,67.9680013 209.536,67.712 L209.536,67.604 C209.536,67.5639998 209.544,67.5200002 209.56,67.472 L209.584,67.28 C209.808001,67.2960001 210.023999,67.308 210.232,67.316 C210.440001,67.324 210.647999,67.3359999 210.856,67.352 C211.208002,67.3680001 211.563998,67.38 211.924,67.388 C212.284002,67.396 212.575999,67.4 212.8,67.4 C213.264002,67.4 213.567999,67.4199998 213.712,67.46 C213.856001,67.5000002 213.983999,67.5759994 214.096,67.688 L222.064,77.768 Z M239.656,82.88 C239.271998,82.9440003 238.912002,82.9999998 238.576,83.048 C238.239998,83.0960002 237.892002,83.1399998 237.532,83.18 C237.171998,83.2200002 236.780002,83.2479999 236.356,83.264 C235.931998,83.2800001 235.440003,83.288 234.88,83.288 C233.439993,83.288 232.196005,83.0960019 231.148,82.712 C230.099995,82.3279981 229.240003,81.7800036 228.568,81.068 C227.895997,80.3559964 227.396002,79.504005 227.068,78.512 C226.739998,77.519995 226.576,76.4160061 226.576,75.2 C226.576,74.2559953 226.735998,73.3040048 227.056,72.344 C227.376002,71.3839952 227.867997,70.5160039 228.532,69.74 C229.196003,68.9639961 230.027995,68.3320024 231.028,67.844 C232.028005,67.3559976 233.199993,67.112 234.544,67.112 C235.472005,67.112 236.419995,67.1799993 237.388,67.316 C238.356005,67.4520007 239.271996,67.6319989 240.136,67.856 C240.168,68.2880022 240.232,68.8399966 240.328,69.512 C240.424,70.1840034 240.559999,70.8399968 240.736,71.48 C240.656,71.4960001 240.560001,71.5159999 240.448,71.54 C240.335999,71.5640001 240.248,71.576 240.184,71.576 C240.055999,71.576 239.948,71.5560002 239.86,71.516 C239.772,71.4759998 239.712,71.3920006 239.68,71.264 C239.343998,70.1599945 238.792004,69.404002 238.024,68.996 C237.255996,68.587998 236.304006,68.384 235.168,68.384 C234.303996,68.384 233.540003,68.5319985 232.876,68.828 C232.211997,69.1240015 231.660002,69.5479972 231.22,70.1 C230.779998,70.6520028 230.444001,71.3159961 230.212,72.092 C229.979999,72.8680039 229.864,73.7439951 229.864,74.72 C229.864,75.7920054 229.991999,76.7759955 230.248,77.672 C230.504001,78.5680045 230.879998,79.3399968 231.376,79.988 C231.872002,80.6360032 232.483996,81.1399982 233.212,81.5 C233.940004,81.8600018 234.775995,82.04 235.72,82.04 C236.056002,82.04 236.355999,82.0240002 236.62,81.992 C236.884001,81.9599998 237.159999,81.9040004 237.448,81.824 L237.448,78.368 C237.448,77.9359978 237.328001,77.6360008 237.088,77.468 C236.847999,77.2999992 236.424003,77.1760004 235.816,77.096 C235.687999,77.0639998 235.6,76.9960005 235.552,76.892 C235.504,76.7879995 235.48,76.6880005 235.48,76.592 C235.48,76.5439998 235.484,76.4720005 235.492,76.376 C235.5,76.2799995 235.512,76.2080002 235.528,76.16 C235.768001,76.1760001 236.035999,76.1919999 236.332,76.208 C236.628001,76.2240001 236.931998,76.236 237.244,76.244 C237.556002,76.252 237.855999,76.26 238.144,76.268 C238.432001,76.276 238.679999,76.28 238.888,76.28 C239.096001,76.28 239.339999,76.276 239.62,76.268 C239.900001,76.26 240.187999,76.252 240.484,76.244 C240.780001,76.236 241.067999,76.2240001 241.348,76.208 C241.628001,76.1919999 241.863999,76.1760001 242.056,76.16 C242.088,76.2400004 242.104,76.3199996 242.104,76.4 L242.104,76.592 C242.104,76.7360007 242.076,76.8439996 242.02,76.916 C241.964,76.9880004 241.896,77.0399998 241.816,77.072 C241.303997,77.1360003 240.948001,77.2399993 240.748,77.384 C240.547999,77.5280007 240.448,77.7679983 240.448,78.104 L240.448,82.28 C240.448,82.4240007 240.408,82.5439995 240.328,82.64 C240.248,82.7360005 240.024002,82.8159997 239.656,82.88 Z M248.416,75.2 C248.416,74.0799944 248.627998,73.0320049 249.052,72.056 C249.476002,71.0799951 250.055996,70.2240037 250.792,69.488 C251.528004,68.7519963 252.387995,68.1720021 253.372,67.748 C254.356005,67.3239979 255.407994,67.112 256.528,67.112 C257.680006,67.112 258.751995,67.311998 259.744,67.712 C260.736005,68.112002 261.595996,68.6719964 262.324,69.392 C263.052004,70.1120036 263.623998,70.967995 264.04,71.96 C264.456002,72.952005 264.664,74.0319942 264.664,75.2 C264.664,76.3200056 264.452002,77.3719951 264.028,78.356 C263.603998,79.3400049 263.024004,80.1959964 262.288,80.924 C261.551996,81.6520036 260.688005,82.2279979 259.696,82.652 C258.703995,83.0760021 257.648006,83.288 256.528,83.288 C255.375994,83.288 254.304005,83.088002 253.312,82.688 C252.319995,82.287998 251.464004,81.7280036 250.744,81.008 C250.023996,80.2879964 249.456002,79.4360049 249.04,78.452 C248.623998,77.4679951 248.416,76.3840059 248.416,75.2 Z M256.888,82.04 C257.560003,82.04 258.167997,81.8920015 258.712,81.596 C259.256003,81.2999985 259.723998,80.8960026 260.116,80.384 C260.508002,79.8719974 260.811999,79.2720034 261.028,78.584 C261.244001,77.8959966 261.352,77.1600039 261.352,76.376 C261.352,75.2399943 261.244001,74.1840049 261.028,73.208 C260.811999,72.2319951 260.484002,71.3880036 260.044,70.676 C259.603998,69.9639964 259.052003,69.404002 258.388,68.996 C257.723997,68.587998 256.952004,68.384 256.072,68.384 C255.511997,68.384 254.968003,68.5079988 254.44,68.756 C253.911997,69.0040012 253.448002,69.3639976 253.048,69.836 C252.647998,70.3080024 252.328001,70.8799966 252.088,71.552 C251.847999,72.2240034 251.728,72.9839958 251.728,73.832 C251.728,75.0160059 251.843999,76.111995 252.076,77.12 C252.308001,78.128005 252.643998,78.9959964 253.084,79.724 C253.524002,80.4520036 254.063997,81.019998 254.704,81.428 C255.344003,81.836002 256.071996,82.04 256.888,82.04 Z M268.456,69.2 C268.456,69.0559993 268.436,68.9320005 268.396,68.828 C268.356,68.7239995 268.272001,68.6320004 268.144,68.552 C268.015999,68.4719996 267.840001,68.4040003 267.616,68.348 C267.391999,68.2919997 267.104002,68.2320003 266.752,68.168 C266.591999,68.1199998 266.512,67.9760012 266.512,67.736 L266.512,67.508 C266.512,67.4359996 266.528,67.3600004 266.56,67.28 C267.248003,67.3280002 267.855997,67.3599999 268.384,67.376 C268.912003,67.3920001 269.359998,67.4 269.728,67.4 L274.648,67.4 C275.384004,67.4 276.011997,67.3760002 276.532,67.328 C277.052003,67.2799998 277.399999,67.256 277.576,67.256 C277.752001,67.256 277.88,67.3279993 277.96,67.472 C278.008,67.6000006 278.048,67.8359983 278.08,68.18 C278.112,68.5240017 278.168,68.8799982 278.248,69.248 C278.296,69.5200014 278.352,69.7839987 278.416,70.04 C278.48,70.2960013 278.575999,70.6079982 278.704,70.976 C278.64,71.0080002 278.556001,71.0399998 278.452,71.072 C278.347999,71.1040002 278.248,71.12 278.152,71.12 C277.975999,71.12 277.856,71.0480007 277.792,70.904 C277.599999,70.4879979 277.412001,70.1320015 277.228,69.836 C277.043999,69.5399985 276.836001,69.3000009 276.604,69.116 C276.371999,68.9319991 276.100002,68.8000004 275.788,68.72 C275.475998,68.6399996 275.096002,68.6 274.648,68.6 L271.48,68.6 L271.48,74.672 L274.792,74.672 C275.064001,74.672 275.259999,74.5400013 275.38,74.276 C275.500001,74.0119987 275.6,73.6160026 275.68,73.088 C275.728,72.879999 275.879999,72.776 276.136,72.776 C276.184,72.776 276.259999,72.78 276.364,72.788 C276.468001,72.796 276.544,72.8079999 276.592,72.824 C276.56,73.1920018 276.532,73.6199976 276.508,74.108 C276.484,74.5960024 276.472,75.0079983 276.472,75.344 C276.472,75.6320014 276.48,75.971998 276.496,76.364 C276.512,76.756002 276.544,77.1999975 276.592,77.696 C276.544,77.7280002 276.472,77.748 276.376,77.756 C276.28,77.764 276.208,77.768 276.16,77.768 C275.887999,77.768 275.728,77.6560011 275.68,77.432 C275.616,76.9199974 275.520001,76.5320013 275.392,76.268 C275.263999,76.0039987 275.064001,75.872 274.792,75.872 L271.48,75.872 L271.48,81.248 C271.48,81.4080008 271.535999,81.5399995 271.648,81.644 C271.760001,81.7480005 271.911999,81.8359996 272.104,81.908 C272.296001,81.9800004 272.519999,82.0359998 272.776,82.076 C273.032001,82.1160002 273.303999,82.1599998 273.592,82.208 C273.784001,82.2240001 273.88,82.3599987 273.88,82.616 C273.88,82.6640002 273.876,82.7439994 273.868,82.856 C273.86,82.9680006 273.848,83.0559997 273.832,83.12 C273.607999,83.12 273.384001,83.116 273.16,83.108 C272.935999,83.1 272.712001,83.0880001 272.488,83.072 C272.071998,83.0399998 271.628002,83.02 271.156,83.012 C270.683998,83.004 270.216002,83 269.752,83 C269.527999,83 269.284001,83.004 269.02,83.012 C268.755999,83.02 268.480001,83.0319999 268.192,83.048 C267.903999,83.0640001 267.620001,83.076 267.34,83.084 C267.059999,83.092 266.800001,83.1039999 266.56,83.12 C266.528,83.0559997 266.512,82.9720005 266.512,82.868 L266.512,82.64 C266.512,82.3999988 266.591999,82.2720001 266.752,82.256 C267.280003,82.1279994 267.695998,82.0040006 268,81.884 C268.304002,81.7639994 268.456,81.5440016 268.456,81.224 L268.456,69.2 Z M293.848,68.6 L293.848,81.224 C293.848,81.3840008 293.86,81.5159995 293.884,81.62 C293.908,81.7240005 293.968,81.8159996 294.064,81.896 C294.16,81.9760004 294.295999,82.0439997 294.472,82.1 C294.648001,82.1560003 294.895998,82.2079998 295.216,82.256 C295.456001,82.3040002 295.576,82.4399989 295.576,82.664 C295.576,82.7120002 295.572,82.7839995 295.564,82.88 C295.556,82.9760005 295.544,83.0559997 295.528,83.12 C295.015997,83.0879998 294.468003,83.0600001 293.884,83.036 C293.299997,83.0119999 292.784002,83 292.336,83 C291.871998,83 291.356003,83.0119999 290.788,83.036 C290.219997,83.0600001 289.680003,83.0879998 289.168,83.12 C289.136,83.0559997 289.116,82.9760005 289.108,82.88 C289.1,82.7839995 289.096,82.7120002 289.096,82.664 C289.096,82.5519994 289.116,82.4600004 289.156,82.388 C289.196,82.3159996 289.303999,82.2640002 289.48,82.232 C290.072003,82.1519996 290.443999,82.0440007 290.596,81.908 C290.748001,81.7719993 290.824,81.5440016 290.824,81.224 L290.824,68.6 L288.712,68.6 C288.263998,68.6 287.884002,68.6439996 287.572,68.732 C287.259998,68.8200004 286.988001,68.9559991 286.756,69.14 C286.523999,69.3240009 286.316001,69.5639985 286.132,69.86 C285.947999,70.1560015 285.760001,70.5119979 285.568,70.928 C285.504,71.0720007 285.384001,71.144 285.208,71.144 C285.112,71.144 285.000001,71.1240002 284.872,71.084 C284.743999,71.0439998 284.648,71.0080002 284.584,70.976 C284.696001,70.5919981 284.792,70.2520015 284.872,69.956 C284.952,69.6599985 285.016,69.3680014 285.064,69.08 C285.128,68.7119982 285.176,68.3840014 285.208,68.096 C285.24,67.8079986 285.28,67.6000006 285.328,67.472 C285.392,67.3279993 285.519999,67.256 285.712,67.256 C285.888001,67.256 286.235997,67.2799998 286.756,67.328 C287.276003,67.3760002 287.903996,67.4 288.64,67.4 L296.032,67.4 C296.752004,67.4 297.371997,67.3760002 297.892,67.328 C298.412003,67.2799998 298.767999,67.256 298.96,67.256 C299.136001,67.256 299.264,67.3279993 299.344,67.472 C299.392,67.6000006 299.428,67.8079986 299.452,68.096 C299.476,68.3840014 299.528,68.7119982 299.608,69.08 C299.656,69.3680014 299.716,69.6599985 299.788,69.956 C299.86,70.2520015 299.959999,70.5919981 300.088,70.976 C300.008,71.0080002 299.908001,71.0439998 299.788,71.084 C299.667999,71.1240002 299.56,71.144 299.464,71.144 C299.287999,71.144 299.16,71.0720007 299.08,70.928 C298.887999,70.5119979 298.700001,70.1560015 298.516,69.86 C298.331999,69.5639985 298.124001,69.3240009 297.892,69.14 C297.659999,68.9559991 297.388002,68.8200004 297.076,68.732 C296.763998,68.6439996 296.392002,68.6 295.96,68.6 L293.848,68.6 Z M315.544,81.224 C315.544,81.3840008 315.556,81.5159995 315.58,81.62 C315.604,81.7240005 315.667999,81.8159996 315.772,81.896 C315.876001,81.9760004 316.027999,82.0439997 316.228,82.1 C316.428001,82.1560003 316.695998,82.2079998 317.032,82.256 C317.192001,82.2880002 317.272,82.4239988 317.272,82.664 C317.272,82.7120002 317.268,82.7839995 317.26,82.88 C317.252,82.9760005 317.24,83.0559997 317.224,83.12 C316.711997,83.0879998 316.168003,83.0600001 315.592,83.036 C315.015997,83.0119999 314.504002,83 314.056,83 C313.591998,83 313.068003,83.0119999 312.484,83.036 C311.899997,83.0600001 311.352003,83.0879998 310.84,83.12 C310.808,83.0559997 310.792,82.9760005 310.792,82.88 L310.792,82.664 C310.792,82.4079987 310.871999,82.2720001 311.032,82.256 C311.368002,82.2079998 311.635999,82.1560003 311.836,82.1 C312.036001,82.0439997 312.184,81.9760004 312.28,81.896 C312.376,81.8159996 312.44,81.7240005 312.472,81.62 C312.504,81.5159995 312.52,81.3840008 312.52,81.224 L312.52,75.584 L306.04,75.584 L306.04,81.224 C306.04,81.3840008 306.052,81.5159995 306.076,81.62 C306.1,81.7240005 306.163999,81.8159996 306.268,81.896 C306.372001,81.9760004 306.523999,82.0439997 306.724,82.1 C306.924001,82.1560003 307.191998,82.2079998 307.528,82.256 C307.688001,82.2880002 307.768,82.4239988 307.768,82.664 C307.768,82.7120002 307.764,82.7839995 307.756,82.88 C307.748,82.9760005 307.736,83.0559997 307.72,83.12 C307.207997,83.0879998 306.656003,83.0600001 306.064,83.036 C305.471997,83.0119999 304.952002,83 304.504,83 C304.055998,83 303.544003,83.0119999 302.968,83.036 C302.391997,83.0600001 301.848003,83.0879998 301.336,83.12 C301.304,83.0559997 301.288,82.9760005 301.288,82.88 L301.288,82.664 C301.288,82.4079987 301.367999,82.2720001 301.528,82.256 C301.864002,82.2079998 302.131999,82.1560003 302.332,82.1 C302.532001,82.0439997 302.68,81.9760004 302.776,81.896 C302.872,81.8159996 302.936,81.7240005 302.968,81.62 C303,81.5159995 303.016,81.3840008 303.016,81.224 L303.016,69.2 C303.016,69.0399992 303,68.9080005 302.968,68.804 C302.936,68.6999995 302.872,68.6080004 302.776,68.528 C302.68,68.4479996 302.532001,68.3800003 302.332,68.324 C302.131999,68.2679997 301.864002,68.2160002 301.528,68.168 C301.367999,68.1199998 301.288,67.9840011 301.288,67.76 L301.288,67.544 C301.288,67.4479995 301.304,67.3600004 301.336,67.28 C301.848003,67.3120002 302.391997,67.3399999 302.968,67.364 C303.544003,67.3880001 304.055998,67.4 304.504,67.4 C304.952002,67.4 305.471997,67.3880001 306.064,67.364 C306.656003,67.3399999 307.207997,67.3120002 307.72,67.28 C307.736,67.3600004 307.748,67.4479995 307.756,67.544 C307.764,67.6400005 307.768,67.7119998 307.768,67.76 C307.768,67.9840011 307.688001,68.1199998 307.528,68.168 C307.191998,68.2160002 306.924001,68.2679997 306.724,68.324 C306.523999,68.3800003 306.372001,68.4479996 306.268,68.528 C306.163999,68.6080004 306.1,68.6999995 306.076,68.804 C306.052,68.9080005 306.04,69.0399992 306.04,69.2 L306.04,74.312 L312.52,74.312 L312.52,69.2 C312.52,69.0399992 312.504,68.9080005 312.472,68.804 C312.44,68.6999995 312.376,68.6080004 312.28,68.528 C312.184,68.4479996 312.036001,68.3800003 311.836,68.324 C311.635999,68.2679997 311.368002,68.2160002 311.032,68.168 C310.871999,68.1199998 310.792,67.9840011 310.792,67.76 L310.792,67.544 C310.792,67.4479995 310.808,67.3600004 310.84,67.28 C311.352003,67.3120002 311.899997,67.3399999 312.484,67.364 C313.068003,67.3880001 313.591998,67.4 314.056,67.4 C314.504002,67.4 315.015997,67.3880001 315.592,67.364 C316.168003,67.3399999 316.711997,67.3120002 317.224,67.28 C317.24,67.3600004 317.252,67.4479995 317.26,67.544 C317.268,67.6400005 317.272,67.7119998 317.272,67.76 C317.272,67.9840011 317.192001,68.1199998 317.032,68.168 C316.695998,68.2160002 316.428001,68.2679997 316.228,68.324 C316.027999,68.3800003 315.876001,68.4479996 315.772,68.528 C315.667999,68.6080004 315.604,68.6999995 315.58,68.804 C315.556,68.9080005 315.544,69.0399992 315.544,69.2 L315.544,81.224 Z M323.944,81.224 C323.944,81.3840008 323.956,81.5159995 323.98,81.62 C324.004,81.7240005 324.067999,81.8159996 324.172,81.896 C324.276001,81.9760004 324.427999,82.0439997 324.628,82.1 C324.828001,82.1560003 325.095998,82.2079998 325.432,82.256 C325.592001,82.2880002 325.672,82.4239988 325.672,82.664 C325.672,82.7120002 325.668,82.7839995 325.66,82.88 C325.652,82.9760005 325.64,83.0559997 325.624,83.12 C325.111997,83.0879998 324.564003,83.0600001 323.98,83.036 C323.395997,83.0119999 322.880002,83 322.432,83 C321.967998,83 321.448003,83.0119999 320.872,83.036 C320.295997,83.0600001 319.752003,83.0879998 319.24,83.12 C319.208,83.0559997 319.192,82.9760005 319.192,82.88 L319.192,82.664 C319.192,82.4079987 319.271999,82.2720001 319.432,82.256 C319.768002,82.2079998 320.035999,82.1560003 320.236,82.1 C320.436001,82.0439997 320.584,81.9760004 320.68,81.896 C320.776,81.8159996 320.84,81.7240005 320.872,81.62 C320.904,81.5159995 320.92,81.3840008 320.92,81.224 L320.92,69.2 C320.92,69.0399992 320.904,68.9080005 320.872,68.804 C320.84,68.6999995 320.776,68.6080004 320.68,68.528 C320.584,68.4479996 320.436001,68.3800003 320.236,68.324 C320.035999,68.2679997 319.768002,68.2160002 319.432,68.168 C319.271999,68.1199998 319.192,67.9840011 319.192,67.76 L319.192,67.544 C319.192,67.4479995 319.208,67.3600004 319.24,67.28 C319.752003,67.3120002 320.295997,67.3399999 320.872,67.364 C321.448003,67.3880001 321.967998,67.4 322.432,67.4 C322.880002,67.4 323.395997,67.3880001 323.98,67.364 C324.564003,67.3399999 325.111997,67.3120002 325.624,67.28 C325.64,67.3600004 325.652,67.4479995 325.66,67.544 C325.668,67.6400005 325.672,67.7119998 325.672,67.76 C325.672,67.9840011 325.592001,68.1199998 325.432,68.168 C325.095998,68.2160002 324.828001,68.2679997 324.628,68.324 C324.427999,68.3800003 324.276001,68.4479996 324.172,68.528 C324.067999,68.6080004 324.004,68.6999995 323.98,68.804 C323.956,68.9080005 323.944,69.0399992 323.944,69.2 L323.944,81.224 Z M337.864,71.288 C337.719999,71.3360002 337.568001,71.36 337.408,71.36 C337.183999,71.36 337.024,71.3160004 336.928,71.228 C336.832,71.1399996 336.768,71.0480005 336.736,70.952 C336.367998,70.0399954 335.892003,69.384002 335.308,68.984 C334.723997,68.583998 333.944005,68.384 332.968,68.384 C332.199996,68.384 331.548003,68.5719981 331.012,68.948 C330.475997,69.3240019 330.208,69.8959962 330.208,70.664 C330.208,71.256003 330.411998,71.7319982 330.82,72.092 C331.228002,72.4520018 331.739997,72.7679986 332.356,73.04 C332.972003,73.3120014 333.635996,73.5759987 334.348,73.832 C335.060004,74.0880013 335.723997,74.4079981 336.34,74.792 C336.956003,75.1760019 337.467998,75.663997 337.876,76.256 C338.284002,76.848003 338.488,77.6079954 338.488,78.536 C338.488,79.144003 338.384001,79.7359971 338.176,80.312 C337.967999,80.8880029 337.640002,81.3959978 337.192,81.836 C336.743998,82.2760022 336.176003,82.6279987 335.488,82.892 C334.799997,83.1560013 333.976005,83.288 333.016,83.288 C331.959995,83.288 331.016004,83.1720012 330.184,82.94 C329.351996,82.7079988 328.664003,82.4560014 328.12,82.184 C328.072,81.4959966 327.996001,80.8200033 327.892,80.156 C327.787999,79.4919967 327.672001,78.8480031 327.544,78.224 C327.704001,78.1599997 327.887999,78.128 328.096,78.128 C328.288001,78.128 328.432,78.1639996 328.528,78.236 C328.624,78.3080004 328.704,78.4319991 328.768,78.608 C328.976001,79.216003 329.207999,79.7399978 329.464,80.18 C329.720001,80.6200022 330.015998,80.9799986 330.352,81.26 C330.688002,81.5400014 331.075998,81.7439994 331.516,81.872 C331.956002,82.0000006 332.463997,82.064 333.04,82.064 C333.536002,82.064 333.959998,81.9960007 334.312,81.86 C334.664002,81.7239993 334.951999,81.5440011 335.176,81.32 C335.400001,81.0959989 335.567999,80.8320015 335.68,80.528 C335.792001,80.2239985 335.848,79.9120016 335.848,79.592 C335.848,78.9039966 335.652002,78.364002 335.26,77.972 C334.867998,77.579998 334.380003,77.2520013 333.796,76.988 C333.211997,76.7239987 332.580003,76.4760012 331.9,76.244 C331.219997,76.0119988 330.588003,75.7160018 330.004,75.356 C329.419997,74.9959982 328.932002,74.5320028 328.54,73.964 C328.147998,73.3959972 327.952,72.6320048 327.952,71.672 C327.952,71.0319968 328.067999,70.4360028 328.3,69.884 C328.532001,69.3319972 328.871998,68.852002 329.32,68.444 C329.768002,68.035998 330.307997,67.7120012 330.94,67.472 C331.572003,67.2319988 332.295996,67.112 333.112,67.112 C333.784003,67.112 334.459997,67.1839993 335.14,67.328 C335.820003,67.4720007 336.591996,67.7119983 337.456,68.048 C337.488,68.5280024 337.54,69.067997 337.612,69.668 C337.684,70.268003 337.768,70.8079976 337.864,71.288 Z M350.392,76.424 L346.576,69.152 C346.399999,68.8159983 346.180001,68.5840006 345.916,68.456 C345.651999,68.3279994 345.312002,68.2320003 344.896,68.168 C344.703999,68.1519999 344.608,67.9920015 344.608,67.688 L344.608,67.58 C344.608,67.5399998 344.616,67.4960002 344.632,67.448 L344.656,67.28 C345.008002,67.3120002 345.459997,67.3399999 346.012,67.364 C346.564003,67.3880001 347.167997,67.4 347.824,67.4 C348.048001,67.4 348.315998,67.396 348.628,67.388 C348.940002,67.38 349.255998,67.372 349.576,67.364 C349.896002,67.356 350.195999,67.3440001 350.476,67.328 C350.756001,67.3119999 350.983999,67.2960001 351.16,67.28 C351.192,67.4240007 351.208,67.5239997 351.208,67.58 L351.208,67.712 C351.208,67.9840014 351.112001,68.1359998 350.92,68.168 C350.503998,68.2160002 350.216001,68.2839996 350.056,68.372 C349.895999,68.4600004 349.816,68.5759993 349.816,68.72 C349.816,68.8480006 349.871999,69.015999 349.984,69.224 L352.792,74.792 L355.552,69.608 C355.728001,69.3039985 355.816,69.048001 355.816,68.84 C355.816,68.647999 355.728001,68.5080004 355.552,68.42 C355.375999,68.3319996 355.072002,68.2480004 354.64,68.168 C354.431999,68.1359998 354.328,67.9840014 354.328,67.712 C354.328,67.6479997 354.352,67.5040011 354.4,67.28 C354.736002,67.3120002 355.155997,67.3399999 355.66,67.364 C356.164003,67.3880001 356.607998,67.4 356.992,67.4 C357.360002,67.4 357.747998,67.3920001 358.156,67.376 C358.564002,67.3599999 358.975998,67.3280002 359.392,67.28 C359.424,67.3920006 359.44,67.4839996 359.44,67.556 L359.44,67.712 C359.44,68.0000014 359.344001,68.1519999 359.152,68.168 C358.575997,68.2480004 358.176001,68.3519994 357.952,68.48 C357.727999,68.6080006 357.536001,68.8079986 357.376,69.08 L353.416,76.376 L353.416,81.152 C353.416,81.3280009 353.44,81.4719994 353.488,81.584 C353.536,81.6960006 353.623999,81.7919996 353.752,81.872 C353.880001,81.9520004 354.051999,82.0199997 354.268,82.076 C354.484001,82.1320003 354.767998,82.1839998 355.12,82.232 C355.2,82.2480001 355.268,82.2839997 355.324,82.34 C355.38,82.3960003 355.408,82.5119991 355.408,82.688 C355.408,82.7200002 355.404,82.7559998 355.396,82.796 C355.388,82.8360002 355.384,82.8799998 355.384,82.928 L355.36,83.096 C355.103999,83.096 354.864001,83.092 354.64,83.084 C354.415999,83.076 354.192001,83.0640001 353.968,83.048 C353.583998,83.0159998 353.188002,82.996 352.78,82.988 C352.371998,82.98 352.032001,82.976 351.76,82.976 C351.471999,82.976 351.140002,82.98 350.764,82.988 C350.387998,82.996 350.024002,83.0159998 349.672,83.048 C349.463999,83.0640001 349.260001,83.076 349.06,83.084 C348.859999,83.092 348.656001,83.096 348.448,83.096 L348.424,82.928 C348.408,82.8799998 348.4,82.8360002 348.4,82.796 L348.4,82.688 C348.4,82.5119991 348.428,82.3960003 348.484,82.34 C348.54,82.2839997 348.608,82.2480001 348.688,82.232 C349.024002,82.1679997 349.303999,82.1080003 349.528,82.052 C349.752001,81.9959997 349.927999,81.9320004 350.056,81.86 C350.184001,81.7879996 350.272,81.6960006 350.32,81.584 C350.368,81.4719994 350.392,81.3280009 350.392,81.152 L350.392,76.424 Z M365.464,68.6 L365.464,74.384 L368.848,74.384 C369.152002,74.384 369.359999,74.2600012 369.472,74.012 C369.584001,73.7639988 369.68,73.3600028 369.76,72.8 C369.776,72.6719994 369.824,72.5880002 369.904,72.548 C369.984,72.5079998 370.087999,72.488 370.216,72.488 C370.264,72.488 370.339999,72.492 370.444,72.5 C370.548001,72.508 370.624,72.5199999 370.672,72.536 C370.64,72.9040018 370.612,73.3319976 370.588,73.82 C370.564,74.3080024 370.552,74.7199983 370.552,75.056 C370.552,75.3440014 370.56,75.683998 370.576,76.076 C370.592,76.468002 370.624,76.9119975 370.672,77.408 C370.624,77.4400002 370.548001,77.46 370.444,77.468 C370.339999,77.476 370.264,77.48 370.216,77.48 C369.927999,77.48 369.776,77.3680011 369.76,77.144 C369.664,76.535997 369.556001,76.1240011 369.436,75.908 C369.315999,75.6919989 369.120001,75.584 368.848,75.584 L365.464,75.584 L365.464,80.96 C365.464,81.2960017 365.671998,81.5199994 366.088,81.632 C366.504002,81.7440006 367.207995,81.8 368.2,81.8 L369.208,81.8 C369.688002,81.8 370.091998,81.7360006 370.42,81.608 C370.748002,81.4799994 371.039999,81.3000012 371.296,81.068 C371.552001,80.8359988 371.775999,80.5640016 371.968,80.252 C372.160001,79.9399984 372.351999,79.5920019 372.544,79.208 C372.592,79.0959994 372.703999,79.04 372.88,79.04 C372.96,79.04 373.055999,79.0639998 373.168,79.112 L373.504,79.256 C373.472,79.3840006 373.436,79.5039994 373.396,79.616 C373.356,79.7280006 373.32,79.8399994 373.288,79.952 C373.208,80.1280009 373.144,80.319999 373.096,80.528 C373.048,80.736001 373,80.9039994 372.952,81.032 L372.844,81.572 C372.804,81.772001 372.764,81.9639991 372.724,82.148 C372.684,82.3320009 372.644,82.4959993 372.604,82.64 C372.564,82.7840007 372.536,82.8799998 372.52,82.928 C372.456,83.0560006 372.328001,83.12 372.136,83.12 C372.007999,83.12 371.824001,83.1120001 371.584,83.096 C371.343999,83.0799999 371.084001,83.068 370.804,83.06 C370.523999,83.052 370.240001,83.0400001 369.952,83.024 C369.663999,83.0079999 369.416001,83 369.208,83 L363.76,83 C363.295998,83 362.764003,83.0119999 362.164,83.036 C361.563997,83.0600001 361.024002,83.0879998 360.544,83.12 C360.512,83.0559997 360.496,82.9720005 360.496,82.868 L360.496,82.64 C360.496,82.3999988 360.575999,82.2720001 360.736,82.256 C361.344003,82.1439994 361.779999,82.0240006 362.044,81.896 C362.308001,81.7679994 362.44,81.5440016 362.44,81.224 L362.44,69.2 C362.44,69.0399992 362.416,68.9080005 362.368,68.804 C362.32,68.6999995 362.228001,68.6120004 362.092,68.54 C361.955999,68.4679996 361.780001,68.4040003 361.564,68.348 C361.347999,68.2919997 361.072002,68.2320003 360.736,68.168 C360.575999,68.1199998 360.496,67.9760012 360.496,67.736 L360.496,67.508 C360.496,67.4359996 360.512,67.3600004 360.544,67.28 C361.232003,67.3280002 361.839997,67.3599999 362.368,67.376 C362.896003,67.3920001 363.351998,67.4 363.736,67.4 L368.656,67.4 C369.376004,67.4 369.995997,67.3760002 370.516,67.328 C371.036003,67.2799998 371.391999,67.256 371.584,67.256 C371.760001,67.256 371.888,67.3279993 371.968,67.472 C372.016,67.6000006 372.056,67.8359983 372.088,68.18 C372.12,68.5240017 372.176,68.8799982 372.256,69.248 C372.304,69.5200014 372.36,69.7839987 372.424,70.04 C372.488,70.2960013 372.583999,70.6079982 372.712,70.976 C372.632,71.0080002 372.544,71.0399998 372.448,71.072 C372.352,71.1040002 372.256,71.12 372.16,71.12 C371.983999,71.12 371.856,71.0480007 371.776,70.904 C371.583999,70.4879979 371.396001,70.1320015 371.212,69.836 C371.027999,69.5399985 370.820001,69.3000009 370.588,69.116 C370.355999,68.9319991 370.084002,68.8000004 369.772,68.72 C369.459998,68.6399996 369.088002,68.6 368.656,68.6 L365.464,68.6 Z M384.064,77.72 L379.024,77.72 L377.776,81.056 C377.728,81.1360004 377.696,81.2239995 377.68,81.32 C377.664,81.4160005 377.656,81.4879998 377.656,81.536 C377.656,81.7120009 377.739999,81.8559994 377.908,81.968 C378.076001,82.0800006 378.415997,82.1759996 378.928,82.256 C379.152001,82.2880002 379.264,82.4399986 379.264,82.712 C379.264,82.8240006 379.248,82.9599992 379.216,83.12 C378.783998,83.0879998 378.328002,83.0600001 377.848,83.036 C377.367998,83.0119999 376.896002,83 376.432,83 C376.111998,83 375.776002,83.0079999 375.424,83.024 C375.071998,83.0400001 374.680002,83.0719998 374.248,83.12 C374.216,83.0559997 374.2,82.9840004 374.2,82.904 L374.2,82.712 C374.2,82.4079985 374.303999,82.2480001 374.512,82.232 C375.008002,82.1359995 375.363999,82.0320006 375.58,81.92 C375.796001,81.8079994 375.967999,81.6160014 376.096,81.344 L381.88,67.52 C382.008001,67.2479986 382.199999,67.112 382.456,67.112 C382.536,67.112 382.616,67.116 382.696,67.124 C382.776,67.132 382.864,67.1439999 382.96,67.16 L388.744,81.416 C388.84,81.6560012 389.023999,81.8359994 389.296,81.956 C389.568001,82.0760006 389.863998,82.1599998 390.184,82.208 C390.424001,82.2560002 390.544,82.4159986 390.544,82.688 C390.544,82.8160006 390.528,82.9599992 390.496,83.12 C389.983997,83.0879998 389.480002,83.0600001 388.984,83.036 C388.487998,83.0119999 388.024002,83 387.592,83 C387.367999,83 387.096002,83.004 386.776,83.012 C386.455998,83.02 386.128002,83.0319999 385.792,83.048 C385.455998,83.0640001 385.124002,83.076 384.796,83.084 C384.467998,83.092 384.192001,83.1039999 383.968,83.12 C383.936,83.0559997 383.92,82.9840004 383.92,82.904 L383.92,82.712 C383.92,82.5679993 383.948,82.4600004 384.004,82.388 C384.06,82.3159996 384.12,82.2720001 384.184,82.256 C384.600002,82.1759996 384.907999,82.0840005 385.108,81.98 C385.308001,81.8759995 385.408,81.720001 385.408,81.512 C385.408,81.4159995 385.384,81.2960007 385.336,81.152 L384.064,77.72 Z M383.608,76.52 L381.568,71.12 L379.48,76.52 L383.608,76.52 Z M397.6,76.04 L396.568,76.04 L396.568,81.056 C396.568,81.4240018 396.723998,81.6839992 397.036,81.836 C397.348002,81.9880008 397.879996,82.1119995 398.632,82.208 C398.856001,82.2400002 398.968,82.3999986 398.968,82.688 C398.968,82.8160006 398.952,82.9599992 398.92,83.12 C398.455998,83.0879998 397.876003,83.0600001 397.18,83.036 C396.483997,83.0119999 395.728004,83 394.912,83 C394.335997,83 393.780003,83.0119999 393.244,83.036 C392.707997,83.0600001 392.208002,83.0879998 391.744,83.12 C391.712,83.0559997 391.696,82.9840004 391.696,82.904 L391.696,82.712 C391.696,82.4399986 391.783999,82.2880002 391.96,82.256 C392.296002,82.1919997 392.567999,82.1320003 392.776,82.076 C392.984001,82.0199997 393.143999,81.9560004 393.256,81.884 C393.368001,81.8119996 393.444,81.7240005 393.484,81.62 C393.524,81.5159995 393.544,81.3840008 393.544,81.224 L393.544,69.2 C393.544,68.8799984 393.428001,68.6480007 393.196,68.504 C392.963999,68.3599993 392.520003,68.2480004 391.864,68.168 C391.784,68.1359998 391.72,68.0880003 391.672,68.024 C391.624,67.9599997 391.6,67.8480008 391.6,67.688 L391.6,67.472 C391.6,67.3919996 391.616,67.3280002 391.648,67.28 C392.096002,67.3120002 392.611997,67.3399999 393.196,67.364 C393.780003,67.3880001 394.303998,67.4 394.768,67.4 L398.392,67.4 C399.240004,67.4 399.999997,67.503999 400.672,67.712 C401.344003,67.920001 401.915998,68.2159981 402.388,68.6 C402.860002,68.9840019 403.219999,69.4399974 403.468,69.968 C403.716001,70.4960026 403.84,71.0799968 403.84,71.72 C403.84,72.5680042 403.580003,73.3399965 403.06,74.036 C402.539997,74.7320035 401.824005,75.2559982 400.912,75.608 L404.68,81.104 C404.968001,81.5200021 405.299998,81.8079992 405.676,81.968 C406.052002,82.1280008 406.399998,82.2479996 406.72,82.328 C406.8,82.3440001 406.864,82.3799997 406.912,82.436 C406.96,82.4920003 406.984,82.5919993 406.984,82.736 L406.984,82.952 C406.984,83.0320004 406.968,83.1119996 406.936,83.192 C406.759999,83.1759999 406.512002,83.164 406.192,83.156 C405.871998,83.148 405.540002,83.1360001 405.196,83.12 C404.851998,83.1039999 404.508002,83.092 404.164,83.084 C403.819998,83.076 403.536001,83.072 403.312,83.072 C402.975998,83.072 402.640002,82.9320014 402.304,82.652 C401.967998,82.3719986 401.640002,82.0000023 401.32,81.536 L397.6,76.04 Z M397.288,74.84 C397.784002,74.84 398.231998,74.7920005 398.632,74.696 C399.032002,74.5999995 399.375999,74.4360012 399.664,74.204 C399.952001,73.9719988 400.171999,73.6640019 400.324,73.28 C400.476001,72.8959981 400.552,72.408003 400.552,71.816 C400.552,70.823995 400.312002,70.0400029 399.832,69.464 C399.351998,68.8879971 398.504006,68.6 397.288,68.6 L396.568,68.6 L396.568,74.84 L397.288,74.84 Z" id="SONGOFTHISYEAR" fill="#181818"></path>
                <path d="M190.528,41.376 L196.036,41.376 L196.036,32.412 L190.528,32.412 L190.528,41.376 Z M196.036,24.132 L190.276,24.132 C188.692,26.112 187.036,27.84 185.236,29.316 L191.032,31.404 L196.036,31.404 L196.036,24.132 Z M205.108,41.376 L207.952,37.812 C207.952,37.812 211.156,40.188 213.136,41.808 C213.028,42.204 212.596,42.384 212.056,42.384 L201.76,42.384 L201.76,49.944 C201.724,50.268 200.068,51.384 197.116,51.384 L196.036,51.384 L196.036,42.384 L179.224,42.384 L178.936,41.376 L184.984,41.376 L184.984,29.496 C183.184,30.972 181.276,32.16 179.26,33.204 L178.936,32.916 C182.032,29.172 185.524,22.944 187.432,16.788 L194.56,19.416 C194.38,19.884 193.876,20.172 193.012,20.1 C192.364,21.18 191.716,22.188 191.032,23.124 L204.604,23.124 L207.448,19.596 C207.448,19.596 210.58,21.864 212.596,23.556 C212.524,23.952 212.092,24.132 211.552,24.132 L201.76,24.132 L201.76,31.404 L203.812,31.404 L206.476,28.092 C206.476,28.092 209.5,30.324 211.336,31.836 C211.228,32.232 210.832,32.412 210.292,32.412 L201.76,32.412 L201.76,41.376 L205.108,41.376 Z M223.432,23.448 L223.432,31.944 C223.432,38.208 223,46.308 215.188,51.42 L214.9,51.204 C218.068,45.588 218.212,38.352 218.212,31.944 L218.212,20.424 L224.188,22.44 L232.108,22.44 L231.964,22.368 C231.568,20.496 230.308,18.516 229.12,17.364 L229.336,17.184 C237.4,16.5 237.724,20.964 235.456,22.44 L242.26,22.44 L244.744,19.02 C244.744,19.02 247.552,21.324 249.172,22.872 C249.064,23.268 248.668,23.448 248.164,23.448 L223.432,23.448 Z M232.036,33.96 L236.68,33.96 L236.68,29.208 L232.036,29.208 L232.036,33.96 Z M237.544,35.904 L236.68,35.904 L236.68,34.968 L232.036,34.968 L232.036,35.688 C232.036,35.976 229.84,36.732 228.004,36.732 L227.14,36.732 L227.14,29.208 L223.864,29.208 L223.576,28.2 L227.14,28.2 L227.14,24.24 L233.188,24.744 C233.116,25.176 232.9,25.536 232.036,25.644 L232.036,28.2 L236.68,28.2 L236.68,24.24 L242.764,24.744 C242.692,25.176 242.476,25.5 241.612,25.644 L241.612,28.2 L242.512,28.2 L244.564,24.888 C244.564,24.888 246.904,27.156 248.164,28.632 C248.056,29.028 247.696,29.208 247.192,29.208 L241.612,29.208 L241.612,34.86 C241.612,35.148 239.416,35.904 237.544,35.904 Z M238.3,38.892 L228.184,38.892 C229.696,41.052 231.928,42.564 234.628,43.644 C236.14,42.24 237.364,40.656 238.3,38.892 Z M241.144,35.328 L245.428,39.324 C245.176,39.72 244.816,39.828 243.88,39.9 C242.62,41.844 241.072,43.536 239.236,44.976 C242.404,45.624 245.896,45.876 249.424,45.948 L249.424,46.38 C247.264,47.064 245.968,48.828 245.5,51.384 C241.288,50.628 237.688,49.584 234.7,47.784 C230.452,49.836 225.268,51.024 219.22,51.42 L219.076,50.988 C224.116,49.836 228.508,48.108 231.964,45.768 C230.056,44.004 228.544,41.772 227.392,38.892 L225.052,38.892 L224.728,37.884 L238.264,37.884 L241.144,35.328 Z M256.48,43.392 L258.28,43.392 L258.28,38.496 L256.48,38.496 L256.48,43.392 Z M262.312,38.964 L262.312,44.364 C262.276,44.688 260.332,45.516 259,45.516 L258.28,45.516 L258.28,44.4 L256.48,44.4 L256.48,45.912 C256.48,46.272 254.716,47.136 253.06,47.136 L252.484,47.136 L252.484,35.868 L256.588,37.488 L257.956,37.488 L259.756,35.616 L263.464,38.388 C263.284,38.604 262.888,38.856 262.312,38.964 Z M256.804,29.46 L258.352,29.46 L258.352,24.888 L256.804,24.888 L256.804,29.46 Z M258.028,23.88 L259.828,22.008 L263.536,24.78 C263.356,24.996 262.96,25.248 262.384,25.356 L262.384,30.468 C262.348,30.792 260.404,31.62 259.072,31.62 L258.352,31.62 L258.352,30.468 L256.804,30.468 L256.804,31.44 C256.804,31.8 255.004,32.664 253.384,32.664 L252.808,32.664 L252.808,22.26 L256.912,23.88 L258.028,23.88 Z M268.252,34.428 L268.252,46.524 C268.252,49.26 267.568,50.7 262.78,51.024 C262.708,49.872 262.6,49.008 262.132,48.468 C261.736,48 261.16,47.532 259.576,47.28 L259.576,46.848 C259.576,46.848 262.312,47.028 262.96,47.028 C263.5,47.028 263.608,46.776 263.608,46.416 L263.608,34.428 L251.368,34.428 L251.08,33.42 L265.624,33.42 L266.92,31.764 C266.272,31.908 265.444,32.052 264.4,32.052 L263.536,32.052 L263.536,21.216 L251.512,21.216 L251.224,20.208 L264.436,20.208 L266.776,17.256 C266.776,17.256 269.44,19.236 271.024,20.64 C270.916,21.036 270.556,21.216 270.016,21.216 L268.18,21.216 L268.18,30.468 C268.792,30.972 270.916,32.628 272.284,33.852 C272.176,34.248 271.78,34.428 271.276,34.428 L268.252,34.428 Z M277.864,29.352 L277.828,29.892 C278.368,37.848 280.384,43.104 285.388,45.948 L285.388,46.38 C283.156,46.992 281.824,48.756 281.5,51.636 C278.8,48.54 277.828,42.024 277.432,34.572 C276.604,41.448 274.624,47.856 267.208,51.492 L266.848,51.024 C273.04,45.804 273.364,36.588 273.436,27.264 L279.232,28.596 C279.088,29.064 278.728,29.388 277.864,29.352 Z M282.04,22.656 L285.82,26.292 C285.532,26.616 285.172,26.688 284.416,26.76 C283.264,28.704 281.248,31.62 279.592,33.384 L279.232,33.168 C279.592,31.152 279.988,28.056 280.168,25.86 L273.796,25.86 C272.608,27.876 271.24,29.604 269.728,31.044 L269.26,30.792 C270.412,27.264 271.42,21.972 271.816,17.256 L278.044,18.912 C277.864,19.38 277.432,19.704 276.604,19.74 C275.956,21.576 275.2,23.268 274.372,24.852 L279.844,24.852 L282.04,22.656 Z M310.444,47.1 L313.864,47.1 L313.864,36.912 L310.444,36.912 L310.444,47.1 Z M294.028,36.912 L294.028,47.1 L297.376,47.1 L297.376,36.912 L294.028,36.912 Z M297.376,26.904 L294.028,26.904 L294.028,35.904 L297.376,35.904 L297.376,26.904 Z M305.404,36.912 L302.308,36.912 L302.308,47.1 L305.404,47.1 L305.404,36.912 Z M305.404,26.904 L302.308,26.904 L302.308,35.904 L305.404,35.904 L305.404,26.904 Z M313.864,26.904 L310.444,26.904 L310.444,35.904 L313.864,35.904 L313.864,26.904 Z M315.844,23.304 L320.488,26.94 C320.272,27.264 319.804,27.552 319.084,27.732 L319.084,49.44 C319.012,49.8 316.564,50.88 314.728,50.88 L313.864,50.88 L313.864,48.108 L294.028,48.108 L294.028,49.44 C294.028,50.052 291.868,51.276 289.672,51.276 L288.844,51.276 L288.844,23.736 L294.424,25.896 L297.376,25.896 L297.376,17.58 L303.64,18.156 C303.568,18.696 303.316,19.056 302.308,19.2 L302.308,25.896 L305.404,25.896 L305.404,17.58 L311.776,18.156 C311.704,18.696 311.416,19.056 310.444,19.2 L310.444,25.896 L313.504,25.896 L315.844,23.304 Z" id="年度歌曲" fill="#181818"></path>
                <path d="M18.0351562,67.3007812 L38.25,67.3007812 L38.25,75 L1.79296875,75 L20.6367188,52.1835938 C22.4882905,49.9101449 24.0410094,47.9414146 25.2949219,46.2773438 C26.5488344,44.6132729 27.503903,43.2187556 28.1601562,42.09375 C29.4961004,39.890614 30.1640625,37.910165 30.1640625,36.1523438 C30.1640625,33.6210811 29.2734464,31.5000086 27.4921875,29.7890625 C25.7109286,28.0781164 23.5078256,27.2226562 20.8828125,27.2226562 C15.3984101,27.2226562 12.2578165,30.4687175 11.4609375,36.9609375 L3.3046875,36.9609375 C4.61719406,25.5233803 10.39448,19.8046875 20.6367188,19.8046875 C25.582056,19.8046875 29.730452,21.3749843 33.0820312,24.515625 C36.4570481,27.6562657 38.1445312,31.5468518 38.1445312,36.1875 C38.1445312,39.1406398 37.3593829,42.0351421 35.7890625,44.8710938 C34.9921835,46.3476636 33.8261796,48.0995992 32.2910156,50.1269531 C30.7558517,52.154307 28.816418,54.5507674 26.4726562,57.3164062 L18.0351562,67.3007812 Z M47.4960938,47.5078125 C47.4960938,38.8593318 49.5116986,31.957057 53.5429688,26.8007812 C57.1523618,22.1366954 61.5234118,19.8046875 66.65625,19.8046875 C71.7890882,19.8046875 76.1601382,22.1366954 79.7695312,26.8007812 C83.8008014,31.957057 85.8164062,38.9765181 85.8164062,47.859375 C85.8164062,56.7187943 83.8008014,63.7265367 79.7695312,68.8828125 C76.1601382,73.5468983 71.8008068,75.8789062 66.6914062,75.8789062 C61.5820057,75.8789062 57.199237,73.5468983 53.5429688,68.8828125 C49.5116986,63.7265367 47.4960938,56.601608 47.4960938,47.5078125 Z M55.546875,47.5429688 C55.546875,53.5664364 56.5898333,58.5702926 58.6757812,62.5546875 C60.7617292,66.4687696 63.4218588,68.4257812 66.65625,68.4257812 C69.8672036,68.4257812 72.5273332,66.4687696 74.6367188,62.5546875 C76.7461043,58.664043 77.8007812,53.7539359 77.8007812,47.8242188 C77.8007812,41.8945016 76.7461043,36.9726758 74.6367188,33.0585938 C72.5273332,29.1679493 69.8672036,27.2226562 66.65625,27.2226562 C63.4687341,27.2226562 60.820323,29.1679493 58.7109375,33.0585938 C56.601552,36.9258006 55.546875,41.7538773 55.546875,47.5429688 Z M102.832031,28.3828125 L93.4453125,28.3828125 L97.9453125,20.71875 L111.023438,20.71875 L111.023438,75 L102.832031,75 L102.832031,28.3828125 Z M134.859375,46.7695312 C130.87498,43.9570172 128.882812,40.1250243 128.882812,35.2734375 C128.882812,30.8671655 130.394516,27.1875148 133.417969,24.234375 C136.464859,21.2812352 140.249977,19.8046875 144.773438,19.8046875 C149.27346,19.8046875 153.023423,21.2812352 156.023438,24.234375 C159.023452,27.1640771 160.523438,30.8554465 160.523438,35.3085938 C160.523438,39.9726796 158.542989,43.7812352 154.582031,46.734375 C156.76173,47.9062559 158.47265,49.6171762 159.714844,51.8671875 C160.980475,54.1171988 161.613281,56.6484234 161.613281,59.4609375 C161.613281,64.265649 160.042984,68.2031096 156.902344,71.2734375 C153.761703,74.3437654 149.742212,75.8789062 144.84375,75.8789062 C139.8281,75.8789062 135.691423,74.3320467 132.433594,71.2382812 C129.152327,68.1445158 127.511719,64.2539297 127.511719,59.5664062 C127.511719,53.4726258 129.960913,49.2070434 134.859375,46.7695312 Z M136.582031,35.2382812 C136.582031,37.5586054 137.36718,39.5038984 138.9375,41.0742188 C140.531258,42.6679767 142.453114,43.4648438 144.703125,43.4648438 C146.929699,43.4648438 148.839836,42.6679767 150.433594,41.0742188 C152.027352,39.4804608 152.824219,37.5703236 152.824219,35.34375 C152.824219,33.1171764 152.027352,31.2070392 150.433594,29.6132812 C148.839836,28.0195233 146.929699,27.2226562 144.703125,27.2226562 C142.476551,27.2226562 140.566414,28.0195233 138.972656,29.6132812 C137.378898,31.2070392 136.582031,33.0820205 136.582031,35.2382812 Z M135.5625,59.2851562 C135.5625,61.7929813 136.429679,63.9492097 138.164062,65.7539062 C139.921884,67.5351652 142.054675,68.4257812 144.5625,68.4257812 C147.046887,68.4257812 149.16796,67.5468838 150.925781,65.7890625 C152.683603,64.0078036 153.5625,61.8750124 153.5625,59.390625 C153.5625,56.8828 152.683603,54.7500088 150.925781,52.9921875 C149.16796,51.2343662 147.046887,50.3554688 144.5625,50.3554688 C142.10155,50.3554688 139.980478,51.2343662 138.199219,52.9921875 C136.441397,54.7500088 135.5625,56.8476441 135.5625,59.2851562 Z" id="2018" fill="#4A90E2"></path>
            </g>
        </g>
    </g>
</svg>